<svg width="14" height="19" viewBox="0 0 14 19" fill="none" xmlns="http://www.w3.org/2000/svg">
<path d="M3.97826 6.71047C2.58452 7.87193 2.11993 9.26568 2.58452 10.8917C2.81681 13.2146 4.44285 15.5375 6.06889 17.1636C6.30118 17.3959 6.06889 17.6282 5.83659 17.3959L4.44285 16.9313L4.90743 18.325C5.13972 18.5573 4.90743 18.5573 4.67514 18.5573L3.74597 17.6282C3.74597 18.0927 3.28139 17.8605 3.0491 17.6282C0.958476 15.7698 -0.20298 12.0532 0.029311 9.49797C0.261602 7.40735 2.58452 3.45839 4.67514 3.45839C4.90743 2.99381 5.6043 2.06465 6.99805 2.06465C6.99805 1.13548 5.83659 0.438607 4.90743 0.206316C6.99805 -0.490558 7.69492 0.670898 8.3918 2.29694C8.62409 2.29694 8.62409 2.29694 8.85638 2.52923C9.08867 1.13548 10.7147 1.13548 11.8762 1.36777C10.947 1.83235 10.4824 2.29694 10.2501 2.99381C15.3605 6.47818 15.3605 16.9313 9.55326 18.0927C9.32096 18.325 9.08867 18.0927 9.32096 17.8605L9.55326 17.3959L9.08867 17.6282C8.85638 17.8605 8.62409 17.6282 8.85638 17.1636C10.2501 15.5375 11.8762 13.6792 10.7147 11.3563C10.0178 9.96255 6.30118 12.5178 3.97826 6.71047Z" fill="#51004F"/>
</svg>
