<svg width="541" height="248" viewBox="0 0 541 248" fill="none" xmlns="http://www.w3.org/2000/svg">
<rect width="8" height="38" rx="4" fill="#A83F98"/>
<path d="M18.0735 11H17.0065V3.1185H18.0735V11ZM20.6966 6.237C20.8176 6.10133 20.9459 5.9785 21.0816 5.8685C21.2172 5.7585 21.3602 5.665 21.5106 5.588C21.6646 5.50733 21.8259 5.44683 21.9946 5.4065C22.1669 5.3625 22.3521 5.3405 22.5501 5.3405C22.8544 5.3405 23.1221 5.39183 23.3531 5.4945C23.5877 5.5935 23.7821 5.7365 23.9361 5.9235C24.0937 6.10683 24.2129 6.32867 24.2936 6.589C24.3742 6.84933 24.4146 7.13717 24.4146 7.4525V11H23.4301V7.4525C23.4301 7.03083 23.3329 6.7045 23.1386 6.4735C22.9479 6.23883 22.6564 6.1215 22.2641 6.1215C21.9744 6.1215 21.7031 6.19117 21.4501 6.3305C21.2007 6.46983 20.9697 6.65867 20.7571 6.897V11H19.7726V5.4285H20.3611C20.5004 5.4285 20.5866 5.49633 20.6196 5.632L20.6966 6.237ZM29.7839 6.4185C29.7545 6.45883 29.7252 6.49 29.6959 6.512C29.6665 6.534 29.6262 6.545 29.5749 6.545C29.5199 6.545 29.4594 6.523 29.3934 6.479C29.3274 6.43133 29.2449 6.38 29.1459 6.325C29.0505 6.27 28.9314 6.2205 28.7884 6.1765C28.649 6.12883 28.4767 6.105 28.2714 6.105C27.9964 6.105 27.7544 6.1545 27.5454 6.2535C27.3364 6.34883 27.1604 6.48817 27.0174 6.6715C26.878 6.85483 26.7717 7.07667 26.6984 7.337C26.6287 7.59733 26.5939 7.88883 26.5939 8.2115C26.5939 8.54883 26.6324 8.8495 26.7094 9.1135C26.7864 9.37383 26.8945 9.59383 27.0339 9.7735C27.1769 9.9495 27.3474 10.0852 27.5454 10.1805C27.747 10.2722 27.9725 10.318 28.2219 10.318C28.4602 10.318 28.6564 10.2905 28.8104 10.2355C28.9644 10.1768 29.0909 10.1127 29.1899 10.043C29.2925 9.97333 29.3769 9.911 29.4429 9.856C29.5125 9.79733 29.5804 9.768 29.6464 9.768C29.727 9.768 29.7894 9.79917 29.8334 9.8615L30.1084 10.219C29.9874 10.3693 29.8499 10.4977 29.6959 10.604C29.5419 10.7103 29.375 10.8002 29.1954 10.8735C29.0194 10.9432 28.8342 10.9945 28.6399 11.0275C28.4455 11.0605 28.2475 11.077 28.0459 11.077C27.6975 11.077 27.373 11.0128 27.0724 10.8845C26.7754 10.7562 26.5169 10.571 26.2969 10.329C26.0769 10.0833 25.9045 9.78267 25.7799 9.427C25.6552 9.07133 25.5929 8.66617 25.5929 8.2115C25.5929 7.79717 25.6497 7.414 25.7634 7.062C25.8807 6.71 26.0494 6.4075 26.2694 6.1545C26.493 5.89783 26.7662 5.698 27.0889 5.555C27.4152 5.412 27.7892 5.3405 28.2109 5.3405C28.6032 5.3405 28.9479 5.40467 29.2449 5.533C29.5455 5.65767 29.8114 5.8355 30.0424 6.0665L29.7839 6.4185ZM33.4111 5.3405C33.8181 5.3405 34.1848 5.40833 34.5111 5.544C34.8374 5.67967 35.1161 5.87217 35.3471 6.1215C35.5781 6.37083 35.7541 6.67333 35.8751 7.029C35.9998 7.381 36.0621 7.77517 36.0621 8.2115C36.0621 8.6515 35.9998 9.0475 35.8751 9.3995C35.7541 9.7515 35.5781 10.0522 35.3471 10.3015C35.1161 10.5508 34.8374 10.7433 34.5111 10.879C34.1848 11.011 33.8181 11.077 33.4111 11.077C33.0004 11.077 32.6301 11.011 32.3001 10.879C31.9738 10.7433 31.6951 10.5508 31.4641 10.3015C31.2331 10.0522 31.0553 9.7515 30.9306 9.3995C30.8096 9.0475 30.7491 8.6515 30.7491 8.2115C30.7491 7.77517 30.8096 7.381 30.9306 7.029C31.0553 6.67333 31.2331 6.37083 31.4641 6.1215C31.6951 5.87217 31.9738 5.67967 32.3001 5.544C32.6301 5.40833 33.0004 5.3405 33.4111 5.3405ZM33.4111 10.3125C33.9611 10.3125 34.3718 10.1292 34.6431 9.7625C34.9144 9.39217 35.0501 8.877 35.0501 8.217C35.0501 7.55333 34.9144 7.03633 34.6431 6.666C34.3718 6.29567 33.9611 6.1105 33.4111 6.1105C33.1324 6.1105 32.8886 6.15817 32.6796 6.2535C32.4743 6.34883 32.3019 6.48633 32.1626 6.666C32.0269 6.84567 31.9243 7.0675 31.8546 7.3315C31.7886 7.59183 31.7556 7.887 31.7556 8.217C31.7556 8.877 31.8913 9.39217 32.1626 9.7625C32.4376 10.1292 32.8538 10.3125 33.4111 10.3125ZM37.3038 11V5.4285H37.8923C38.0317 5.4285 38.1178 5.49633 38.1508 5.632L38.2223 6.204C38.4277 5.951 38.6587 5.74383 38.9153 5.5825C39.172 5.42117 39.469 5.3405 39.8063 5.3405C40.1803 5.3405 40.4828 5.445 40.7138 5.654C40.9485 5.863 41.1172 6.14533 41.2198 6.501C41.3005 6.29933 41.4032 6.12517 41.5278 5.9785C41.6562 5.83183 41.7992 5.71083 41.9568 5.6155C42.1145 5.52017 42.2813 5.4505 42.4573 5.4065C42.637 5.3625 42.8185 5.3405 43.0018 5.3405C43.2952 5.3405 43.5555 5.38817 43.7828 5.4835C44.0138 5.57517 44.2082 5.71083 44.3658 5.8905C44.5272 6.07017 44.65 6.292 44.7343 6.556C44.8187 6.81633 44.8608 7.11517 44.8608 7.4525V11H43.8763V7.4525C43.8763 7.01617 43.781 6.68617 43.5903 6.4625C43.3997 6.23517 43.1247 6.1215 42.7653 6.1215C42.604 6.1215 42.45 6.15083 42.3033 6.2095C42.1603 6.2645 42.0338 6.347 41.9238 6.457C41.8138 6.567 41.7258 6.70633 41.6598 6.875C41.5975 7.04 41.5663 7.2325 41.5663 7.4525V11H40.5818V7.4525C40.5818 7.00517 40.492 6.6715 40.3123 6.4515C40.1327 6.2315 39.8705 6.1215 39.5258 6.1215C39.2838 6.1215 39.0602 6.1875 38.8548 6.3195C38.6495 6.44783 38.4607 6.62383 38.2883 6.8475V11H37.3038ZM50.0777 7.6065C50.0777 7.37917 50.0447 7.172 49.9787 6.985C49.9164 6.79433 49.8229 6.63117 49.6982 6.4955C49.5772 6.35617 49.4287 6.24983 49.2527 6.1765C49.0767 6.0995 48.8769 6.061 48.6532 6.061C48.1839 6.061 47.8117 6.1985 47.5367 6.4735C47.2654 6.74483 47.0967 7.1225 47.0307 7.6065H50.0777ZM50.8697 10.219C50.7487 10.3657 50.6039 10.494 50.4352 10.604C50.2666 10.7103 50.0851 10.7983 49.8907 10.868C49.7001 10.9377 49.5021 10.989 49.2967 11.022C49.0914 11.0587 48.8879 11.077 48.6862 11.077C48.3012 11.077 47.9456 11.0128 47.6192 10.8845C47.2966 10.7525 47.0161 10.5618 46.7777 10.3125C46.5431 10.0595 46.3597 9.74783 46.2277 9.3775C46.0957 9.00717 46.0297 8.58183 46.0297 8.1015C46.0297 7.71283 46.0884 7.34983 46.2057 7.0125C46.3267 6.67517 46.4991 6.38367 46.7227 6.138C46.9464 5.88867 47.2196 5.69433 47.5422 5.555C47.8649 5.412 48.2279 5.3405 48.6312 5.3405C48.9649 5.3405 49.2729 5.39733 49.5552 5.511C49.8412 5.621 50.0869 5.78233 50.2922 5.995C50.5012 6.204 50.6644 6.46433 50.7817 6.776C50.8991 7.084 50.9577 7.436 50.9577 7.832C50.9577 7.986 50.9412 8.08867 50.9082 8.14C50.8752 8.19133 50.8129 8.217 50.7212 8.217H46.9977C47.0087 8.569 47.0564 8.87517 47.1407 9.1355C47.2287 9.39583 47.3497 9.614 47.5037 9.79C47.6577 9.96233 47.8411 10.0925 48.0537 10.1805C48.2664 10.2648 48.5047 10.307 48.7687 10.307C49.0144 10.307 49.2252 10.2795 49.4012 10.2245C49.5809 10.1658 49.7349 10.1035 49.8632 10.0375C49.9916 9.9715 50.0979 9.911 50.1822 9.856C50.2702 9.79733 50.3454 9.768 50.4077 9.768C50.4884 9.768 50.5507 9.79917 50.5947 9.8615L50.8697 10.219Z" fill="#66615E"/>
<path d="M21.679 34.263C22.315 34.179 22.795 33.966 23.119 33.624C23.449 33.276 23.614 32.823 23.614 32.265C23.614 32.037 23.572 31.839 23.488 31.671C23.41 31.497 23.296 31.344 23.146 31.212C23.002 31.08 22.831 30.966 22.633 30.87C22.435 30.774 22.219 30.684 21.985 30.6L21.679 34.263ZM21.103 24.75C20.767 24.792 20.482 24.864 20.248 24.966C20.014 25.062 19.822 25.182 19.672 25.326C19.522 25.47 19.411 25.632 19.339 25.812C19.273 25.992 19.24 26.181 19.24 26.379C19.24 26.607 19.279 26.808 19.357 26.982C19.441 27.15 19.552 27.303 19.69 27.441C19.834 27.573 20.002 27.693 20.194 27.801C20.386 27.903 20.596 27.999 20.824 28.089L21.103 24.75ZM22.156 28.521C22.588 28.653 23.017 28.8 23.443 28.962C23.869 29.118 24.25 29.322 24.586 29.574C24.928 29.826 25.204 30.141 25.414 30.519C25.624 30.891 25.729 31.359 25.729 31.923C25.729 32.481 25.636 33.006 25.45 33.498C25.264 33.984 24.991 34.416 24.631 34.794C24.271 35.166 23.83 35.472 23.308 35.712C22.786 35.946 22.189 36.084 21.517 36.126L21.409 37.449C21.403 37.587 21.343 37.713 21.229 37.827C21.121 37.947 20.983 38.007 20.815 38.007H19.996L20.158 36.081C19.456 35.985 18.796 35.793 18.178 35.505C17.56 35.217 17.035 34.86 16.603 34.434L17.287 33.417C17.347 33.327 17.425 33.255 17.521 33.201C17.623 33.141 17.731 33.111 17.845 33.111C17.977 33.111 18.118 33.159 18.268 33.255C18.418 33.345 18.589 33.453 18.781 33.579C18.973 33.699 19.192 33.822 19.438 33.948C19.684 34.074 19.975 34.167 20.311 34.227L20.644 30.204C20.218 30.084 19.795 29.943 19.375 29.781C18.961 29.619 18.586 29.406 18.25 29.142C17.92 28.872 17.653 28.533 17.449 28.125C17.245 27.717 17.143 27.207 17.143 26.595C17.143 26.139 17.233 25.695 17.413 25.263C17.593 24.825 17.857 24.435 18.205 24.093C18.559 23.751 18.991 23.469 19.501 23.247C20.011 23.025 20.596 22.899 21.256 22.869L21.355 21.735C21.367 21.591 21.427 21.462 21.535 21.348C21.643 21.234 21.784 21.177 21.958 21.177H22.777L22.633 22.941C23.269 23.043 23.818 23.226 24.28 23.49C24.742 23.748 25.141 24.039 25.477 24.363L24.937 25.182C24.859 25.302 24.778 25.392 24.694 25.452C24.61 25.512 24.508 25.542 24.388 25.542C24.298 25.542 24.19 25.515 24.064 25.461C23.938 25.401 23.797 25.332 23.641 25.254C23.485 25.17 23.308 25.086 23.11 25.002C22.918 24.918 22.705 24.849 22.471 24.795L22.156 28.521ZM40.1334 34.335V36H32.9334V34.335H35.5704V26.748C35.5704 26.448 35.5794 26.139 35.5974 25.821L33.7254 27.387C33.6174 27.471 33.5094 27.525 33.4014 27.549C33.2994 27.567 33.2004 27.567 33.1044 27.549C33.0144 27.531 32.9334 27.501 32.8614 27.459C32.7894 27.411 32.7354 27.36 32.6994 27.306L31.9974 26.343L35.9664 22.968H37.7934V34.335H40.1334ZM47.6678 31.095V26.838C47.6678 26.436 47.6948 25.992 47.7488 25.506L43.7078 31.095H47.6678ZM51.2408 31.095V32.382C51.2408 32.502 51.2018 32.607 51.1238 32.697C51.0458 32.781 50.9348 32.823 50.7908 32.823H49.6028V36H47.6678V32.823H42.1778C42.0278 32.823 41.8958 32.778 41.7818 32.688C41.6678 32.592 41.5958 32.475 41.5658 32.337L41.3318 31.212L47.4968 22.977H49.6028V31.095H51.2408ZM52.7632 38.205C52.6552 38.115 52.6012 38.004 52.6012 37.872C52.6012 37.824 52.6162 37.77 52.6462 37.71C52.6822 37.65 52.7242 37.596 52.7722 37.548C52.8382 37.476 52.9192 37.386 53.0152 37.278C53.1112 37.176 53.2072 37.056 53.3032 36.918C53.3992 36.786 53.4862 36.639 53.5642 36.477C53.6482 36.321 53.7112 36.153 53.7532 35.973C53.5612 35.973 53.3872 35.94 53.2312 35.874C53.0752 35.802 52.9402 35.706 52.8262 35.586C52.7182 35.466 52.6312 35.325 52.5652 35.163C52.5052 35.001 52.4752 34.824 52.4752 34.632C52.4752 34.464 52.5052 34.308 52.5652 34.164C52.6312 34.014 52.7212 33.885 52.8352 33.777C52.9492 33.663 53.0872 33.576 53.2492 33.516C53.4112 33.45 53.5882 33.417 53.7802 33.417C54.0082 33.417 54.2062 33.459 54.3742 33.543C54.5482 33.621 54.6892 33.732 54.7972 33.876C54.9112 34.014 54.9952 34.176 55.0492 34.362C55.1092 34.542 55.1392 34.734 55.1392 34.938C55.1392 35.226 55.0942 35.529 55.0042 35.847C54.9202 36.165 54.7942 36.483 54.6262 36.801C54.4582 37.119 54.2482 37.428 53.9962 37.728C53.7502 38.028 53.4682 38.304 53.1502 38.556L52.7632 38.205ZM62.3279 31.095V26.838C62.3279 26.436 62.3549 25.992 62.4089 25.506L58.3679 31.095H62.3279ZM65.9009 31.095V32.382C65.9009 32.502 65.8619 32.607 65.7839 32.697C65.7059 32.781 65.5949 32.823 65.4509 32.823H64.2629V36H62.3279V32.823H56.8379C56.6879 32.823 56.5559 32.778 56.4419 32.688C56.3279 32.592 56.2559 32.475 56.2259 32.337L55.9919 31.212L62.1569 22.977H64.2629V31.095H65.9009ZM70.0153 27.711C70.3033 27.651 70.5793 27.609 70.8433 27.585C71.1073 27.555 71.3623 27.54 71.6083 27.54C72.2923 27.54 72.8953 27.642 73.4173 27.846C73.9393 28.05 74.3773 28.332 74.7313 28.692C75.0853 29.052 75.3523 29.475 75.5323 29.961C75.7123 30.441 75.8023 30.96 75.8023 31.518C75.8023 32.208 75.6793 32.838 75.4333 33.408C75.1933 33.978 74.8573 34.467 74.4253 34.875C73.9933 35.277 73.4803 35.589 72.8863 35.811C72.2983 36.033 71.6563 36.144 70.9603 36.144C70.5523 36.144 70.1653 36.102 69.7993 36.018C69.4333 35.934 69.0883 35.823 68.7643 35.685C68.4463 35.541 68.1493 35.379 67.8733 35.199C67.6033 35.013 67.3603 34.818 67.1443 34.614L67.8283 33.669C67.9723 33.465 68.1613 33.363 68.3953 33.363C68.5453 33.363 68.6983 33.411 68.8543 33.507C69.0103 33.603 69.1873 33.708 69.3853 33.822C69.5893 33.936 69.8263 34.041 70.0963 34.137C70.3723 34.233 70.7023 34.281 71.0863 34.281C71.4943 34.281 71.8543 34.215 72.1663 34.083C72.4783 33.951 72.7363 33.768 72.9403 33.534C73.1503 33.294 73.3063 33.012 73.4083 32.688C73.5163 32.358 73.5703 32.001 73.5703 31.617C73.5703 30.909 73.3633 30.357 72.9493 29.961C72.5413 29.559 71.9353 29.358 71.1313 29.358C70.5133 29.358 69.8803 29.472 69.2323 29.7L67.8463 29.304L68.9263 22.986H75.3523V23.931C75.3523 24.249 75.2533 24.507 75.0553 24.705C74.8573 24.903 74.5213 25.002 74.0473 25.002H70.4743L70.0153 27.711ZM86.7927 29.493C86.7927 30.627 86.6697 31.614 86.4237 32.454C86.1837 33.288 85.8477 33.978 85.4157 34.524C84.9897 35.07 84.4827 35.478 83.8947 35.748C83.3127 36.012 82.6827 36.144 82.0047 36.144C81.3267 36.144 80.6967 36.012 80.1147 35.748C79.5387 35.478 79.0377 35.07 78.6117 34.524C78.1857 33.978 77.8527 33.288 77.6127 32.454C77.3727 31.614 77.2527 30.627 77.2527 29.493C77.2527 28.353 77.3727 27.366 77.6127 26.532C77.8527 25.698 78.1857 25.008 78.6117 24.462C79.0377 23.916 79.5387 23.511 80.1147 23.247C80.6967 22.977 81.3267 22.842 82.0047 22.842C82.6827 22.842 83.3127 22.977 83.8947 23.247C84.4827 23.511 84.9897 23.916 85.4157 24.462C85.8477 25.008 86.1837 25.698 86.4237 26.532C86.6697 27.366 86.7927 28.353 86.7927 29.493ZM84.4977 29.493C84.4977 28.551 84.4287 27.771 84.2907 27.153C84.1527 26.535 83.9667 26.043 83.7327 25.677C83.5047 25.311 83.2407 25.056 82.9407 24.912C82.6407 24.762 82.3287 24.687 82.0047 24.687C81.6867 24.687 81.3777 24.762 81.0777 24.912C80.7837 25.056 80.5227 25.311 80.2947 25.677C80.0667 26.043 79.8837 26.535 79.7457 27.153C79.6137 27.771 79.5477 28.551 79.5477 29.493C79.5477 30.435 79.6137 31.215 79.7457 31.833C79.8837 32.451 80.0667 32.943 80.2947 33.309C80.5227 33.675 80.7837 33.933 81.0777 34.083C81.3777 34.227 81.6867 34.299 82.0047 34.299C82.3287 34.299 82.6407 34.227 82.9407 34.083C83.2407 33.933 83.5047 33.675 83.7327 33.309C83.9667 32.943 84.1527 32.451 84.2907 31.833C84.4287 31.215 84.4977 30.435 84.4977 29.493Z" fill="#1A1615"/>
<path d="M5.4285 69.5705C5.53483 69.5705 5.61917 69.6017 5.6815 69.664C5.74383 69.7263 5.775 69.807 5.775 69.906V70.5H0.517V70.1645C0.517 70.0948 0.531667 70.0233 0.561 69.95C0.590333 69.8767 0.636167 69.8088 0.6985 69.7465L3.223 67.211C3.432 66.9983 3.62267 66.7948 3.795 66.6005C3.96733 66.4025 4.114 66.2045 4.235 66.0065C4.356 65.8085 4.4495 65.6087 4.5155 65.407C4.5815 65.2017 4.6145 64.9835 4.6145 64.7525C4.6145 64.5215 4.57783 64.3198 4.5045 64.1475C4.43117 63.9715 4.33033 63.8267 4.202 63.713C4.07733 63.5993 3.92883 63.515 3.7565 63.46C3.58417 63.4013 3.399 63.372 3.201 63.372C2.99933 63.372 2.81417 63.4013 2.6455 63.46C2.47683 63.5187 2.3265 63.6012 2.1945 63.7075C2.06617 63.8102 1.958 63.933 1.87 64.076C1.782 64.219 1.71967 64.3767 1.683 64.549C1.639 64.6773 1.5785 64.7635 1.5015 64.8075C1.42817 64.8478 1.32367 64.8588 1.188 64.8405L0.6765 64.7525C0.727833 64.3932 0.826833 64.076 0.9735 63.801C1.12383 63.5223 1.31083 63.2895 1.5345 63.1025C1.76183 62.9155 2.02033 62.7743 2.31 62.679C2.59967 62.58 2.91317 62.5305 3.2505 62.5305C3.58417 62.5305 3.89583 62.58 4.1855 62.679C4.47517 62.778 4.72633 62.9228 4.939 63.1135C5.15167 63.3005 5.3185 63.5297 5.4395 63.801C5.5605 64.0723 5.621 64.3803 5.621 64.725C5.621 65.0183 5.577 65.2915 5.489 65.5445C5.401 65.7938 5.28183 66.0322 5.1315 66.2595C4.98117 66.4868 4.807 66.7087 4.609 66.925C4.41467 67.1413 4.2075 67.3595 3.9875 67.5795L1.9085 69.7025C2.05517 69.6622 2.20367 69.631 2.354 69.609C2.50433 69.5833 2.64917 69.5705 2.7885 69.5705H5.4285ZM9.57086 69.807C9.82753 69.807 10.0567 69.7722 10.2584 69.7025C10.4637 69.6292 10.636 69.5283 10.7754 69.4C10.9184 69.268 11.0265 69.1122 11.0999 68.9325C11.1769 68.7492 11.2154 68.5475 11.2154 68.3275C11.2154 68.0562 11.1695 67.8252 11.0779 67.6345C10.9899 67.4402 10.8689 67.2825 10.7149 67.1615C10.5645 67.0405 10.3904 66.9525 10.1924 66.8975C9.99436 66.8388 9.78719 66.8095 9.57086 66.8095C9.35453 66.8095 9.14736 66.8388 8.94936 66.8975C8.75136 66.9525 8.57536 67.0405 8.42136 67.1615C8.27103 67.2825 8.15003 67.4402 8.05836 67.6345C7.97036 67.8252 7.92636 68.0562 7.92636 68.3275C7.92636 68.5475 7.96303 68.7492 8.03636 68.9325C8.11336 69.1122 8.22153 69.268 8.36086 69.4C8.50386 69.5283 8.67619 69.6292 8.87786 69.7025C9.08319 69.7722 9.31419 69.807 9.57086 69.807ZM9.57086 63.2895C9.33619 63.2895 9.12903 63.3243 8.94936 63.394C8.77336 63.4637 8.62486 63.559 8.50386 63.68C8.38653 63.801 8.29669 63.9422 8.23436 64.1035C8.17569 64.2648 8.14636 64.4372 8.14636 64.6205C8.14636 64.8002 8.17203 64.9743 8.22336 65.143C8.27469 65.3117 8.35719 65.462 8.47086 65.594C8.58453 65.7223 8.73119 65.8268 8.91086 65.9075C9.09419 65.9845 9.31419 66.023 9.57086 66.023C9.82753 66.023 10.0457 65.9845 10.2254 65.9075C10.4087 65.8268 10.5572 65.7223 10.6709 65.594C10.7845 65.462 10.867 65.3117 10.9184 65.143C10.9697 64.9743 10.9954 64.8002 10.9954 64.6205C10.9954 64.4372 10.9642 64.2648 10.9019 64.1035C10.8432 63.9422 10.7534 63.801 10.6324 63.68C10.515 63.559 10.3665 63.4637 10.1869 63.394C10.0109 63.3243 9.80553 63.2895 9.57086 63.2895ZM10.6984 66.3915C11.1897 66.5308 11.5674 66.7637 11.8314 67.09C12.0954 67.4163 12.2274 67.8343 12.2274 68.344C12.2274 68.6887 12.1614 69.0003 12.0294 69.279C11.901 69.554 11.7195 69.7887 11.4849 69.983C11.2539 70.1773 10.9752 70.3277 10.6489 70.434C10.3225 70.5367 9.96319 70.588 9.57086 70.588C9.17853 70.588 8.81919 70.5367 8.49286 70.434C8.16653 70.3277 7.88603 70.1773 7.65136 69.983C7.41669 69.7887 7.23519 69.554 7.10686 69.279C6.97853 69.0003 6.91436 68.6887 6.91436 68.344C6.91436 67.8343 7.04636 67.4163 7.31036 67.09C7.57436 66.7637 7.95203 66.5308 8.44336 66.3915C8.02903 66.2375 7.71553 66.0083 7.50286 65.704C7.29386 65.396 7.18936 65.0293 7.18936 64.604C7.18936 64.3143 7.24619 64.043 7.35986 63.79C7.47353 63.537 7.63486 63.317 7.84386 63.13C8.05286 62.943 8.30219 62.7963 8.59186 62.69C8.88519 62.5837 9.21153 62.5305 9.57086 62.5305C9.92653 62.5305 10.251 62.5837 10.5444 62.69C10.8377 62.7963 11.0889 62.943 11.2979 63.13C11.5069 63.317 11.6682 63.537 11.7819 63.79C11.8955 64.043 11.9524 64.3143 11.9524 64.604C11.9524 65.0293 11.846 65.396 11.6334 65.704C11.4244 66.0083 11.1127 66.2375 10.6984 66.3915ZM18.8117 66.562C18.8117 67.2513 18.7366 67.849 18.5862 68.355C18.4396 68.8573 18.2379 69.2735 17.9812 69.6035C17.7246 69.9335 17.4202 70.1792 17.0682 70.3405C16.7199 70.5018 16.3459 70.5825 15.9462 70.5825C15.5429 70.5825 15.1671 70.5018 14.8187 70.3405C14.4741 70.1792 14.1734 69.9335 13.9167 69.6035C13.6601 69.2735 13.4584 68.8573 13.3117 68.355C13.1651 67.849 13.0917 67.2513 13.0917 66.562C13.0917 65.8727 13.1651 65.275 13.3117 64.769C13.4584 64.263 13.6601 63.845 13.9167 63.515C14.1734 63.1813 14.4741 62.9338 14.8187 62.7725C15.1671 62.6112 15.5429 62.5305 15.9462 62.5305C16.3459 62.5305 16.7199 62.6112 17.0682 62.7725C17.4202 62.9338 17.7246 63.1813 17.9812 63.515C18.2379 63.845 18.4396 64.263 18.5862 64.769C18.7366 65.275 18.8117 65.8727 18.8117 66.562ZM17.7942 66.562C17.7942 65.9607 17.7429 65.4565 17.6402 65.0495C17.5412 64.6388 17.4056 64.3088 17.2332 64.0595C17.0646 63.8102 16.8684 63.6323 16.6447 63.526C16.4211 63.416 16.1882 63.361 15.9462 63.361C15.7042 63.361 15.4714 63.416 15.2477 63.526C15.0241 63.6323 14.8279 63.8102 14.6592 64.0595C14.4906 64.3088 14.3549 64.6388 14.2522 65.0495C14.1532 65.4565 14.1037 65.9607 14.1037 66.562C14.1037 67.1633 14.1532 67.6675 14.2522 68.0745C14.3549 68.4815 14.4906 68.8097 14.6592 69.059C14.8279 69.3083 15.0241 69.488 15.2477 69.598C15.4714 69.7043 15.7042 69.7575 15.9462 69.7575C16.1882 69.7575 16.4211 69.7043 16.6447 69.598C16.8684 69.488 17.0646 69.3083 17.2332 69.059C17.4056 68.8097 17.5412 68.4815 17.6402 68.0745C17.7429 67.6675 17.7942 67.1633 17.7942 66.562Z" fill="#66615E"/>
<path d="M5.4285 107.07C5.53483 107.07 5.61917 107.102 5.6815 107.164C5.74383 107.226 5.775 107.307 5.775 107.406V108H0.517V107.664C0.517 107.595 0.531667 107.523 0.561 107.45C0.590333 107.377 0.636167 107.309 0.6985 107.246L3.223 104.711C3.432 104.498 3.62267 104.295 3.795 104.1C3.96733 103.902 4.114 103.704 4.235 103.506C4.356 103.308 4.4495 103.109 4.5155 102.907C4.5815 102.702 4.6145 102.483 4.6145 102.252C4.6145 102.021 4.57783 101.82 4.5045 101.647C4.43117 101.471 4.33033 101.327 4.202 101.213C4.07733 101.099 3.92883 101.015 3.7565 100.96C3.58417 100.901 3.399 100.872 3.201 100.872C2.99933 100.872 2.81417 100.901 2.6455 100.96C2.47683 101.019 2.3265 101.101 2.1945 101.207C2.06617 101.31 1.958 101.433 1.87 101.576C1.782 101.719 1.71967 101.877 1.683 102.049C1.639 102.177 1.5785 102.263 1.5015 102.307C1.42817 102.348 1.32367 102.359 1.188 102.34L0.6765 102.252C0.727833 101.893 0.826833 101.576 0.9735 101.301C1.12383 101.022 1.31083 100.789 1.5345 100.602C1.76183 100.415 2.02033 100.274 2.31 100.179C2.59967 100.08 2.91317 100.03 3.2505 100.03C3.58417 100.03 3.89583 100.08 4.1855 100.179C4.47517 100.278 4.72633 100.423 4.939 100.613C5.15167 100.8 5.3185 101.03 5.4395 101.301C5.5605 101.572 5.621 101.88 5.621 102.225C5.621 102.518 5.577 102.791 5.489 103.044C5.401 103.294 5.28183 103.532 5.1315 103.759C4.98117 103.987 4.807 104.209 4.609 104.425C4.41467 104.641 4.2075 104.859 3.9875 105.079L1.9085 107.202C2.05517 107.162 2.20367 107.131 2.354 107.109C2.50433 107.083 2.64917 107.07 2.7885 107.07H5.4285ZM11.9799 107.252V108H7.75586V107.252H9.44436V101.878C9.44436 101.717 9.44986 101.554 9.46086 101.389L8.05836 102.593C8.01069 102.634 7.96303 102.659 7.91536 102.67C7.86769 102.678 7.82369 102.678 7.78336 102.67C7.74303 102.663 7.70453 102.648 7.66786 102.626C7.63486 102.604 7.60919 102.581 7.59086 102.555L7.28286 102.131L9.63136 100.102H10.4289V107.252H11.9799ZM18.8117 104.062C18.8117 104.751 18.7366 105.349 18.5862 105.855C18.4396 106.357 18.2379 106.773 17.9812 107.103C17.7246 107.433 17.4202 107.679 17.0682 107.84C16.7199 108.002 16.3459 108.083 15.9462 108.083C15.5429 108.083 15.1671 108.002 14.8187 107.84C14.4741 107.679 14.1734 107.433 13.9167 107.103C13.6601 106.773 13.4584 106.357 13.3117 105.855C13.1651 105.349 13.0917 104.751 13.0917 104.062C13.0917 103.373 13.1651 102.775 13.3117 102.269C13.4584 101.763 13.6601 101.345 13.9167 101.015C14.1734 100.681 14.4741 100.434 14.8187 100.272C15.1671 100.111 15.5429 100.03 15.9462 100.03C16.3459 100.03 16.7199 100.111 17.0682 100.272C17.4202 100.434 17.7246 100.681 17.9812 101.015C18.2379 101.345 18.4396 101.763 18.5862 102.269C18.7366 102.775 18.8117 103.373 18.8117 104.062ZM17.7942 104.062C17.7942 103.461 17.7429 102.956 17.6402 102.549C17.5412 102.139 17.4056 101.809 17.2332 101.559C17.0646 101.31 16.8684 101.132 16.6447 101.026C16.4211 100.916 16.1882 100.861 15.9462 100.861C15.7042 100.861 15.4714 100.916 15.2477 101.026C15.0241 101.132 14.8279 101.31 14.6592 101.559C14.4906 101.809 14.3549 102.139 14.2522 102.549C14.1532 102.956 14.1037 103.461 14.1037 104.062C14.1037 104.663 14.1532 105.167 14.2522 105.574C14.3549 105.981 14.4906 106.31 14.6592 106.559C14.8279 106.808 15.0241 106.988 15.2477 107.098C15.4714 107.204 15.7042 107.257 15.9462 107.257C16.1882 107.257 16.4211 107.204 16.6447 107.098C16.8684 106.988 17.0646 106.808 17.2332 106.559C17.4056 106.31 17.5412 105.981 17.6402 105.574C17.7429 105.167 17.7942 104.663 17.7942 104.062Z" fill="#66615E"/>
<path d="M5.599 144.752V145.5H1.375V144.752H3.0635V139.378C3.0635 139.217 3.069 139.054 3.08 138.889L1.6775 140.093C1.62983 140.134 1.58217 140.159 1.5345 140.17C1.48683 140.178 1.44283 140.178 1.4025 140.17C1.36217 140.163 1.32367 140.148 1.287 140.126C1.254 140.104 1.22833 140.081 1.21 140.055L0.902 139.631L3.2505 137.602H4.048V144.752H5.599ZM10.3959 142.656V139.406C10.3959 139.311 10.3995 139.206 10.4069 139.092C10.4142 138.979 10.4252 138.863 10.4399 138.746L7.56886 142.656H10.3959ZM12.4474 142.656V143.217C12.4474 143.276 12.429 143.326 12.3924 143.366C12.3594 143.406 12.3062 143.426 12.2329 143.426H11.2539V145.5H10.3959V143.426H6.89786C6.82453 143.426 6.76036 143.406 6.70536 143.366C6.65403 143.322 6.62103 143.269 6.60636 143.206L6.50736 142.706L10.3409 137.618H11.2539V142.656H12.4474ZM18.8117 141.562C18.8117 142.251 18.7366 142.849 18.5862 143.355C18.4396 143.857 18.2379 144.273 17.9812 144.603C17.7246 144.933 17.4202 145.179 17.0682 145.34C16.7199 145.502 16.3459 145.583 15.9462 145.583C15.5429 145.583 15.1671 145.502 14.8187 145.34C14.4741 145.179 14.1734 144.933 13.9167 144.603C13.6601 144.273 13.4584 143.857 13.3117 143.355C13.1651 142.849 13.0917 142.251 13.0917 141.562C13.0917 140.873 13.1651 140.275 13.3117 139.769C13.4584 139.263 13.6601 138.845 13.9167 138.515C14.1734 138.181 14.4741 137.934 14.8187 137.772C15.1671 137.611 15.5429 137.53 15.9462 137.53C16.3459 137.53 16.7199 137.611 17.0682 137.772C17.4202 137.934 17.7246 138.181 17.9812 138.515C18.2379 138.845 18.4396 139.263 18.5862 139.769C18.7366 140.275 18.8117 140.873 18.8117 141.562ZM17.7942 141.562C17.7942 140.961 17.7429 140.456 17.6402 140.049C17.5412 139.639 17.4056 139.309 17.2332 139.059C17.0646 138.81 16.8684 138.632 16.6447 138.526C16.4211 138.416 16.1882 138.361 15.9462 138.361C15.7042 138.361 15.4714 138.416 15.2477 138.526C15.0241 138.632 14.8279 138.81 14.6592 139.059C14.4906 139.309 14.3549 139.639 14.2522 140.049C14.1532 140.456 14.1037 140.961 14.1037 141.562C14.1037 142.163 14.1532 142.667 14.2522 143.074C14.3549 143.481 14.4906 143.81 14.6592 144.059C14.8279 144.308 15.0241 144.488 15.2477 144.598C15.4714 144.704 15.7042 144.757 15.9462 144.757C16.1882 144.757 16.4211 144.704 16.6447 144.598C16.8684 144.488 17.0646 144.308 17.2332 144.059C17.4056 143.81 17.5412 143.481 17.6402 143.074C17.7429 142.667 17.7942 142.163 17.7942 141.562Z" fill="#66615E"/>
<path d="M5.9455 175.118V175.558C5.9455 175.683 5.93083 175.786 5.9015 175.866C5.87583 175.947 5.85017 176.015 5.8245 176.07L2.5575 182.653C2.50983 182.749 2.44383 182.831 2.3595 182.901C2.27517 182.967 2.16333 183 2.024 183H1.32L4.631 176.499C4.67867 176.407 4.72817 176.323 4.7795 176.246C4.83083 176.169 4.88583 176.096 4.9445 176.026H0.8305C0.768167 176.026 0.713167 176.002 0.6655 175.954C0.617833 175.903 0.594 175.846 0.594 175.784V175.118H5.9455ZM12.4309 179.062C12.4309 179.751 12.3557 180.349 12.2054 180.855C12.0587 181.357 11.857 181.773 11.6004 182.103C11.3437 182.433 11.0394 182.679 10.6874 182.84C10.339 183.002 9.96503 183.083 9.56536 183.083C9.16203 183.083 8.78619 183.002 8.43786 182.84C8.09319 182.679 7.79253 182.433 7.53586 182.103C7.27919 181.773 7.07753 181.357 6.93086 180.855C6.78419 180.349 6.71086 179.751 6.71086 179.062C6.71086 178.373 6.78419 177.775 6.93086 177.269C7.07753 176.763 7.27919 176.345 7.53586 176.015C7.79253 175.681 8.09319 175.434 8.43786 175.272C8.78619 175.111 9.16203 175.03 9.56536 175.03C9.96503 175.03 10.339 175.111 10.6874 175.272C11.0394 175.434 11.3437 175.681 11.6004 176.015C11.857 176.345 12.0587 176.763 12.2054 177.269C12.3557 177.775 12.4309 178.373 12.4309 179.062ZM11.4134 179.062C11.4134 178.461 11.362 177.956 11.2594 177.549C11.1604 177.139 11.0247 176.809 10.8524 176.559C10.6837 176.31 10.4875 176.132 10.2639 176.026C10.0402 175.916 9.80736 175.861 9.56536 175.861C9.32336 175.861 9.09053 175.916 8.86686 176.026C8.64319 176.132 8.44703 176.31 8.27836 176.559C8.10969 176.809 7.97403 177.139 7.87136 177.549C7.77236 177.956 7.72286 178.461 7.72286 179.062C7.72286 179.663 7.77236 180.167 7.87136 180.574C7.97403 180.981 8.10969 181.31 8.27836 181.559C8.44703 181.808 8.64319 181.988 8.86686 182.098C9.09053 182.204 9.32336 182.257 9.56536 182.257C9.80736 182.257 10.0402 182.204 10.2639 182.098C10.4875 181.988 10.6837 181.808 10.8524 181.559C11.0247 181.31 11.1604 180.981 11.2594 180.574C11.362 180.167 11.4134 179.663 11.4134 179.062Z" fill="#66615E"/>
<path d="M6.05 216.562C6.05 217.251 5.97483 217.849 5.8245 218.355C5.67783 218.857 5.47617 219.273 5.2195 219.603C4.96283 219.933 4.6585 220.179 4.3065 220.34C3.95817 220.502 3.58417 220.583 3.1845 220.583C2.78117 220.583 2.40533 220.502 2.057 220.34C1.71233 220.179 1.41167 219.933 1.155 219.603C0.898333 219.273 0.696667 218.857 0.55 218.355C0.403333 217.849 0.33 217.251 0.33 216.562C0.33 215.873 0.403333 215.275 0.55 214.769C0.696667 214.263 0.898333 213.845 1.155 213.515C1.41167 213.181 1.71233 212.934 2.057 212.772C2.40533 212.611 2.78117 212.53 3.1845 212.53C3.58417 212.53 3.95817 212.611 4.3065 212.772C4.6585 212.934 4.96283 213.181 5.2195 213.515C5.47617 213.845 5.67783 214.263 5.8245 214.769C5.97483 215.275 6.05 215.873 6.05 216.562ZM5.0325 216.562C5.0325 215.961 4.98117 215.456 4.8785 215.049C4.7795 214.639 4.64383 214.309 4.4715 214.059C4.30283 213.81 4.10667 213.632 3.883 213.526C3.65933 213.416 3.4265 213.361 3.1845 213.361C2.9425 213.361 2.70967 213.416 2.486 213.526C2.26233 213.632 2.06617 213.81 1.8975 214.059C1.72883 214.309 1.59317 214.639 1.4905 215.049C1.3915 215.456 1.342 215.961 1.342 216.562C1.342 217.163 1.3915 217.667 1.4905 218.074C1.59317 218.481 1.72883 218.81 1.8975 219.059C2.06617 219.308 2.26233 219.488 2.486 219.598C2.70967 219.704 2.9425 219.757 3.1845 219.757C3.4265 219.757 3.65933 219.704 3.883 219.598C4.10667 219.488 4.30283 219.308 4.4715 219.059C4.64383 218.81 4.7795 218.481 4.8785 218.074C4.98117 217.667 5.0325 217.163 5.0325 216.562Z" fill="#66615E"/>
<path d="M28 66.5H101.143" stroke="#E4E2DD" stroke-linecap="round" stroke-linejoin="round"/>
<path d="M28 104H101.143" stroke="#E4E2DD" stroke-linecap="round" stroke-linejoin="round"/>
<path d="M28 141.5H101.143" stroke="#E4E2DD" stroke-linecap="round" stroke-linejoin="round"/>
<path d="M28 179H101.143" stroke="#E4E2DD" stroke-linecap="round" stroke-linejoin="round"/>
<path d="M28 216.5H101.143" stroke="#E4E2DD" stroke-linecap="round" stroke-linejoin="round"/>
<g clip-path="url(#clip0_551_7117)">
<rect x="40" y="102" width="49.1429" height="82" rx="12" fill="#FCD3DF"/>
<path d="M40 184C40 183.448 40.4477 183 41 183H88.1429C88.6951 183 89.1429 183.448 89.1429 184H40Z" fill="#FCD3DF"/>
</g>
<rect x="40" y="188" width="49.1429" height="29" rx="12" fill="#A83F98"/>
<path d="M60.2759 238.777C60.2759 239.217 60.2209 239.612 60.1109 239.96C60.0046 240.308 59.8451 240.603 59.6324 240.845C59.4234 241.084 59.1649 241.267 58.8569 241.395C58.5489 241.524 58.1951 241.588 57.7954 241.588C57.4324 241.588 57.0621 241.537 56.6844 241.434C56.6917 241.328 56.7009 241.223 56.7119 241.12C56.7229 241.014 56.7321 240.91 56.7394 240.807C56.7467 240.745 56.7687 240.695 56.8054 240.658C56.8457 240.618 56.9062 240.598 56.9869 240.598C57.0529 240.598 57.1391 240.614 57.2454 240.647C57.3554 240.68 57.5021 240.697 57.6854 240.697C57.9274 240.697 58.1437 240.66 58.3344 240.587C58.5251 240.514 58.6846 240.4 58.8129 240.246C58.9412 240.092 59.0384 239.896 59.1044 239.657C59.1741 239.415 59.2089 239.129 59.2089 238.799V233.618H60.2759V238.777ZM64.7839 238.992C64.3329 239.007 63.9479 239.043 63.6289 239.102C63.3136 239.157 63.0551 239.23 62.8534 239.322C62.6554 239.414 62.5106 239.522 62.4189 239.646C62.3309 239.771 62.2869 239.91 62.2869 240.064C62.2869 240.211 62.3107 240.338 62.3584 240.444C62.4061 240.55 62.4702 240.638 62.5509 240.708C62.6352 240.774 62.7324 240.823 62.8424 240.856C62.9561 240.886 63.0771 240.9 63.2054 240.9C63.3777 240.9 63.5354 240.884 63.6784 240.851C63.8214 240.814 63.9552 240.763 64.0799 240.697C64.2082 240.631 64.3292 240.552 64.4429 240.46C64.5602 240.369 64.6739 240.264 64.7839 240.147V238.992ZM61.6214 236.715C61.9294 236.418 62.2612 236.196 62.6169 236.049C62.9726 235.903 63.3667 235.829 63.7994 235.829C64.1111 235.829 64.3879 235.881 64.6299 235.983C64.8719 236.086 65.0754 236.229 65.2404 236.412C65.4054 236.596 65.5301 236.818 65.6144 237.078C65.6987 237.338 65.7409 237.624 65.7409 237.936V241.5H65.3064C65.2111 241.5 65.1377 241.485 65.0864 241.456C65.0351 241.423 64.9947 241.361 64.9654 241.269L64.8554 240.741C64.7087 240.877 64.5657 240.998 64.4264 241.104C64.2871 241.207 64.1404 241.295 63.9864 241.368C63.8324 241.438 63.6674 241.491 63.4914 241.528C63.3191 241.568 63.1266 241.588 62.9139 241.588C62.6976 241.588 62.4941 241.559 62.3034 241.5C62.1127 241.438 61.9459 241.346 61.8029 241.225C61.6636 241.104 61.5517 240.952 61.4674 240.768C61.3867 240.581 61.3464 240.361 61.3464 240.108C61.3464 239.888 61.4069 239.678 61.5279 239.476C61.6489 239.271 61.8451 239.089 62.1164 238.931C62.3877 238.774 62.7416 238.645 63.1779 238.546C63.6142 238.444 64.1496 238.385 64.7839 238.37V237.936C64.7839 237.503 64.6904 237.177 64.5034 236.957C64.3164 236.733 64.0432 236.621 63.6839 236.621C63.4419 236.621 63.2384 236.653 63.0734 236.715C62.9121 236.774 62.7709 236.841 62.6499 236.918C62.5326 236.992 62.4299 237.06 62.3419 237.122C62.2576 237.181 62.1732 237.21 62.0889 237.21C62.0229 237.21 61.9661 237.193 61.9184 237.16C61.8707 237.124 61.8304 237.08 61.7974 237.028L61.6214 236.715ZM68.1562 236.737C68.2772 236.601 68.4055 236.478 68.5412 236.368C68.6769 236.258 68.8199 236.165 68.9702 236.088C69.1242 236.007 69.2855 235.947 69.4542 235.906C69.6265 235.862 69.8117 235.84 70.0097 235.84C70.314 235.84 70.5817 235.892 70.8127 235.994C71.0474 236.093 71.2417 236.236 71.3957 236.423C71.5534 236.607 71.6725 236.829 71.7532 237.089C71.8339 237.349 71.8742 237.637 71.8742 237.952V241.5H70.8897V237.952C70.8897 237.531 70.7925 237.204 70.5982 236.973C70.4075 236.739 70.116 236.621 69.7237 236.621C69.434 236.621 69.1627 236.691 68.9097 236.83C68.6604 236.97 68.4294 237.159 68.2167 237.397V241.5H67.2322V235.928H67.8207C67.96 235.928 68.0462 235.996 68.0792 236.132L68.1562 236.737Z" fill="#66615E"/>
<path d="M101.143 66.5H174.285" stroke="#E4E2DD" stroke-linecap="round" stroke-linejoin="round"/>
<path d="M101.143 104H174.285" stroke="#E4E2DD" stroke-linecap="round" stroke-linejoin="round"/>
<path d="M101.143 141.5H174.285" stroke="#E4E2DD" stroke-linecap="round" stroke-linejoin="round"/>
<path d="M101.143 179H174.285" stroke="#E4E2DD" stroke-linecap="round" stroke-linejoin="round"/>
<path d="M101.143 216.5H174.285" stroke="#E4E2DD" stroke-linecap="round" stroke-linejoin="round"/>
<g clip-path="url(#clip1_551_7117)">
<rect x="113.143" y="85" width="49.1429" height="79" rx="12" fill="#FCD3DF"/>
<path d="M113.143 164C113.143 163.448 113.59 163 114.143 163H161.285C161.838 163 162.285 163.448 162.285 164H113.143Z" fill="#FCD3DF"/>
</g>
<rect x="113.143" y="168" width="49.1429" height="49" rx="12" fill="#A83F98"/>
<path d="M130.936 234.487V237.243H134.175V238.112H130.936V241.5H129.869V233.618H134.725V234.487H130.936ZM139.103 238.106C139.103 237.879 139.07 237.672 139.004 237.485C138.942 237.294 138.848 237.131 138.724 236.995C138.603 236.856 138.454 236.75 138.278 236.676C138.102 236.599 137.902 236.561 137.679 236.561C137.209 236.561 136.837 236.698 136.562 236.973C136.291 237.245 136.122 237.622 136.056 238.106H139.103ZM139.895 240.719C139.774 240.866 139.629 240.994 139.461 241.104C139.292 241.21 139.111 241.298 138.916 241.368C138.726 241.438 138.528 241.489 138.322 241.522C138.117 241.559 137.913 241.577 137.712 241.577C137.327 241.577 136.971 241.513 136.645 241.384C136.322 241.252 136.042 241.062 135.803 240.812C135.569 240.559 135.385 240.248 135.253 239.877C135.121 239.507 135.055 239.082 135.055 238.601C135.055 238.213 135.114 237.85 135.231 237.512C135.352 237.175 135.525 236.884 135.748 236.638C135.972 236.389 136.245 236.194 136.568 236.055C136.89 235.912 137.253 235.84 137.657 235.84C137.99 235.84 138.298 235.897 138.581 236.011C138.867 236.121 139.112 236.282 139.318 236.495C139.527 236.704 139.69 236.964 139.807 237.276C139.925 237.584 139.983 237.936 139.983 238.332C139.983 238.486 139.967 238.589 139.934 238.64C139.901 238.691 139.838 238.717 139.747 238.717H136.023C136.034 239.069 136.082 239.375 136.166 239.635C136.254 239.896 136.375 240.114 136.529 240.29C136.683 240.462 136.867 240.592 137.079 240.68C137.292 240.765 137.53 240.807 137.794 240.807C138.04 240.807 138.251 240.779 138.427 240.724C138.606 240.666 138.76 240.603 138.889 240.537C139.017 240.471 139.123 240.411 139.208 240.356C139.296 240.297 139.371 240.268 139.433 240.268C139.514 240.268 139.576 240.299 139.62 240.361L139.895 240.719ZM142.17 240.158C142.35 240.4 142.546 240.57 142.759 240.669C142.975 240.768 143.212 240.818 143.468 240.818C143.993 240.818 144.394 240.633 144.673 240.262C144.951 239.892 145.091 239.34 145.091 238.607C145.091 237.925 144.966 237.424 144.717 237.105C144.471 236.783 144.119 236.621 143.661 236.621C143.342 236.621 143.063 236.695 142.825 236.841C142.59 236.988 142.372 237.195 142.17 237.463V240.158ZM142.17 236.731C142.405 236.46 142.669 236.244 142.962 236.082C143.259 235.921 143.6 235.84 143.985 235.84C144.312 235.84 144.605 235.903 144.865 236.027C145.129 236.152 145.353 236.334 145.536 236.572C145.72 236.807 145.859 237.093 145.954 237.43C146.053 237.767 146.103 238.147 146.103 238.568C146.103 239.019 146.048 239.43 145.938 239.8C145.828 240.171 145.668 240.488 145.459 240.752C145.254 241.012 145.003 241.216 144.706 241.362C144.409 241.506 144.075 241.577 143.705 241.577C143.338 241.577 143.028 241.509 142.775 241.373C142.526 241.234 142.308 241.038 142.121 240.785L142.071 241.291C142.042 241.43 141.958 241.5 141.818 241.5H141.186V233.398H142.17V236.731Z" fill="#66615E"/>
<rect x="174.285" y="60" width="73.1429" height="188" rx="6" fill="#FAFAF8"/>
<path d="M174.285 66.5H247.428" stroke="#E4E2DD" stroke-linecap="round" stroke-linejoin="round"/>
<path d="M174.285 104H247.428" stroke="#E4E2DD" stroke-linecap="round" stroke-linejoin="round"/>
<path d="M174.285 141.5H247.428" stroke="#E4E2DD" stroke-linecap="round" stroke-linejoin="round"/>
<path d="M174.285 179H247.428" stroke="#E4E2DD" stroke-linecap="round" stroke-linejoin="round"/>
<path d="M174.285 216.5H247.428" stroke="#E4E2DD" stroke-linecap="round" stroke-linejoin="round"/>
<g clip-path="url(#clip2_551_7117)">
<rect x="186.285" y="75" width="49.1429" height="79" rx="12" fill="#F5B7CA"/>
<path d="M186.285 154C186.285 153.448 186.733 153 187.285 153H234.428C234.98 153 235.428 153.448 235.428 154H186.285Z" fill="#F5B7CA"/>
</g>
<rect x="186.285" y="158" width="49.1429" height="59" rx="12" fill="#51004F"/>
<path d="M210.299 233.618V241.5H209.364V235.708C209.364 235.631 209.366 235.549 209.369 235.461C209.377 235.373 209.384 235.283 209.391 235.191L206.685 240.119C206.601 240.284 206.473 240.367 206.3 240.367H206.146C205.974 240.367 205.846 240.284 205.761 240.119L203 235.169C203.022 235.364 203.033 235.543 203.033 235.708V241.5H202.098V233.618H202.885C202.98 233.618 203.054 233.628 203.105 233.646C203.156 233.664 203.206 233.716 203.253 233.8L205.976 238.651C206.02 238.739 206.062 238.831 206.102 238.926C206.146 239.021 206.187 239.118 206.223 239.217C206.26 239.118 206.299 239.021 206.339 238.926C206.379 238.827 206.423 238.733 206.471 238.645L209.144 233.8C209.188 233.716 209.236 233.664 209.287 233.646C209.342 233.628 209.417 233.618 209.512 233.618H210.299ZM214.942 238.992C214.491 239.007 214.106 239.043 213.787 239.102C213.471 239.157 213.213 239.23 213.011 239.322C212.813 239.414 212.668 239.522 212.577 239.646C212.489 239.771 212.445 239.91 212.445 240.064C212.445 240.211 212.468 240.338 212.516 240.444C212.564 240.55 212.628 240.638 212.709 240.708C212.793 240.774 212.89 240.823 213 240.856C213.114 240.886 213.235 240.9 213.363 240.9C213.535 240.9 213.693 240.884 213.836 240.851C213.979 240.814 214.113 240.763 214.238 240.697C214.366 240.631 214.487 240.552 214.601 240.46C214.718 240.369 214.832 240.264 214.942 240.147V238.992ZM211.779 236.715C212.087 236.418 212.419 236.196 212.775 236.049C213.13 235.903 213.524 235.829 213.957 235.829C214.269 235.829 214.546 235.881 214.788 235.983C215.03 236.086 215.233 236.229 215.398 236.412C215.563 236.596 215.688 236.818 215.772 237.078C215.856 237.338 215.899 237.624 215.899 237.936V241.5H215.464C215.369 241.5 215.295 241.485 215.244 241.456C215.193 241.423 215.152 241.361 215.123 241.269L215.013 240.741C214.866 240.877 214.723 240.998 214.584 241.104C214.445 241.207 214.298 241.295 214.144 241.368C213.99 241.438 213.825 241.491 213.649 241.528C213.477 241.568 213.284 241.588 213.072 241.588C212.855 241.588 212.652 241.559 212.461 241.5C212.27 241.438 212.104 241.346 211.961 241.225C211.821 241.104 211.709 240.952 211.625 240.768C211.544 240.581 211.504 240.361 211.504 240.108C211.504 239.888 211.565 239.678 211.686 239.476C211.807 239.271 212.003 239.089 212.274 238.931C212.545 238.774 212.899 238.645 213.336 238.546C213.772 238.444 214.307 238.385 214.942 238.37V237.936C214.942 237.503 214.848 237.177 214.661 236.957C214.474 236.733 214.201 236.621 213.842 236.621C213.6 236.621 213.396 236.653 213.231 236.715C213.07 236.774 212.929 236.841 212.808 236.918C212.69 236.992 212.588 237.06 212.5 237.122C212.415 237.181 212.331 237.21 212.247 237.21C212.181 237.21 212.124 237.193 212.076 237.16C212.028 237.124 211.988 237.08 211.955 237.028L211.779 236.715ZM218.319 237.045C218.495 236.664 218.712 236.367 218.968 236.154C219.225 235.938 219.539 235.829 219.909 235.829C220.026 235.829 220.138 235.842 220.244 235.868C220.354 235.894 220.452 235.934 220.536 235.989L220.464 236.72C220.442 236.812 220.387 236.858 220.299 236.858C220.248 236.858 220.173 236.847 220.074 236.825C219.975 236.803 219.863 236.792 219.738 236.792C219.562 236.792 219.405 236.818 219.265 236.869C219.13 236.92 219.007 236.997 218.897 237.1C218.791 237.199 218.693 237.324 218.605 237.474C218.521 237.621 218.444 237.789 218.374 237.98V241.5H217.39V235.928H217.951C218.057 235.928 218.131 235.949 218.171 235.989C218.211 236.029 218.239 236.099 218.253 236.198L218.319 237.045Z" fill="#66615E"/>
<path d="M247.428 66.5H320.571" stroke="#E4E2DD" stroke-linecap="round" stroke-linejoin="round"/>
<path d="M247.428 104H320.571" stroke="#E4E2DD" stroke-linecap="round" stroke-linejoin="round"/>
<path d="M247.428 141.5H320.571" stroke="#E4E2DD" stroke-linecap="round" stroke-linejoin="round"/>
<path d="M247.428 179H320.571" stroke="#E4E2DD" stroke-linecap="round" stroke-linejoin="round"/>
<path d="M247.428 216.5H320.571" stroke="#E4E2DD" stroke-linecap="round" stroke-linejoin="round"/>
<g clip-path="url(#clip3_551_7117)">
<rect x="259.428" y="80" width="49.1429" height="79" rx="12" fill="#FCD3DF"/>
<path d="M259.428 159C259.428 158.448 259.875 158 260.428 158H307.571C308.123 158 308.571 158.448 308.571 159H259.428Z" fill="#FCD3DF"/>
</g>
<rect x="259.428" y="163" width="49.1429" height="54" rx="12" fill="#A83F98"/>
<path d="M280.393 238.574L279.156 235.367C279.119 235.272 279.081 235.162 279.04 235.037C279 234.909 278.961 234.773 278.925 234.63C278.848 234.927 278.769 235.175 278.688 235.373L277.451 238.574H280.393ZM282.615 241.5H281.79C281.695 241.5 281.618 241.476 281.559 241.428C281.501 241.381 281.457 241.32 281.427 241.247L280.69 239.344H277.154L276.417 241.247C276.395 241.313 276.353 241.372 276.29 241.423C276.228 241.474 276.151 241.5 276.059 241.5H275.234L278.386 233.618H279.464L282.615 241.5ZM284.384 240.158C284.564 240.4 284.76 240.57 284.973 240.669C285.185 240.768 285.424 240.818 285.688 240.818C286.208 240.818 286.608 240.633 286.887 240.262C287.165 239.892 287.305 239.364 287.305 238.678C287.305 238.315 287.272 238.004 287.206 237.743C287.143 237.483 287.052 237.27 286.931 237.105C286.81 236.937 286.661 236.814 286.485 236.737C286.309 236.66 286.109 236.621 285.886 236.621C285.567 236.621 285.286 236.695 285.044 236.841C284.806 236.988 284.586 237.195 284.384 237.463V240.158ZM284.335 236.792C284.569 236.502 284.841 236.269 285.149 236.093C285.457 235.917 285.809 235.829 286.205 235.829C286.527 235.829 286.819 235.892 287.079 236.016C287.339 236.137 287.561 236.319 287.745 236.561C287.928 236.799 288.069 237.096 288.168 237.452C288.267 237.808 288.317 238.216 288.317 238.678C288.317 239.089 288.262 239.472 288.152 239.828C288.042 240.18 287.882 240.486 287.673 240.746C287.468 241.003 287.215 241.207 286.914 241.357C286.617 241.504 286.282 241.577 285.908 241.577C285.567 241.577 285.273 241.52 285.028 241.406C284.786 241.289 284.571 241.128 284.384 240.922V243.387H283.4V235.928H283.988C284.127 235.928 284.214 235.996 284.247 236.132L284.335 236.792ZM290.495 237.045C290.671 236.664 290.888 236.367 291.144 236.154C291.401 235.938 291.714 235.829 292.085 235.829C292.202 235.829 292.314 235.842 292.42 235.868C292.53 235.894 292.627 235.934 292.712 235.989L292.64 236.72C292.618 236.812 292.563 236.858 292.475 236.858C292.424 236.858 292.349 236.847 292.25 236.825C292.151 236.803 292.039 236.792 291.914 236.792C291.738 236.792 291.581 236.818 291.441 236.869C291.306 236.92 291.183 236.997 291.073 237.1C290.966 237.199 290.869 237.324 290.781 237.474C290.697 237.621 290.62 237.789 290.55 237.98V241.5H289.566V235.928H290.127C290.233 235.928 290.306 235.949 290.347 235.989C290.387 236.029 290.415 236.099 290.429 236.198L290.495 237.045Z" fill="#66615E"/>
<path d="M320.572 66.5H393.715" stroke="#E4E2DD" stroke-linecap="round" stroke-linejoin="round"/>
<path d="M320.572 104H393.715" stroke="#E4E2DD" stroke-linecap="round" stroke-linejoin="round"/>
<path d="M320.572 141.5H393.715" stroke="#E4E2DD" stroke-linecap="round" stroke-linejoin="round"/>
<path d="M320.572 179H393.715" stroke="#E4E2DD" stroke-linecap="round" stroke-linejoin="round"/>
<path d="M320.572 216.5H393.715" stroke="#E4E2DD" stroke-linecap="round" stroke-linejoin="round"/>
<g clip-path="url(#clip4_551_7117)">
<rect x="332.572" y="94" width="49.1429" height="79" rx="12" fill="#FCD3DF"/>
<path d="M332.572 173C332.572 172.448 333.02 172 333.572 172H380.715C381.267 172 381.715 172.448 381.715 173H332.572Z" fill="#FCD3DF"/>
</g>
<rect x="332.572" y="177" width="49.1429" height="40" rx="12" fill="#A83F98"/>
<path d="M355.818 233.618V241.5H354.883V235.708C354.883 235.631 354.885 235.549 354.888 235.461C354.896 235.373 354.903 235.283 354.91 235.191L352.204 240.119C352.12 240.284 351.992 240.367 351.819 240.367H351.665C351.493 240.367 351.365 240.284 351.28 240.119L348.519 235.169C348.541 235.364 348.552 235.543 348.552 235.708V241.5H347.617V233.618H348.404C348.499 233.618 348.573 233.628 348.624 233.646C348.675 233.664 348.725 233.716 348.772 233.8L351.495 238.651C351.539 238.739 351.581 238.831 351.621 238.926C351.665 239.021 351.706 239.118 351.742 239.217C351.779 239.118 351.818 239.021 351.858 238.926C351.898 238.827 351.942 238.733 351.99 238.645L354.663 233.8C354.707 233.716 354.755 233.664 354.806 233.646C354.861 233.628 354.936 233.618 355.031 233.618H355.818ZM360.461 238.992C360.01 239.007 359.625 239.043 359.306 239.102C358.99 239.157 358.732 239.23 358.53 239.322C358.332 239.414 358.187 239.522 358.096 239.646C358.008 239.771 357.964 239.91 357.964 240.064C357.964 240.211 357.988 240.338 358.035 240.444C358.083 240.55 358.147 240.638 358.228 240.708C358.312 240.774 358.409 240.823 358.519 240.856C358.633 240.886 358.754 240.9 358.882 240.9C359.055 240.9 359.212 240.884 359.355 240.851C359.498 240.814 359.632 240.763 359.757 240.697C359.885 240.631 360.006 240.552 360.12 240.46C360.237 240.369 360.351 240.264 360.461 240.147V238.992ZM357.298 236.715C357.606 236.418 357.938 236.196 358.294 236.049C358.649 235.903 359.044 235.829 359.476 235.829C359.788 235.829 360.065 235.881 360.307 235.983C360.549 236.086 360.752 236.229 360.917 236.412C361.082 236.596 361.207 236.818 361.291 237.078C361.376 237.338 361.418 237.624 361.418 237.936V241.5H360.983C360.888 241.5 360.815 241.485 360.763 241.456C360.712 241.423 360.672 241.361 360.642 241.269L360.532 240.741C360.386 240.877 360.243 240.998 360.103 241.104C359.964 241.207 359.817 241.295 359.663 241.368C359.509 241.438 359.344 241.491 359.168 241.528C358.996 241.568 358.803 241.588 358.591 241.588C358.374 241.588 358.171 241.559 357.98 241.5C357.79 241.438 357.623 241.346 357.48 241.225C357.34 241.104 357.229 240.952 357.144 240.768C357.064 240.581 357.023 240.361 357.023 240.108C357.023 239.888 357.084 239.678 357.205 239.476C357.326 239.271 357.522 239.089 357.793 238.931C358.065 238.774 358.418 238.645 358.855 238.546C359.291 238.444 359.826 238.385 360.461 238.37V237.936C360.461 237.503 360.367 237.177 360.18 236.957C359.993 236.733 359.72 236.621 359.361 236.621C359.119 236.621 358.915 236.653 358.75 236.715C358.589 236.774 358.448 236.841 358.327 236.918C358.209 236.992 358.107 237.06 358.019 237.122C357.934 237.181 357.85 237.21 357.766 237.21C357.7 237.21 357.643 237.193 357.595 237.16C357.548 237.124 357.507 237.08 357.474 237.028L357.298 236.715ZM367.587 235.928L364.48 243.145C364.447 243.218 364.404 243.277 364.353 243.321C364.305 243.365 364.23 243.387 364.128 243.387H363.402L364.419 241.175L362.12 235.928H362.967C363.051 235.928 363.117 235.95 363.165 235.994C363.216 236.035 363.251 236.081 363.27 236.132L364.76 239.641C364.819 239.795 364.868 239.956 364.909 240.125C364.96 239.953 365.015 239.789 365.074 239.635L366.52 236.132C366.542 236.073 366.579 236.026 366.63 235.989C366.685 235.949 366.746 235.928 366.812 235.928H367.587Z" fill="#66615E"/>
<path d="M393.715 66.5H466.858" stroke="#E4E2DD" stroke-linecap="round" stroke-linejoin="round"/>
<path d="M393.715 104H466.858" stroke="#E4E2DD" stroke-linecap="round" stroke-linejoin="round"/>
<path d="M393.715 141.5H466.858" stroke="#E4E2DD" stroke-linecap="round" stroke-linejoin="round"/>
<path d="M393.715 179H466.858" stroke="#E4E2DD" stroke-linecap="round" stroke-linejoin="round"/>
<path d="M393.715 216.5H466.858" stroke="#E4E2DD" stroke-linecap="round" stroke-linejoin="round"/>
<g clip-path="url(#clip5_551_7117)">
<rect x="405.715" y="85" width="49.1429" height="70" rx="12" fill="#FCD3DF"/>
<path d="M405.715 155C405.715 154.448 406.163 154 406.715 154H453.858C454.41 154 454.858 154.448 454.858 155H405.715Z" fill="#FCD3DF"/>
</g>
<rect x="405.715" y="159" width="49.1429" height="58" rx="12" fill="#A83F98"/>
<path d="M425.626 238.777C425.626 239.217 425.571 239.612 425.461 239.96C425.354 240.308 425.195 240.603 424.982 240.845C424.773 241.084 424.515 241.267 424.207 241.395C423.899 241.524 423.545 241.588 423.145 241.588C422.782 241.588 422.412 241.537 422.034 241.434C422.041 241.328 422.051 241.223 422.062 241.12C422.073 241.014 422.082 240.91 422.089 240.807C422.096 240.745 422.118 240.695 422.155 240.658C422.195 240.618 422.256 240.598 422.337 240.598C422.403 240.598 422.489 240.614 422.595 240.647C422.705 240.68 422.852 240.697 423.035 240.697C423.277 240.697 423.493 240.66 423.684 240.587C423.875 240.514 424.034 240.4 424.163 240.246C424.291 240.092 424.388 239.896 424.454 239.657C424.524 239.415 424.559 239.129 424.559 238.799V233.618H425.626V238.777ZM431.76 235.928V241.5H431.177C431.038 241.5 430.95 241.432 430.913 241.296L430.836 240.697C430.594 240.965 430.323 241.181 430.022 241.346C429.721 241.507 429.377 241.588 428.988 241.588C428.684 241.588 428.414 241.539 428.179 241.439C427.948 241.337 427.754 241.194 427.596 241.01C427.439 240.827 427.32 240.605 427.239 240.345C427.162 240.085 427.123 239.797 427.123 239.481V235.928H428.102V239.481C428.102 239.903 428.198 240.229 428.388 240.46C428.583 240.691 428.878 240.807 429.274 240.807C429.564 240.807 429.833 240.739 430.082 240.603C430.335 240.464 430.568 240.273 430.781 240.031V235.928H431.76ZM434.236 236.737C434.357 236.601 434.486 236.478 434.621 236.368C434.757 236.258 434.9 236.165 435.05 236.088C435.204 236.007 435.366 235.947 435.534 235.906C435.707 235.862 435.892 235.84 436.09 235.84C436.394 235.84 436.662 235.892 436.893 235.994C437.127 236.093 437.322 236.236 437.476 236.423C437.633 236.607 437.753 236.829 437.833 237.089C437.914 237.349 437.954 237.637 437.954 237.952V241.5H436.97V237.952C436.97 237.531 436.873 237.204 436.678 236.973C436.488 236.739 436.196 236.621 435.804 236.621C435.514 236.621 435.243 236.691 434.99 236.83C434.74 236.97 434.509 237.159 434.297 237.397V241.5H433.312V235.928H433.901C434.04 235.928 434.126 235.996 434.159 236.132L434.236 236.737Z" fill="#66615E"/>
<path d="M466.857 66.5H540" stroke="#E4E2DD" stroke-linecap="round" stroke-linejoin="round"/>
<path d="M466.857 104H540" stroke="#E4E2DD" stroke-linecap="round" stroke-linejoin="round"/>
<path d="M466.857 141.5H540" stroke="#E4E2DD" stroke-linecap="round" stroke-linejoin="round"/>
<path d="M466.857 179H540" stroke="#E4E2DD" stroke-linecap="round" stroke-linejoin="round"/>
<path d="M466.857 216.5H540" stroke="#E4E2DD" stroke-linecap="round" stroke-linejoin="round"/>
<g clip-path="url(#clip6_551_7117)">
<rect x="478.857" y="70" width="49.1429" height="93" rx="12" fill="#FCD3DF"/>
<path d="M478.857 163C478.857 162.448 479.305 162 479.857 162H527C527.553 162 528 162.448 528 163H478.857Z" fill="#FCD3DF"/>
</g>
<rect x="478.857" y="167" width="49.1429" height="50" rx="12" fill="#A83F98"/>
<path d="M500.535 238.777C500.535 239.217 500.48 239.612 500.37 239.96C500.264 240.308 500.104 240.603 499.892 240.845C499.683 241.084 499.424 241.267 499.116 241.395C498.808 241.524 498.454 241.588 498.055 241.588C497.692 241.588 497.321 241.537 496.944 241.434C496.951 241.328 496.96 241.223 496.971 241.12C496.982 241.014 496.991 240.91 496.999 240.807C497.006 240.745 497.028 240.695 497.065 240.658C497.105 240.618 497.166 240.598 497.246 240.598C497.312 240.598 497.398 240.614 497.505 240.647C497.615 240.68 497.761 240.697 497.945 240.697C498.187 240.697 498.403 240.66 498.594 240.587C498.784 240.514 498.944 240.4 499.072 240.246C499.201 240.092 499.298 239.896 499.364 239.657C499.433 239.415 499.468 239.129 499.468 238.799V233.618H500.535V238.777ZM506.67 235.928V241.5H506.087C505.947 241.5 505.859 241.432 505.823 241.296L505.746 240.697C505.504 240.965 505.232 241.181 504.932 241.346C504.631 241.507 504.286 241.588 503.898 241.588C503.593 241.588 503.324 241.539 503.089 241.439C502.858 241.337 502.664 241.194 502.506 241.01C502.348 240.827 502.229 240.605 502.149 240.345C502.072 240.085 502.033 239.797 502.033 239.481V235.928H503.012V239.481C503.012 239.903 503.107 240.229 503.298 240.46C503.492 240.691 503.788 240.807 504.184 240.807C504.473 240.807 504.743 240.739 504.992 240.603C505.245 240.464 505.478 240.273 505.691 240.031V235.928H506.67ZM509.234 233.398V241.5H508.255V233.398H509.234Z" fill="#66615E"/>
<g filter="url(#filter0_d_551_7117)">
<path d="M212 64.4C212 58.4004 212 55.4006 213.528 53.2977C214.021 52.6186 214.619 52.0213 215.298 51.5279C217.401 50 220.4 50 226.4 50H323.6C329.6 50 332.599 50 334.702 51.5279C335.381 52.0213 335.979 52.6186 336.472 53.2977C338 55.4006 338 58.4004 338 64.4V99.6C338 105.6 338 108.599 336.472 110.702C335.979 111.381 335.381 111.979 334.702 112.472C332.599 114 329.6 114 323.6 114H212V64.4Z" fill="#F3FAF6" shape-rendering="crispEdges"/>
<path d="M226.122 61.5595C226.095 61.6045 226.065 61.639 226.032 61.663C226.002 61.684 225.965 61.6945 225.92 61.6945C225.869 61.6945 225.809 61.669 225.74 61.618C225.671 61.567 225.584 61.5115 225.479 61.4515C225.377 61.3885 225.252 61.3315 225.105 61.2805C224.961 61.2295 224.786 61.204 224.579 61.204C224.384 61.204 224.211 61.231 224.061 61.285C223.914 61.336 223.79 61.4065 223.688 61.4965C223.589 61.5865 223.514 61.693 223.463 61.816C223.412 61.936 223.386 62.0665 223.386 62.2075C223.386 62.3875 223.43 62.5375 223.517 62.6575C223.607 62.7745 223.724 62.875 223.868 62.959C224.015 63.043 224.18 63.1165 224.363 63.1795C224.549 63.2395 224.738 63.3025 224.93 63.3685C225.125 63.4345 225.314 63.5095 225.497 63.5935C225.683 63.6745 225.848 63.778 225.992 63.904C226.139 64.03 226.256 64.1845 226.343 64.3675C226.433 64.5505 226.478 64.7755 226.478 65.0425C226.478 65.3245 226.43 65.59 226.334 65.839C226.238 66.085 226.097 66.2995 225.911 66.4825C225.728 66.6655 225.501 66.8095 225.231 66.9145C224.964 67.0195 224.66 67.072 224.318 67.072C223.898 67.072 223.517 66.997 223.175 66.847C222.833 66.694 222.54 66.4885 222.297 66.2305L222.549 65.8165C222.573 65.7835 222.602 65.7565 222.635 65.7355C222.671 65.7115 222.71 65.6995 222.752 65.6995C222.791 65.6995 222.834 65.716 222.882 65.749C222.933 65.779 222.99 65.818 223.053 65.866C223.116 65.914 223.188 65.9665 223.269 66.0235C223.35 66.0805 223.442 66.133 223.544 66.181C223.649 66.229 223.767 66.2695 223.899 66.3025C224.031 66.3325 224.18 66.3475 224.345 66.3475C224.552 66.3475 224.736 66.319 224.898 66.262C225.06 66.205 225.197 66.1255 225.308 66.0235C225.422 65.9185 225.509 65.794 225.569 65.65C225.629 65.506 225.659 65.3455 225.659 65.1685C225.659 64.9735 225.614 64.8145 225.524 64.6915C225.437 64.5655 225.321 64.4605 225.177 64.3765C225.033 64.2925 224.868 64.222 224.682 64.165C224.496 64.105 224.307 64.045 224.115 63.985C223.923 63.922 223.734 63.85 223.548 63.769C223.362 63.688 223.197 63.583 223.053 63.454C222.909 63.325 222.792 63.1645 222.702 62.9725C222.615 62.7775 222.572 62.5375 222.572 62.2525C222.572 62.0245 222.615 61.804 222.702 61.591C222.792 61.378 222.921 61.189 223.089 61.024C223.26 60.859 223.469 60.727 223.715 60.628C223.964 60.529 224.249 60.4795 224.57 60.4795C224.93 60.4795 225.257 60.5365 225.551 60.6505C225.848 60.7645 226.109 60.9295 226.334 61.1455L226.122 61.5595ZM229.93 64.948C229.561 64.96 229.246 64.99 228.985 65.038C228.727 65.083 228.516 65.143 228.351 65.218C228.189 65.293 228.07 65.3815 227.995 65.4835C227.923 65.5855 227.887 65.6995 227.887 65.8255C227.887 65.9455 227.907 66.049 227.946 66.136C227.985 66.223 228.037 66.295 228.103 66.352C228.172 66.406 228.252 66.4465 228.342 66.4735C228.435 66.4975 228.534 66.5095 228.639 66.5095C228.78 66.5095 228.909 66.496 229.026 66.469C229.143 66.439 229.252 66.397 229.354 66.343C229.459 66.289 229.558 66.2245 229.651 66.1495C229.747 66.0745 229.84 65.989 229.93 65.893V64.948ZM227.343 63.085C227.595 62.842 227.866 62.6605 228.157 62.5405C228.448 62.4205 228.771 62.3605 229.125 62.3605C229.38 62.3605 229.606 62.4025 229.804 62.4865C230.002 62.5705 230.169 62.6875 230.304 62.8375C230.439 62.9875 230.541 63.169 230.61 63.382C230.679 63.595 230.713 63.829 230.713 64.084V67H230.358C230.28 67 230.22 66.988 230.178 66.964C230.136 66.937 230.103 66.886 230.079 66.811L229.989 66.379C229.869 66.49 229.752 66.589 229.638 66.676C229.524 66.76 229.404 66.832 229.278 66.892C229.152 66.949 229.017 66.9925 228.873 67.0225C228.732 67.0555 228.574 67.072 228.4 67.072C228.223 67.072 228.057 67.048 227.901 67C227.745 66.949 227.608 66.874 227.491 66.775C227.377 66.676 227.286 66.5515 227.217 66.4015C227.151 66.2485 227.118 66.0685 227.118 65.8615C227.118 65.6815 227.167 65.509 227.266 65.344C227.365 65.176 227.526 65.0275 227.748 64.8985C227.97 64.7695 228.259 64.6645 228.616 64.5835C228.973 64.4995 229.411 64.4515 229.93 64.4395V64.084C229.93 63.73 229.854 63.463 229.701 63.283C229.548 63.1 229.324 63.0085 229.03 63.0085C228.832 63.0085 228.666 63.034 228.531 63.085C228.399 63.133 228.283 63.1885 228.184 63.2515C228.088 63.3115 228.004 63.367 227.932 63.418C227.863 63.466 227.794 63.49 227.725 63.49C227.671 63.49 227.625 63.4765 227.586 63.4495C227.547 63.4195 227.514 63.3835 227.487 63.3415L227.343 63.085ZM233.271 67.072C232.911 67.072 232.634 66.9715 232.439 66.7705C232.247 66.5695 232.151 66.28 232.151 65.902V63.112H231.602C231.554 63.112 231.513 63.0985 231.48 63.0715C231.447 63.0415 231.431 62.9965 231.431 62.9365V62.617L232.178 62.5225L232.362 61.114C232.371 61.069 232.391 61.033 232.421 61.006C232.454 60.976 232.496 60.961 232.547 60.961H232.952V62.5315H234.27V63.112H232.952V65.848C232.952 66.04 232.998 66.1825 233.091 66.2755C233.184 66.3685 233.304 66.415 233.451 66.415C233.535 66.415 233.607 66.4045 233.667 66.3835C233.73 66.3595 233.784 66.334 233.829 66.307C233.874 66.28 233.912 66.256 233.942 66.235C233.975 66.211 234.003 66.199 234.027 66.199C234.069 66.199 234.107 66.2245 234.14 66.2755L234.374 66.658C234.236 66.787 234.069 66.889 233.874 66.964C233.679 67.036 233.478 67.072 233.271 67.072ZM235.048 68.089C235.024 68.068 235.007 68.0485 234.998 68.0305C234.989 68.0125 234.985 67.99 234.985 67.963C234.985 67.942 234.991 67.921 235.003 67.9C235.018 67.879 235.034 67.8595 235.052 67.8415C235.082 67.8085 235.12 67.765 235.165 67.711C235.213 67.657 235.261 67.5925 235.309 67.5175C235.357 67.4455 235.4 67.3645 235.439 67.2745C235.481 67.1875 235.511 67.0945 235.529 66.9955C235.52 66.9985 235.51 67 235.498 67C235.489 67 235.48 67 235.471 67C235.315 67 235.187 66.949 235.088 66.847C234.992 66.742 234.944 66.6085 234.944 66.4465C234.944 66.3055 234.992 66.1855 235.088 66.0865C235.187 65.9875 235.318 65.938 235.48 65.938C235.57 65.938 235.649 65.9545 235.718 65.9875C235.787 66.0205 235.844 66.067 235.889 66.127C235.937 66.184 235.973 66.2515 235.997 66.3295C236.021 66.4045 236.033 66.487 236.033 66.577C236.033 66.712 236.014 66.853 235.975 67C235.939 67.144 235.883 67.2865 235.808 67.4275C235.736 67.5715 235.648 67.711 235.543 67.846C235.438 67.981 235.318 68.1055 235.183 68.2195L235.048 68.089ZM243.386 66.388V67H239.93V66.388H241.311V61.9915C241.311 61.8595 241.316 61.726 241.325 61.591L240.177 62.5765C240.138 62.6095 240.099 62.6305 240.06 62.6395C240.021 62.6455 239.985 62.6455 239.952 62.6395C239.919 62.6335 239.888 62.6215 239.858 62.6035C239.831 62.5855 239.81 62.566 239.795 62.545L239.543 62.1985L241.464 60.538H242.117V66.388H243.386ZM246.626 66.406C246.842 66.406 247.037 66.3715 247.211 66.3025C247.388 66.2335 247.538 66.1375 247.661 66.0145C247.787 65.8915 247.883 65.746 247.949 65.578C248.018 65.41 248.053 65.227 248.053 65.029C248.053 64.819 248.02 64.63 247.954 64.462C247.888 64.291 247.793 64.147 247.67 64.03C247.55 63.91 247.406 63.8185 247.238 63.7555C247.07 63.6925 246.886 63.661 246.685 63.661C246.469 63.661 246.274 63.6985 246.1 63.7735C245.926 63.8455 245.777 63.9445 245.654 64.0705C245.534 64.1935 245.441 64.3375 245.375 64.5025C245.312 64.6645 245.281 64.834 245.281 65.011C245.281 65.218 245.311 65.407 245.371 65.578C245.431 65.749 245.518 65.896 245.632 66.019C245.749 66.142 245.89 66.238 246.055 66.307C246.223 66.373 246.413 66.406 246.626 66.406ZM246.158 62.968C246.101 63.04 246.046 63.1105 245.992 63.1795C245.941 63.2455 245.891 63.3115 245.843 63.3775C245.996 63.2725 246.164 63.1915 246.347 63.1345C246.53 63.0775 246.73 63.049 246.946 63.049C247.207 63.049 247.453 63.0925 247.684 63.1795C247.915 63.2635 248.116 63.388 248.287 63.553C248.461 63.715 248.599 63.916 248.701 64.156C248.803 64.393 248.854 64.6645 248.854 64.9705C248.854 65.2675 248.8 65.5435 248.692 65.7985C248.584 66.0535 248.432 66.2755 248.237 66.4645C248.045 66.6535 247.813 66.802 247.54 66.91C247.27 67.018 246.971 67.072 246.644 67.072C246.32 67.072 246.026 67.021 245.762 66.919C245.498 66.814 245.273 66.667 245.087 66.478C244.904 66.286 244.762 66.055 244.66 65.785C244.561 65.512 244.511 65.2075 244.511 64.8715C244.511 64.5895 244.573 64.2895 244.696 63.9715C244.822 63.6505 245.021 63.3085 245.294 62.9455L246.932 60.745C246.974 60.691 247.031 60.646 247.103 60.61C247.178 60.571 247.264 60.5515 247.36 60.5515H248.071L246.158 62.968ZM255.671 61.5595C255.644 61.6045 255.614 61.639 255.581 61.663C255.551 61.684 255.513 61.6945 255.468 61.6945C255.417 61.6945 255.357 61.669 255.288 61.618C255.219 61.567 255.132 61.5115 255.027 61.4515C254.925 61.3885 254.801 61.3315 254.654 61.2805C254.51 61.2295 254.334 61.204 254.127 61.204C253.932 61.204 253.76 61.231 253.61 61.285C253.463 61.336 253.338 61.4065 253.236 61.4965C253.137 61.5865 253.062 61.693 253.011 61.816C252.96 61.936 252.935 62.0665 252.935 62.2075C252.935 62.3875 252.978 62.5375 253.065 62.6575C253.155 62.7745 253.272 62.875 253.416 62.959C253.563 63.043 253.728 63.1165 253.911 63.1795C254.097 63.2395 254.286 63.3025 254.478 63.3685C254.673 63.4345 254.862 63.5095 255.045 63.5935C255.231 63.6745 255.396 63.778 255.54 63.904C255.687 64.03 255.804 64.1845 255.891 64.3675C255.981 64.5505 256.026 64.7755 256.026 65.0425C256.026 65.3245 255.978 65.59 255.882 65.839C255.786 66.085 255.645 66.2995 255.459 66.4825C255.276 66.6655 255.05 66.8095 254.78 66.9145C254.513 67.0195 254.208 67.072 253.866 67.072C253.446 67.072 253.065 66.997 252.723 66.847C252.381 66.694 252.089 66.4885 251.846 66.2305L252.098 65.8165C252.122 65.7835 252.15 65.7565 252.183 65.7355C252.219 65.7115 252.258 65.6995 252.3 65.6995C252.339 65.6995 252.383 65.716 252.431 65.749C252.482 65.779 252.539 65.818 252.602 65.866C252.665 65.914 252.737 65.9665 252.818 66.0235C252.899 66.0805 252.99 66.133 253.092 66.181C253.197 66.229 253.316 66.2695 253.448 66.3025C253.58 66.3325 253.728 66.3475 253.893 66.3475C254.1 66.3475 254.285 66.319 254.447 66.262C254.609 66.205 254.745 66.1255 254.856 66.0235C254.97 65.9185 255.057 65.794 255.117 65.65C255.177 65.506 255.207 65.3455 255.207 65.1685C255.207 64.9735 255.162 64.8145 255.072 64.6915C254.985 64.5655 254.87 64.4605 254.726 64.3765C254.582 64.2925 254.417 64.222 254.231 64.165C254.045 64.105 253.856 64.045 253.664 63.985C253.472 63.922 253.283 63.85 253.097 63.769C252.911 63.688 252.746 63.583 252.602 63.454C252.458 63.325 252.341 63.1645 252.251 62.9725C252.164 62.7775 252.12 62.5375 252.12 62.2525C252.12 62.0245 252.164 61.804 252.251 61.591C252.341 61.378 252.47 61.189 252.638 61.024C252.809 60.859 253.017 60.727 253.263 60.628C253.512 60.529 253.797 60.4795 254.118 60.4795C254.478 60.4795 254.805 60.5365 255.099 60.6505C255.396 60.7645 255.657 60.9295 255.882 61.1455L255.671 61.5595ZM260.095 64.2235C260.095 64.0375 260.068 63.868 260.014 63.715C259.963 63.559 259.886 63.4255 259.784 63.3145C259.685 63.2005 259.564 63.1135 259.42 63.0535C259.276 62.9905 259.112 62.959 258.929 62.959C258.545 62.959 258.241 63.0715 258.016 63.2965C257.794 63.5185 257.656 63.8275 257.602 64.2235H260.095ZM260.743 66.361C260.644 66.481 260.525 66.586 260.387 66.676C260.249 66.763 260.101 66.835 259.942 66.892C259.786 66.949 259.624 66.991 259.456 67.018C259.288 67.048 259.121 67.063 258.956 67.063C258.641 67.063 258.35 67.0105 258.083 66.9055C257.819 66.7975 257.59 66.6415 257.395 66.4375C257.203 66.2305 257.053 65.9755 256.945 65.6725C256.837 65.3695 256.783 65.0215 256.783 64.6285C256.783 64.3105 256.831 64.0135 256.927 63.7375C257.026 63.4615 257.167 63.223 257.35 63.022C257.533 62.818 257.756 62.659 258.02 62.545C258.284 62.428 258.581 62.3695 258.911 62.3695C259.184 62.3695 259.436 62.416 259.667 62.509C259.901 62.599 260.102 62.731 260.27 62.905C260.441 63.076 260.575 63.289 260.671 63.544C260.767 63.796 260.815 64.084 260.815 64.408C260.815 64.534 260.801 64.618 260.774 64.66C260.747 64.702 260.696 64.723 260.621 64.723H257.575C257.584 65.011 257.623 65.2615 257.692 65.4745C257.764 65.6875 257.863 65.866 257.989 66.01C258.115 66.151 258.265 66.2575 258.439 66.3295C258.613 66.3985 258.808 66.433 259.024 66.433C259.225 66.433 259.397 66.4105 259.541 66.3655C259.688 66.3175 259.814 66.2665 259.919 66.2125C260.024 66.1585 260.111 66.109 260.18 66.064C260.252 66.016 260.314 65.992 260.365 65.992C260.431 65.992 260.482 66.0175 260.518 66.0685L260.743 66.361ZM262.604 65.902C262.751 66.1 262.912 66.2395 263.086 66.3205C263.26 66.4015 263.455 66.442 263.671 66.442C264.097 66.442 264.424 66.2905 264.652 65.9875C264.88 65.6845 264.994 65.2525 264.994 64.6915C264.994 64.3945 264.967 64.1395 264.913 63.9265C264.862 63.7135 264.787 63.5395 264.688 63.4045C264.589 63.2665 264.467 63.166 264.323 63.103C264.179 63.04 264.016 63.0085 263.833 63.0085C263.572 63.0085 263.342 63.0685 263.144 63.1885C262.949 63.3085 262.769 63.478 262.604 63.697V65.902ZM262.564 63.148C262.756 62.911 262.978 62.7205 263.23 62.5765C263.482 62.4325 263.77 62.3605 264.094 62.3605C264.358 62.3605 264.596 62.4115 264.809 62.5135C265.022 62.6125 265.204 62.761 265.354 62.959C265.504 63.154 265.619 63.397 265.7 63.688C265.781 63.979 265.822 64.3135 265.822 64.6915C265.822 65.0275 265.777 65.341 265.687 65.632C265.597 65.92 265.466 66.1705 265.295 66.3835C265.127 66.5935 264.92 66.76 264.674 66.883C264.431 67.003 264.157 67.063 263.851 67.063C263.572 67.063 263.332 67.0165 263.131 66.9235C262.933 66.8275 262.757 66.6955 262.604 66.5275V68.5435H261.799V62.4415H262.28C262.394 62.4415 262.465 62.497 262.492 62.608L262.564 63.148ZM272.953 66.2395C273.04 66.2395 273.109 66.265 273.16 66.316C273.211 66.367 273.237 66.433 273.237 66.514V67H268.935V66.7255C268.935 66.6685 268.947 66.61 268.971 66.55C268.995 66.49 269.032 66.4345 269.083 66.3835L271.149 64.309C271.32 64.135 271.476 63.9685 271.617 63.8095C271.758 63.6475 271.878 63.4855 271.977 63.3235C272.076 63.1615 272.152 62.998 272.206 62.833C272.26 62.665 272.287 62.4865 272.287 62.2975C272.287 62.1085 272.257 61.9435 272.197 61.8025C272.137 61.6585 272.055 61.54 271.95 61.447C271.848 61.354 271.726 61.285 271.585 61.24C271.444 61.192 271.293 61.168 271.131 61.168C270.966 61.168 270.814 61.192 270.676 61.24C270.538 61.288 270.415 61.3555 270.307 61.4425C270.202 61.5265 270.114 61.627 270.042 61.744C269.97 61.861 269.919 61.99 269.889 62.131C269.853 62.236 269.803 62.3065 269.74 62.3425C269.68 62.3755 269.595 62.3845 269.484 62.3695L269.065 62.2975C269.107 62.0035 269.188 61.744 269.308 61.519C269.431 61.291 269.584 61.1005 269.767 60.9475C269.953 60.7945 270.165 60.679 270.402 60.601C270.639 60.52 270.895 60.4795 271.171 60.4795C271.444 60.4795 271.699 60.52 271.936 60.601C272.173 60.682 272.379 60.8005 272.553 60.9565C272.727 61.1095 272.863 61.297 272.962 61.519C273.061 61.741 273.111 61.993 273.111 62.275C273.111 62.515 273.075 62.7385 273.003 62.9455C272.931 63.1495 272.833 63.3445 272.71 63.5305C272.587 63.7165 272.445 63.898 272.283 64.075C272.124 64.252 271.954 64.4305 271.774 64.6105L270.073 66.3475C270.193 66.3145 270.315 66.289 270.438 66.271C270.561 66.25 270.679 66.2395 270.793 66.2395H272.953ZM278.682 63.778C278.682 64.342 278.621 64.831 278.498 65.245C278.378 65.656 278.213 65.9965 278.003 66.2665C277.793 66.5365 277.544 66.7375 277.256 66.8695C276.971 67.0015 276.665 67.0675 276.338 67.0675C276.008 67.0675 275.7 67.0015 275.415 66.8695C275.133 66.7375 274.887 66.5365 274.677 66.2665C274.467 65.9965 274.302 65.656 274.182 65.245C274.062 64.831 274.002 64.342 274.002 63.778C274.002 63.214 274.062 62.725 274.182 62.311C274.302 61.897 274.467 61.555 274.677 61.285C274.887 61.012 275.133 60.8095 275.415 60.6775C275.7 60.5455 276.008 60.4795 276.338 60.4795C276.665 60.4795 276.971 60.5455 277.256 60.6775C277.544 60.8095 277.793 61.012 278.003 61.285C278.213 61.555 278.378 61.897 278.498 62.311C278.621 62.725 278.682 63.214 278.682 63.778ZM277.85 63.778C277.85 63.286 277.808 62.8735 277.724 62.5405C277.643 62.2045 277.532 61.9345 277.391 61.7305C277.253 61.5265 277.092 61.381 276.909 61.294C276.726 61.204 276.536 61.159 276.338 61.159C276.14 61.159 275.949 61.204 275.766 61.294C275.583 61.381 275.423 61.5265 275.285 61.7305C275.147 61.9345 275.036 62.2045 274.952 62.5405C274.871 62.8735 274.83 63.286 274.83 63.778C274.83 64.27 274.871 64.6825 274.952 65.0155C275.036 65.3485 275.147 65.617 275.285 65.821C275.423 66.025 275.583 66.172 275.766 66.262C275.949 66.349 276.14 66.3925 276.338 66.3925C276.536 66.3925 276.726 66.349 276.909 66.262C277.092 66.172 277.253 66.025 277.391 65.821C277.532 65.617 277.643 65.3485 277.724 65.0155C277.808 64.6825 277.85 64.27 277.85 63.778ZM283.395 66.2395C283.482 66.2395 283.551 66.265 283.602 66.316C283.653 66.367 283.678 66.433 283.678 66.514V67H279.376V66.7255C279.376 66.6685 279.388 66.61 279.412 66.55C279.436 66.49 279.474 66.4345 279.525 66.3835L281.59 64.309C281.761 64.135 281.917 63.9685 282.058 63.8095C282.199 63.6475 282.319 63.4855 282.418 63.3235C282.517 63.1615 282.594 62.998 282.648 62.833C282.702 62.665 282.729 62.4865 282.729 62.2975C282.729 62.1085 282.699 61.9435 282.639 61.8025C282.579 61.6585 282.496 61.54 282.391 61.447C282.289 61.354 282.168 61.285 282.027 61.24C281.886 61.192 281.734 61.168 281.572 61.168C281.407 61.168 281.256 61.192 281.118 61.24C280.98 61.288 280.857 61.3555 280.749 61.4425C280.644 61.5265 280.555 61.627 280.483 61.744C280.411 61.861 280.36 61.99 280.33 62.131C280.294 62.236 280.245 62.3065 280.182 62.3425C280.122 62.3755 280.036 62.3845 279.925 62.3695L279.507 62.2975C279.549 62.0035 279.63 61.744 279.75 61.519C279.873 61.291 280.026 61.1005 280.209 60.9475C280.395 60.7945 280.606 60.679 280.843 60.601C281.08 60.52 281.337 60.4795 281.613 60.4795C281.886 60.4795 282.141 60.52 282.378 60.601C282.615 60.682 282.82 60.8005 282.994 60.9565C283.168 61.1095 283.305 61.297 283.404 61.519C283.503 61.741 283.552 61.993 283.552 62.275C283.552 62.515 283.516 62.7385 283.444 62.9455C283.372 63.1495 283.275 63.3445 283.152 63.5305C283.029 63.7165 282.886 63.898 282.724 64.075C282.565 64.252 282.396 64.4305 282.216 64.6105L280.515 66.3475C280.635 66.3145 280.756 66.289 280.879 66.271C281.002 66.25 281.121 66.2395 281.235 66.2395H283.395ZM286.784 66.433C286.994 66.433 287.181 66.4045 287.346 66.3475C287.514 66.2875 287.655 66.205 287.769 66.1C287.886 65.992 287.975 65.8645 288.035 65.7175C288.098 65.5675 288.129 65.4025 288.129 65.2225C288.129 65.0005 288.092 64.8115 288.017 64.6555C287.945 64.4965 287.846 64.3675 287.72 64.2685C287.597 64.1695 287.454 64.0975 287.292 64.0525C287.13 64.0045 286.961 63.9805 286.784 63.9805C286.607 63.9805 286.437 64.0045 286.275 64.0525C286.113 64.0975 285.969 64.1695 285.843 64.2685C285.72 64.3675 285.621 64.4965 285.546 64.6555C285.474 64.8115 285.438 65.0005 285.438 65.2225C285.438 65.4025 285.468 65.5675 285.528 65.7175C285.591 65.8645 285.68 65.992 285.794 66.1C285.911 66.205 286.052 66.2875 286.217 66.3475C286.385 66.4045 286.574 66.433 286.784 66.433ZM286.784 61.1005C286.592 61.1005 286.422 61.129 286.275 61.186C286.131 61.243 286.01 61.321 285.911 61.42C285.815 61.519 285.741 61.6345 285.69 61.7665C285.642 61.8985 285.618 62.0395 285.618 62.1895C285.618 62.3365 285.639 62.479 285.681 62.617C285.723 62.755 285.791 62.878 285.884 62.986C285.977 63.091 286.097 63.1765 286.244 63.2425C286.394 63.3055 286.574 63.337 286.784 63.337C286.994 63.337 287.172 63.3055 287.319 63.2425C287.469 63.1765 287.591 63.091 287.684 62.986C287.777 62.878 287.844 62.755 287.886 62.617C287.928 62.479 287.949 62.3365 287.949 62.1895C287.949 62.0395 287.924 61.8985 287.873 61.7665C287.825 61.6345 287.751 61.519 287.652 61.42C287.556 61.321 287.435 61.243 287.288 61.186C287.144 61.129 286.976 61.1005 286.784 61.1005ZM287.706 63.6385C288.108 63.7525 288.417 63.943 288.633 64.21C288.849 64.477 288.957 64.819 288.957 65.236C288.957 65.518 288.903 65.773 288.795 66.001C288.69 66.226 288.542 66.418 288.35 66.577C288.161 66.736 287.933 66.859 287.666 66.946C287.399 67.03 287.105 67.072 286.784 67.072C286.463 67.072 286.169 67.03 285.902 66.946C285.635 66.859 285.405 66.736 285.213 66.577C285.021 66.418 284.873 66.226 284.768 66.001C284.663 65.773 284.61 65.518 284.61 65.236C284.61 64.819 284.718 64.477 284.934 64.21C285.15 63.943 285.459 63.7525 285.861 63.6385C285.522 63.5125 285.266 63.325 285.092 63.076C284.921 62.824 284.835 62.524 284.835 62.176C284.835 61.939 284.882 61.717 284.975 61.51C285.068 61.303 285.2 61.123 285.371 60.97C285.542 60.817 285.746 60.697 285.983 60.61C286.223 60.523 286.49 60.4795 286.784 60.4795C287.075 60.4795 287.34 60.523 287.58 60.61C287.82 60.697 288.026 60.817 288.197 60.97C288.368 61.123 288.5 61.303 288.593 61.51C288.686 61.717 288.732 61.939 288.732 62.176C288.732 62.524 288.645 62.824 288.471 63.076C288.3 63.325 288.045 63.5125 287.706 63.6385Z" fill="#66615E"/>
<rect x="222" y="77" width="8" height="8" rx="2" fill="#F5B7CA"/>
<path d="M236.727 81.895C236.976 81.895 237.195 81.862 237.384 81.796C237.576 81.73 237.737 81.6385 237.866 81.5215C237.998 81.4015 238.097 81.259 238.163 81.094C238.229 80.929 238.262 80.7475 238.262 80.5495C238.262 80.1385 238.134 79.8175 237.879 79.5865C237.627 79.3555 237.243 79.24 236.727 79.24H235.692V81.895H236.727ZM236.727 78.5515C237.135 78.5515 237.489 78.5995 237.789 78.6955C238.092 78.7885 238.343 78.922 238.541 79.096C238.739 79.27 238.886 79.48 238.981 79.726C239.081 79.972 239.13 80.2465 239.13 80.5495C239.13 80.8495 239.078 81.124 238.973 81.373C238.868 81.622 238.713 81.8365 238.509 82.0165C238.308 82.1965 238.058 82.3375 237.758 82.4395C237.461 82.5385 237.117 82.588 236.727 82.588H235.692V85H234.824V78.5515H236.727ZM240.712 81.355C240.856 81.043 241.033 80.8 241.243 80.626C241.453 80.449 241.71 80.3605 242.013 80.3605C242.109 80.3605 242.2 80.371 242.287 80.392C242.377 80.413 242.457 80.446 242.526 80.491L242.467 81.0895C242.449 81.1645 242.404 81.202 242.332 81.202C242.29 81.202 242.229 81.193 242.148 81.175C242.067 81.157 241.975 81.148 241.873 81.148C241.729 81.148 241.6 81.169 241.486 81.211C241.375 81.253 241.275 81.316 241.185 81.4C241.098 81.481 241.018 81.583 240.946 81.706C240.877 81.826 240.814 81.964 240.757 82.12V85H239.952V80.4415H240.411C240.498 80.4415 240.558 80.458 240.591 80.491C240.624 80.524 240.646 80.581 240.658 80.662L240.712 81.355ZM244.967 80.3695C245.3 80.3695 245.6 80.425 245.867 80.536C246.134 80.647 246.362 80.8045 246.551 81.0085C246.74 81.2125 246.884 81.46 246.983 81.751C247.085 82.039 247.136 82.3615 247.136 82.7185C247.136 83.0785 247.085 83.4025 246.983 83.6905C246.884 83.9785 246.74 84.2245 246.551 84.4285C246.362 84.6325 246.134 84.79 245.867 84.901C245.6 85.009 245.3 85.063 244.967 85.063C244.631 85.063 244.328 85.009 244.058 84.901C243.791 84.79 243.563 84.6325 243.374 84.4285C243.185 84.2245 243.04 83.9785 242.938 83.6905C242.839 83.4025 242.789 83.0785 242.789 82.7185C242.789 82.3615 242.839 82.039 242.938 81.751C243.04 81.46 243.185 81.2125 243.374 81.0085C243.563 80.8045 243.791 80.647 244.058 80.536C244.328 80.425 244.631 80.3695 244.967 80.3695ZM244.967 84.4375C245.417 84.4375 245.753 84.2875 245.975 83.9875C246.197 83.6845 246.308 83.263 246.308 82.723C246.308 82.18 246.197 81.757 245.975 81.454C245.753 81.151 245.417 80.9995 244.967 80.9995C244.739 80.9995 244.54 81.0385 244.369 81.1165C244.201 81.1945 244.06 81.307 243.946 81.454C243.835 81.601 243.751 81.7825 243.694 81.9985C243.64 82.2115 243.613 82.453 243.613 82.723C243.613 83.263 243.724 83.6845 243.946 83.9875C244.171 84.2875 244.511 84.4375 244.967 84.4375ZM248.361 85V81.1255L247.857 81.067C247.791 81.052 247.739 81.0295 247.7 80.9995C247.661 80.9665 247.641 80.92 247.641 80.86V80.5315H248.361V80.2795C248.361 80.0005 248.405 79.7455 248.492 79.5145C248.579 79.2805 248.709 79.0795 248.883 78.9115C249.057 78.7435 249.273 78.613 249.531 78.52C249.792 78.427 250.094 78.3805 250.436 78.3805C250.55 78.3805 250.667 78.388 250.787 78.403C250.907 78.418 251.01 78.4405 251.097 78.4705L251.066 78.889C251.063 78.919 251.051 78.94 251.03 78.952C251.012 78.964 250.986 78.9715 250.953 78.9745C250.92 78.9775 250.878 78.979 250.827 78.979C250.779 78.976 250.724 78.9745 250.661 78.9745C250.127 78.9745 249.74 79.0855 249.5 79.3075C249.26 79.5265 249.14 79.858 249.14 80.302V80.5315H251.894V85H251.088V81.112H249.162V85H248.361ZM254.605 85.072C254.245 85.072 253.968 84.9715 253.773 84.7705C253.581 84.5695 253.485 84.28 253.485 83.902V81.112H252.936C252.888 81.112 252.847 81.0985 252.814 81.0715C252.781 81.0415 252.765 80.9965 252.765 80.9365V80.617L253.512 80.5225L253.696 79.114C253.705 79.069 253.725 79.033 253.755 79.006C253.788 78.976 253.83 78.961 253.881 78.961H254.286V80.5315H255.604V81.112H254.286V83.848C254.286 84.04 254.332 84.1825 254.425 84.2755C254.518 84.3685 254.638 84.415 254.785 84.415C254.869 84.415 254.941 84.4045 255.001 84.3835C255.064 84.3595 255.118 84.334 255.163 84.307C255.208 84.28 255.246 84.256 255.276 84.235C255.309 84.211 255.337 84.199 255.361 84.199C255.403 84.199 255.441 84.2245 255.474 84.2755L255.708 84.658C255.57 84.787 255.403 84.889 255.208 84.964C255.013 85.036 254.812 85.072 254.605 85.072ZM259.086 81.193C259.05 81.259 258.995 81.292 258.92 81.292C258.875 81.292 258.824 81.2755 258.767 81.2425C258.71 81.2095 258.639 81.1735 258.555 81.1345C258.474 81.0925 258.377 81.055 258.263 81.022C258.149 80.986 258.014 80.968 257.858 80.968C257.723 80.968 257.601 80.986 257.493 81.022C257.385 81.055 257.292 81.1015 257.214 81.1615C257.139 81.2215 257.081 81.292 257.039 81.373C257 81.451 256.98 81.5365 256.98 81.6295C256.98 81.7465 257.013 81.844 257.079 81.922C257.148 82 257.238 82.0675 257.349 82.1245C257.46 82.1815 257.586 82.2325 257.727 82.2775C257.868 82.3195 258.012 82.366 258.159 82.417C258.309 82.465 258.455 82.519 258.596 82.579C258.737 82.639 258.863 82.714 258.974 82.804C259.085 82.894 259.173 83.005 259.239 83.137C259.308 83.266 259.343 83.422 259.343 83.605C259.343 83.815 259.305 84.01 259.23 84.19C259.155 84.367 259.044 84.5215 258.897 84.6535C258.75 84.7825 258.57 84.8845 258.357 84.9595C258.144 85.0345 257.898 85.072 257.619 85.072C257.301 85.072 257.013 85.021 256.755 84.919C256.497 84.814 256.278 84.6805 256.098 84.5185L256.287 84.2125C256.311 84.1735 256.34 84.1435 256.373 84.1225C256.406 84.1015 256.448 84.091 256.499 84.091C256.553 84.091 256.61 84.112 256.67 84.154C256.73 84.196 256.802 84.2425 256.886 84.2935C256.973 84.3445 257.078 84.391 257.201 84.433C257.324 84.475 257.477 84.496 257.66 84.496C257.816 84.496 257.952 84.4765 258.069 84.4375C258.186 84.3955 258.284 84.34 258.362 84.271C258.44 84.202 258.497 84.1225 258.533 84.0325C258.572 83.9425 258.591 83.8465 258.591 83.7445C258.591 83.6185 258.557 83.515 258.488 83.434C258.422 83.35 258.333 83.2795 258.222 83.2225C258.111 83.1625 257.984 83.1115 257.84 83.0695C257.699 83.0245 257.553 82.978 257.403 82.93C257.256 82.882 257.111 82.828 256.967 82.768C256.826 82.705 256.7 82.627 256.589 82.534C256.478 82.441 256.388 82.327 256.319 82.192C256.253 82.054 256.22 81.8875 256.22 81.6925C256.22 81.5185 256.256 81.352 256.328 81.193C256.4 81.031 256.505 80.89 256.643 80.77C256.781 80.647 256.95 80.5495 257.151 80.4775C257.352 80.4055 257.582 80.3695 257.84 80.3695C258.14 80.3695 258.408 80.4175 258.645 80.5135C258.885 80.6065 259.092 80.7355 259.266 80.9005L259.086 81.193Z" fill="#66615E"/>
<path d="M313.649 84.1035V85H309.331V84.1035H310.981V79.1425C310.981 78.9665 310.987 78.7868 310.998 78.6035L309.727 79.676C309.672 79.72 309.615 79.7493 309.557 79.764C309.502 79.775 309.448 79.775 309.397 79.764C309.349 79.753 309.305 79.7365 309.265 79.7145C309.228 79.6888 309.199 79.6613 309.177 79.632L308.808 79.115L311.196 77.0635H312.158V84.1035H313.649ZM317.56 84.109C317.798 84.109 318.016 84.0705 318.214 83.9935C318.412 83.9128 318.581 83.8028 318.72 83.6635C318.863 83.5242 318.973 83.3592 319.05 83.1685C319.127 82.9778 319.166 82.7707 319.166 82.547C319.166 82.305 319.127 82.0887 319.05 81.898C318.977 81.7037 318.871 81.5405 318.731 81.4085C318.596 81.2765 318.431 81.1757 318.236 81.106C318.046 81.0327 317.835 80.996 317.604 80.996C317.366 80.996 317.149 81.0363 316.955 81.117C316.764 81.1977 316.601 81.3077 316.465 81.447C316.33 81.5863 316.225 81.7495 316.152 81.9365C316.079 82.1235 316.042 82.3215 316.042 82.5305C316.042 82.7652 316.075 82.9797 316.141 83.174C316.207 83.3683 316.304 83.5352 316.432 83.6745C316.561 83.8102 316.718 83.9165 316.905 83.9935C317.096 84.0705 317.314 84.109 317.56 84.109ZM317.125 79.995C317.067 80.0683 317.01 80.138 316.955 80.204C316.904 80.27 316.852 80.336 316.801 80.402C316.97 80.3067 317.155 80.2315 317.356 80.1765C317.558 80.1215 317.774 80.094 318.005 80.094C318.313 80.094 318.609 80.1453 318.891 80.248C319.173 80.347 319.421 80.4973 319.633 80.699C319.85 80.897 320.022 81.1445 320.15 81.4415C320.279 81.7348 320.343 82.074 320.343 82.459C320.343 82.8257 320.275 83.1685 320.139 83.4875C320.007 83.8065 319.82 84.0852 319.578 84.3235C319.336 84.5582 319.045 84.7452 318.704 84.8845C318.367 85.0202 317.993 85.088 317.582 85.088C317.171 85.088 316.801 85.022 316.471 84.89C316.141 84.758 315.859 84.5728 315.624 84.3345C315.393 84.0925 315.215 83.8028 315.09 83.4655C314.966 83.1282 314.903 82.7523 314.903 82.338C314.903 81.9787 314.98 81.6028 315.134 81.2105C315.288 80.8182 315.527 80.4057 315.849 79.973L317.796 77.3605C317.855 77.2835 317.939 77.2175 318.049 77.1625C318.163 77.1075 318.29 77.08 318.429 77.08H319.474L317.125 79.995ZM326.839 81.04C326.839 81.733 326.764 82.3325 326.614 82.8385C326.467 83.3445 326.264 83.7643 326.003 84.098C325.743 84.4317 325.437 84.6792 325.085 84.8405C324.733 85.0018 324.353 85.0825 323.946 85.0825C323.539 85.0825 323.16 85.0018 322.808 84.8405C322.456 84.6792 322.15 84.4317 321.889 84.098C321.633 83.7643 321.431 83.3445 321.284 82.8385C321.138 82.3325 321.064 81.733 321.064 81.04C321.064 80.347 321.138 79.7475 321.284 79.2415C321.431 78.7318 321.633 78.312 321.889 77.982C322.15 77.6483 322.456 77.4008 322.808 77.2395C323.16 77.0745 323.539 76.992 323.946 76.992C324.353 76.992 324.733 77.0745 325.085 77.2395C325.437 77.4008 325.743 77.6483 326.003 77.982C326.264 78.312 326.467 78.7318 326.614 79.2415C326.764 79.7475 326.839 80.347 326.839 81.04ZM325.618 81.04C325.618 80.4533 325.571 79.9657 325.475 79.577C325.384 79.1847 325.261 78.8712 325.107 78.6365C324.953 78.4018 324.775 78.235 324.573 78.136C324.372 78.037 324.163 77.9875 323.946 77.9875C323.726 77.9875 323.515 78.037 323.314 78.136C323.116 78.235 322.94 78.4018 322.786 78.6365C322.632 78.8712 322.509 79.1847 322.417 79.577C322.326 79.9657 322.28 80.4533 322.28 81.04C322.28 81.6267 322.326 82.1162 322.417 82.5085C322.509 82.8972 322.632 83.2088 322.786 83.4435C322.94 83.6782 323.116 83.845 323.314 83.944C323.515 84.043 323.726 84.0925 323.946 84.0925C324.163 84.0925 324.372 84.043 324.573 83.944C324.775 83.845 324.953 83.6782 325.107 83.4435C325.261 83.2088 325.384 82.8972 325.475 82.5085C325.571 82.1162 325.618 81.6267 325.618 81.04Z" fill="#1A1615"/>
<rect x="222" y="95" width="8" height="8" rx="2" fill="#51004F"/>
<path d="M238.802 102.289L238.797 103H234.824V96.5515H238.797V97.2625H235.697V99.4045H238.208V100.088H235.697V102.289H238.802ZM243.573 103H242.803C242.737 103 242.685 102.983 242.646 102.95C242.61 102.914 242.58 102.875 242.556 102.833L241.408 101.047C241.396 101.089 241.383 101.131 241.368 101.173C241.356 101.212 241.338 101.248 241.314 101.281L240.252 102.833C240.222 102.875 240.189 102.914 240.153 102.95C240.12 102.983 240.073 103 240.013 103H239.298L240.895 100.66L239.361 98.4415H240.13C240.196 98.4415 240.244 98.452 240.274 98.473C240.304 98.494 240.331 98.524 240.355 98.563L241.476 100.273C241.5 100.186 241.537 100.102 241.588 100.021L242.569 98.581C242.596 98.539 242.625 98.506 242.655 98.482C242.688 98.455 242.727 98.4415 242.772 98.4415H243.51L241.975 100.619L243.573 103ZM245.117 101.902C245.264 102.1 245.424 102.239 245.598 102.32C245.772 102.401 245.967 102.442 246.183 102.442C246.609 102.442 246.936 102.29 247.164 101.987C247.392 101.684 247.506 101.252 247.506 100.691C247.506 100.394 247.479 100.139 247.425 99.9265C247.374 99.7135 247.299 99.5395 247.2 99.4045C247.101 99.2665 246.98 99.166 246.836 99.103C246.692 99.04 246.528 99.0085 246.345 99.0085C246.084 99.0085 245.855 99.0685 245.657 99.1885C245.462 99.3085 245.282 99.478 245.117 99.697V101.902ZM245.076 99.148C245.268 98.911 245.49 98.7205 245.742 98.5765C245.994 98.4325 246.282 98.3605 246.606 98.3605C246.87 98.3605 247.109 98.4115 247.322 98.5135C247.535 98.6125 247.716 98.761 247.866 98.959C248.016 99.154 248.132 99.397 248.213 99.688C248.294 99.979 248.334 100.313 248.334 100.691C248.334 101.027 248.289 101.341 248.199 101.632C248.109 101.92 247.979 102.17 247.808 102.383C247.64 102.593 247.433 102.76 247.187 102.883C246.944 103.003 246.669 103.063 246.363 103.063C246.084 103.063 245.844 103.016 245.643 102.923C245.445 102.827 245.27 102.695 245.117 102.527V104.544H244.311V98.4415H244.793C244.907 98.4415 244.977 98.497 245.004 98.608L245.076 99.148ZM251.827 100.948C251.458 100.96 251.143 100.99 250.882 101.038C250.624 101.083 250.412 101.143 250.247 101.218C250.085 101.293 249.967 101.381 249.892 101.483C249.82 101.585 249.784 101.699 249.784 101.825C249.784 101.945 249.803 102.049 249.842 102.136C249.881 102.223 249.934 102.295 250 102.352C250.069 102.406 250.148 102.446 250.238 102.473C250.331 102.497 250.43 102.509 250.535 102.509C250.676 102.509 250.805 102.496 250.922 102.469C251.039 102.439 251.149 102.397 251.251 102.343C251.356 102.289 251.455 102.224 251.548 102.149C251.644 102.074 251.737 101.989 251.827 101.893V100.948ZM249.239 99.085C249.491 98.842 249.763 98.6605 250.054 98.5405C250.345 98.4205 250.667 98.3605 251.021 98.3605C251.276 98.3605 251.503 98.4025 251.701 98.4865C251.899 98.5705 252.065 98.6875 252.2 98.8375C252.335 98.9875 252.437 99.169 252.506 99.382C252.575 99.595 252.61 99.829 252.61 100.084V103H252.254C252.176 103 252.116 102.988 252.074 102.964C252.032 102.937 251.999 102.886 251.975 102.811L251.885 102.379C251.765 102.49 251.648 102.589 251.534 102.676C251.42 102.76 251.3 102.832 251.174 102.892C251.048 102.949 250.913 102.992 250.769 103.023C250.628 103.056 250.471 103.072 250.297 103.072C250.12 103.072 249.953 103.048 249.797 103C249.641 102.949 249.505 102.874 249.388 102.775C249.274 102.676 249.182 102.551 249.113 102.401C249.047 102.248 249.014 102.068 249.014 101.861C249.014 101.681 249.064 101.509 249.163 101.344C249.262 101.176 249.422 101.027 249.644 100.898C249.866 100.769 250.156 100.664 250.513 100.583C250.87 100.5 251.308 100.451 251.827 100.439V100.084C251.827 99.73 251.75 99.463 251.597 99.283C251.444 99.1 251.221 99.0085 250.927 99.0085C250.729 99.0085 250.562 99.034 250.427 99.085C250.295 99.133 250.18 99.1885 250.081 99.2515C249.985 99.3115 249.901 99.367 249.829 99.418C249.76 99.466 249.691 99.49 249.622 99.49C249.568 99.49 249.521 99.4765 249.482 99.4495C249.443 99.4195 249.41 99.3835 249.383 99.3415L249.239 99.085ZM254.586 99.103C254.685 98.992 254.79 98.8915 254.901 98.8015C255.012 98.7115 255.129 98.635 255.252 98.572C255.378 98.506 255.51 98.4565 255.648 98.4235C255.789 98.3875 255.94 98.3695 256.102 98.3695C256.351 98.3695 256.57 98.4115 256.759 98.4955C256.951 98.5765 257.11 98.6935 257.236 98.8465C257.365 98.9965 257.463 99.178 257.529 99.391C257.595 99.604 257.628 99.8395 257.628 100.097V103H256.822V100.097C256.822 99.7525 256.743 99.4855 256.584 99.2965C256.428 99.1045 256.189 99.0085 255.868 99.0085C255.631 99.0085 255.409 99.0655 255.202 99.1795C254.998 99.2935 254.809 99.448 254.635 99.643V103H253.83V98.4415H254.311C254.425 98.4415 254.496 98.497 254.523 98.608L254.586 99.103ZM261.503 99.193C261.467 99.259 261.412 99.292 261.337 99.292C261.292 99.292 261.241 99.2755 261.184 99.2425C261.127 99.2095 261.056 99.1735 260.972 99.1345C260.891 99.0925 260.794 99.055 260.68 99.022C260.566 98.986 260.431 98.968 260.275 98.968C260.14 98.968 260.018 98.986 259.91 99.022C259.802 99.055 259.709 99.1015 259.631 99.1615C259.556 99.2215 259.498 99.292 259.456 99.373C259.417 99.451 259.397 99.5365 259.397 99.6295C259.397 99.7465 259.43 99.844 259.496 99.922C259.565 100 259.655 100.067 259.766 100.124C259.877 100.181 260.003 100.232 260.144 100.277C260.285 100.319 260.429 100.366 260.576 100.417C260.726 100.465 260.872 100.519 261.013 100.579C261.154 100.639 261.28 100.714 261.391 100.804C261.502 100.894 261.59 101.005 261.656 101.137C261.725 101.266 261.76 101.422 261.76 101.605C261.76 101.815 261.722 102.01 261.647 102.19C261.572 102.367 261.461 102.521 261.314 102.653C261.167 102.782 260.987 102.884 260.774 102.959C260.561 103.035 260.315 103.072 260.036 103.072C259.718 103.072 259.43 103.021 259.172 102.919C258.914 102.814 258.695 102.68 258.515 102.518L258.704 102.212C258.728 102.173 258.757 102.143 258.79 102.122C258.823 102.101 258.865 102.091 258.916 102.091C258.97 102.091 259.027 102.112 259.087 102.154C259.147 102.196 259.219 102.242 259.303 102.293C259.39 102.344 259.495 102.391 259.618 102.433C259.741 102.475 259.894 102.496 260.077 102.496C260.233 102.496 260.369 102.476 260.486 102.438C260.603 102.395 260.701 102.34 260.779 102.271C260.857 102.202 260.914 102.122 260.95 102.032C260.989 101.942 261.008 101.846 261.008 101.744C261.008 101.618 260.974 101.515 260.905 101.434C260.839 101.35 260.75 101.279 260.639 101.222C260.528 101.162 260.401 101.111 260.257 101.069C260.116 101.024 259.97 100.978 259.82 100.93C259.673 100.882 259.528 100.828 259.384 100.768C259.243 100.705 259.117 100.627 259.006 100.534C258.895 100.441 258.805 100.327 258.736 100.192C258.67 100.054 258.637 99.8875 258.637 99.6925C258.637 99.5185 258.673 99.352 258.745 99.193C258.817 99.031 258.922 98.89 259.06 98.77C259.198 98.647 259.367 98.5495 259.568 98.4775C259.769 98.4055 259.999 98.3695 260.257 98.3695C260.557 98.3695 260.825 98.4175 261.062 98.5135C261.302 98.6065 261.509 98.7355 261.683 98.9005L261.503 99.193ZM265.793 100.223C265.793 100.037 265.766 99.868 265.712 99.715C265.661 99.559 265.584 99.4255 265.482 99.3145C265.383 99.2005 265.262 99.1135 265.118 99.0535C264.974 98.9905 264.81 98.959 264.627 98.959C264.243 98.959 263.939 99.0715 263.714 99.2965C263.492 99.5185 263.354 99.8275 263.3 100.223H265.793ZM266.441 102.361C266.342 102.481 266.223 102.586 266.085 102.676C265.947 102.763 265.799 102.835 265.64 102.892C265.484 102.949 265.322 102.991 265.154 103.018C264.986 103.048 264.819 103.063 264.654 103.063C264.339 103.063 264.048 103.01 263.781 102.905C263.517 102.797 263.288 102.641 263.093 102.438C262.901 102.23 262.751 101.975 262.643 101.672C262.535 101.369 262.481 101.021 262.481 100.628C262.481 100.31 262.529 100.013 262.625 99.7375C262.724 99.4615 262.865 99.223 263.048 99.022C263.231 98.818 263.454 98.659 263.718 98.545C263.982 98.428 264.279 98.3695 264.609 98.3695C264.882 98.3695 265.134 98.416 265.365 98.509C265.599 98.599 265.8 98.731 265.968 98.905C266.139 99.076 266.273 99.289 266.369 99.544C266.465 99.796 266.513 100.084 266.513 100.408C266.513 100.534 266.499 100.618 266.472 100.66C266.445 100.702 266.394 100.723 266.319 100.723H263.273C263.282 101.011 263.321 101.261 263.39 101.474C263.462 101.687 263.561 101.866 263.687 102.01C263.813 102.151 263.963 102.257 264.137 102.329C264.311 102.398 264.506 102.433 264.722 102.433C264.923 102.433 265.095 102.41 265.239 102.365C265.386 102.317 265.512 102.266 265.617 102.212C265.722 102.158 265.809 102.109 265.878 102.064C265.95 102.016 266.012 101.992 266.063 101.992C266.129 101.992 266.18 102.017 266.216 102.068L266.441 102.361ZM270.152 99.193C270.116 99.259 270.06 99.292 269.985 99.292C269.94 99.292 269.889 99.2755 269.832 99.2425C269.775 99.2095 269.705 99.1735 269.621 99.1345C269.54 99.0925 269.442 99.055 269.328 99.022C269.214 98.986 269.079 98.968 268.923 98.968C268.788 98.968 268.667 98.986 268.559 99.022C268.451 99.055 268.358 99.1015 268.28 99.1615C268.205 99.2215 268.146 99.292 268.104 99.373C268.065 99.451 268.046 99.5365 268.046 99.6295C268.046 99.7465 268.079 99.844 268.145 99.922C268.214 100 268.304 100.067 268.415 100.124C268.526 100.181 268.652 100.232 268.793 100.277C268.934 100.319 269.078 100.366 269.225 100.417C269.375 100.465 269.52 100.519 269.661 100.579C269.802 100.639 269.928 100.714 270.039 100.804C270.15 100.894 270.239 101.005 270.305 101.137C270.374 101.266 270.408 101.422 270.408 101.605C270.408 101.815 270.371 102.01 270.296 102.19C270.221 102.367 270.11 102.521 269.963 102.653C269.816 102.782 269.636 102.884 269.423 102.959C269.21 103.035 268.964 103.072 268.685 103.072C268.367 103.072 268.079 103.021 267.821 102.919C267.563 102.814 267.344 102.68 267.164 102.518L267.353 102.212C267.377 102.173 267.405 102.143 267.438 102.122C267.471 102.101 267.513 102.091 267.564 102.091C267.618 102.091 267.675 102.112 267.735 102.154C267.795 102.196 267.867 102.242 267.951 102.293C268.038 102.344 268.143 102.391 268.266 102.433C268.389 102.475 268.542 102.496 268.725 102.496C268.881 102.496 269.018 102.476 269.135 102.438C269.252 102.395 269.349 102.34 269.427 102.271C269.505 102.202 269.562 102.122 269.598 102.032C269.637 101.942 269.657 101.846 269.657 101.744C269.657 101.618 269.622 101.515 269.553 101.434C269.487 101.35 269.399 101.279 269.288 101.222C269.177 101.162 269.049 101.111 268.905 101.069C268.764 101.024 268.619 100.978 268.469 100.93C268.322 100.882 268.176 100.828 268.032 100.768C267.891 100.705 267.765 100.627 267.654 100.534C267.543 100.441 267.453 100.327 267.384 100.192C267.318 100.054 267.285 99.8875 267.285 99.6925C267.285 99.5185 267.321 99.352 267.393 99.193C267.465 99.031 267.57 98.89 267.708 98.77C267.846 98.647 268.016 98.5495 268.217 98.4775C268.418 98.4055 268.647 98.3695 268.905 98.3695C269.205 98.3695 269.474 98.4175 269.711 98.5135C269.951 98.6065 270.158 98.7355 270.332 98.9005L270.152 99.193Z" fill="#66615E"/>
<path d="M313.649 102.103V103H309.331V102.103H310.981V97.1425C310.981 96.9665 310.987 96.7868 310.998 96.6035L309.727 97.676C309.672 97.72 309.615 97.7493 309.557 97.764C309.502 97.775 309.448 97.775 309.397 97.764C309.349 97.753 309.305 97.7365 309.265 97.7145C309.228 97.6888 309.199 97.6613 309.177 97.632L308.808 97.115L311.196 95.0635H312.158V102.103H313.649ZM320.029 102.103V103H315.712V102.103H317.362V97.1425C317.362 96.9665 317.367 96.7868 317.378 96.6035L316.108 97.676C316.053 97.72 315.996 97.7493 315.937 97.764C315.882 97.775 315.829 97.775 315.778 97.764C315.73 97.753 315.686 97.7365 315.646 97.7145C315.609 97.6888 315.58 97.6613 315.558 97.632L315.189 97.115L317.576 95.0635H318.539V102.103H320.029ZM326.839 99.04C326.839 99.733 326.764 100.332 326.614 100.838C326.467 101.344 326.264 101.764 326.003 102.098C325.743 102.432 325.437 102.679 325.085 102.84C324.733 103.002 324.353 103.083 323.946 103.083C323.539 103.083 323.16 103.002 322.808 102.84C322.456 102.679 322.15 102.432 321.889 102.098C321.633 101.764 321.431 101.344 321.284 100.838C321.138 100.332 321.064 99.733 321.064 99.04C321.064 98.347 321.138 97.7475 321.284 97.2415C321.431 96.7318 321.633 96.312 321.889 95.982C322.15 95.6483 322.456 95.4008 322.808 95.2395C323.16 95.0745 323.539 94.992 323.946 94.992C324.353 94.992 324.733 95.0745 325.085 95.2395C325.437 95.4008 325.743 95.6483 326.003 95.982C326.264 96.312 326.467 96.7318 326.614 97.2415C326.764 97.7475 326.839 98.347 326.839 99.04ZM325.618 99.04C325.618 98.4533 325.571 97.9657 325.475 97.577C325.384 97.1847 325.261 96.8712 325.107 96.6365C324.953 96.4018 324.775 96.235 324.573 96.136C324.372 96.037 324.163 95.9875 323.946 95.9875C323.726 95.9875 323.515 96.037 323.314 96.136C323.116 96.235 322.94 96.4018 322.786 96.6365C322.632 96.8712 322.509 97.1847 322.417 97.577C322.326 97.9657 322.28 98.4533 322.28 99.04C322.28 99.6267 322.326 100.116 322.417 100.508C322.509 100.897 322.632 101.209 322.786 101.443C322.94 101.678 323.116 101.845 323.314 101.944C323.515 102.043 323.726 102.092 323.946 102.092C324.163 102.092 324.372 102.043 324.573 101.944C324.775 101.845 324.953 101.678 325.107 101.443C325.261 101.209 325.384 100.897 325.475 100.508C325.571 100.116 325.618 99.6267 325.618 99.04Z" fill="#1A1615"/>
</g>
<defs>
<filter id="filter0_d_551_7117" x="200" y="42" width="150" height="88" filterUnits="userSpaceOnUse" color-interpolation-filters="sRGB">
<feFlood flood-opacity="0" result="BackgroundImageFix"/>
<feColorMatrix in="SourceAlpha" type="matrix" values="0 0 0 0 0 0 0 0 0 0 0 0 0 0 0 0 0 0 127 0" result="hardAlpha"/>
<feOffset dy="4"/>
<feGaussianBlur stdDeviation="6"/>
<feComposite in2="hardAlpha" operator="out"/>
<feColorMatrix type="matrix" values="0 0 0 0 0.282353 0 0 0 0 0.243137 0 0 0 0 0.231373 0 0 0 0.12 0"/>
<feBlend mode="normal" in2="BackgroundImageFix" result="effect1_dropShadow_551_7117"/>
<feBlend mode="normal" in="SourceGraphic" in2="effect1_dropShadow_551_7117" result="shape"/>
</filter>
<clipPath id="clip0_551_7117">
<rect x="40" y="102" width="49.1429" height="82" rx="12" fill="white"/>
</clipPath>
<clipPath id="clip1_551_7117">
<rect x="113.143" y="85" width="49.1429" height="79" rx="12" fill="white"/>
</clipPath>
<clipPath id="clip2_551_7117">
<rect x="186.285" y="75" width="49.1429" height="79" rx="12" fill="white"/>
</clipPath>
<clipPath id="clip3_551_7117">
<rect x="259.428" y="80" width="49.1429" height="79" rx="12" fill="white"/>
</clipPath>
<clipPath id="clip4_551_7117">
<rect x="332.572" y="94" width="49.1429" height="79" rx="12" fill="white"/>
</clipPath>
<clipPath id="clip5_551_7117">
<rect x="405.715" y="85" width="49.1429" height="70" rx="12" fill="white"/>
</clipPath>
<clipPath id="clip6_551_7117">
<rect x="478.857" y="70" width="49.1429" height="93" rx="12" fill="white"/>
</clipPath>
</defs>
</svg>
