<svg width="541" height="248" viewBox="0 0 541 248" fill="none" xmlns="http://www.w3.org/2000/svg">
<rect width="8" height="38" rx="4" fill="#A83F98"/>
<path d="M18.0735 11H17.0065V3.1185H18.0735V11ZM20.6966 6.237C20.8176 6.10133 20.9459 5.9785 21.0816 5.8685C21.2172 5.7585 21.3602 5.665 21.5106 5.588C21.6646 5.50733 21.8259 5.44683 21.9946 5.4065C22.1669 5.3625 22.3521 5.3405 22.5501 5.3405C22.8544 5.3405 23.1221 5.39183 23.3531 5.4945C23.5877 5.5935 23.7821 5.7365 23.9361 5.9235C24.0937 6.10683 24.2129 6.32867 24.2936 6.589C24.3742 6.84933 24.4146 7.13717 24.4146 7.4525V11H23.4301V7.4525C23.4301 7.03083 23.3329 6.7045 23.1386 6.4735C22.9479 6.23883 22.6564 6.1215 22.2641 6.1215C21.9744 6.1215 21.7031 6.19117 21.4501 6.3305C21.2007 6.46983 20.9697 6.65867 20.7571 6.897V11H19.7726V5.4285H20.3611C20.5004 5.4285 20.5866 5.49633 20.6196 5.632L20.6966 6.237ZM29.7839 6.4185C29.7545 6.45883 29.7252 6.49 29.6959 6.512C29.6665 6.534 29.6262 6.545 29.5749 6.545C29.5199 6.545 29.4594 6.523 29.3934 6.479C29.3274 6.43133 29.2449 6.38 29.1459 6.325C29.0505 6.27 28.9314 6.2205 28.7884 6.1765C28.649 6.12883 28.4767 6.105 28.2714 6.105C27.9964 6.105 27.7544 6.1545 27.5454 6.2535C27.3364 6.34883 27.1604 6.48817 27.0174 6.6715C26.878 6.85483 26.7717 7.07667 26.6984 7.337C26.6287 7.59733 26.5939 7.88883 26.5939 8.2115C26.5939 8.54883 26.6324 8.8495 26.7094 9.1135C26.7864 9.37383 26.8945 9.59383 27.0339 9.7735C27.1769 9.9495 27.3474 10.0852 27.5454 10.1805C27.747 10.2722 27.9725 10.318 28.2219 10.318C28.4602 10.318 28.6564 10.2905 28.8104 10.2355C28.9644 10.1768 29.0909 10.1127 29.1899 10.043C29.2925 9.97333 29.3769 9.911 29.4429 9.856C29.5125 9.79733 29.5804 9.768 29.6464 9.768C29.727 9.768 29.7894 9.79917 29.8334 9.8615L30.1084 10.219C29.9874 10.3693 29.8499 10.4977 29.6959 10.604C29.5419 10.7103 29.375 10.8002 29.1954 10.8735C29.0194 10.9432 28.8342 10.9945 28.6399 11.0275C28.4455 11.0605 28.2475 11.077 28.0459 11.077C27.6975 11.077 27.373 11.0128 27.0724 10.8845C26.7754 10.7562 26.5169 10.571 26.2969 10.329C26.0769 10.0833 25.9045 9.78267 25.7799 9.427C25.6552 9.07133 25.5929 8.66617 25.5929 8.2115C25.5929 7.79717 25.6497 7.414 25.7634 7.062C25.8807 6.71 26.0494 6.4075 26.2694 6.1545C26.493 5.89783 26.7662 5.698 27.0889 5.555C27.4152 5.412 27.7892 5.3405 28.2109 5.3405C28.6032 5.3405 28.9479 5.40467 29.2449 5.533C29.5455 5.65767 29.8114 5.8355 30.0424 6.0665L29.7839 6.4185ZM33.4111 5.3405C33.8181 5.3405 34.1848 5.40833 34.5111 5.544C34.8374 5.67967 35.1161 5.87217 35.3471 6.1215C35.5781 6.37083 35.7541 6.67333 35.8751 7.029C35.9998 7.381 36.0621 7.77517 36.0621 8.2115C36.0621 8.6515 35.9998 9.0475 35.8751 9.3995C35.7541 9.7515 35.5781 10.0522 35.3471 10.3015C35.1161 10.5508 34.8374 10.7433 34.5111 10.879C34.1848 11.011 33.8181 11.077 33.4111 11.077C33.0004 11.077 32.6301 11.011 32.3001 10.879C31.9738 10.7433 31.6951 10.5508 31.4641 10.3015C31.2331 10.0522 31.0553 9.7515 30.9306 9.3995C30.8096 9.0475 30.7491 8.6515 30.7491 8.2115C30.7491 7.77517 30.8096 7.381 30.9306 7.029C31.0553 6.67333 31.2331 6.37083 31.4641 6.1215C31.6951 5.87217 31.9738 5.67967 32.3001 5.544C32.6301 5.40833 33.0004 5.3405 33.4111 5.3405ZM33.4111 10.3125C33.9611 10.3125 34.3718 10.1292 34.6431 9.7625C34.9144 9.39217 35.0501 8.877 35.0501 8.217C35.0501 7.55333 34.9144 7.03633 34.6431 6.666C34.3718 6.29567 33.9611 6.1105 33.4111 6.1105C33.1324 6.1105 32.8886 6.15817 32.6796 6.2535C32.4743 6.34883 32.3019 6.48633 32.1626 6.666C32.0269 6.84567 31.9243 7.0675 31.8546 7.3315C31.7886 7.59183 31.7556 7.887 31.7556 8.217C31.7556 8.877 31.8913 9.39217 32.1626 9.7625C32.4376 10.1292 32.8538 10.3125 33.4111 10.3125ZM37.3038 11V5.4285H37.8923C38.0317 5.4285 38.1178 5.49633 38.1508 5.632L38.2223 6.204C38.4277 5.951 38.6587 5.74383 38.9153 5.5825C39.172 5.42117 39.469 5.3405 39.8063 5.3405C40.1803 5.3405 40.4828 5.445 40.7138 5.654C40.9485 5.863 41.1172 6.14533 41.2198 6.501C41.3005 6.29933 41.4032 6.12517 41.5278 5.9785C41.6562 5.83183 41.7992 5.71083 41.9568 5.6155C42.1145 5.52017 42.2813 5.4505 42.4573 5.4065C42.637 5.3625 42.8185 5.3405 43.0018 5.3405C43.2952 5.3405 43.5555 5.38817 43.7828 5.4835C44.0138 5.57517 44.2082 5.71083 44.3658 5.8905C44.5272 6.07017 44.65 6.292 44.7343 6.556C44.8187 6.81633 44.8608 7.11517 44.8608 7.4525V11H43.8763V7.4525C43.8763 7.01617 43.781 6.68617 43.5903 6.4625C43.3997 6.23517 43.1247 6.1215 42.7653 6.1215C42.604 6.1215 42.45 6.15083 42.3033 6.2095C42.1603 6.2645 42.0338 6.347 41.9238 6.457C41.8138 6.567 41.7258 6.70633 41.6598 6.875C41.5975 7.04 41.5663 7.2325 41.5663 7.4525V11H40.5818V7.4525C40.5818 7.00517 40.492 6.6715 40.3123 6.4515C40.1327 6.2315 39.8705 6.1215 39.5258 6.1215C39.2838 6.1215 39.0602 6.1875 38.8548 6.3195C38.6495 6.44783 38.4607 6.62383 38.2883 6.8475V11H37.3038ZM50.0777 7.6065C50.0777 7.37917 50.0447 7.172 49.9787 6.985C49.9164 6.79433 49.8229 6.63117 49.6982 6.4955C49.5772 6.35617 49.4287 6.24983 49.2527 6.1765C49.0767 6.0995 48.8769 6.061 48.6532 6.061C48.1839 6.061 47.8117 6.1985 47.5367 6.4735C47.2654 6.74483 47.0967 7.1225 47.0307 7.6065H50.0777ZM50.8697 10.219C50.7487 10.3657 50.6039 10.494 50.4352 10.604C50.2666 10.7103 50.0851 10.7983 49.8907 10.868C49.7001 10.9377 49.5021 10.989 49.2967 11.022C49.0914 11.0587 48.8879 11.077 48.6862 11.077C48.3012 11.077 47.9456 11.0128 47.6192 10.8845C47.2966 10.7525 47.0161 10.5618 46.7777 10.3125C46.5431 10.0595 46.3597 9.74783 46.2277 9.3775C46.0957 9.00717 46.0297 8.58183 46.0297 8.1015C46.0297 7.71283 46.0884 7.34983 46.2057 7.0125C46.3267 6.67517 46.4991 6.38367 46.7227 6.138C46.9464 5.88867 47.2196 5.69433 47.5422 5.555C47.8649 5.412 48.2279 5.3405 48.6312 5.3405C48.9649 5.3405 49.2729 5.39733 49.5552 5.511C49.8412 5.621 50.0869 5.78233 50.2922 5.995C50.5012 6.204 50.6644 6.46433 50.7817 6.776C50.8991 7.084 50.9577 7.436 50.9577 7.832C50.9577 7.986 50.9412 8.08867 50.9082 8.14C50.8752 8.19133 50.8129 8.217 50.7212 8.217H46.9977C47.0087 8.569 47.0564 8.87517 47.1407 9.1355C47.2287 9.39583 47.3497 9.614 47.5037 9.79C47.6577 9.96233 47.8411 10.0925 48.0537 10.1805C48.2664 10.2648 48.5047 10.307 48.7687 10.307C49.0144 10.307 49.2252 10.2795 49.4012 10.2245C49.5809 10.1658 49.7349 10.1035 49.8632 10.0375C49.9916 9.9715 50.0979 9.911 50.1822 9.856C50.2702 9.79733 50.3454 9.768 50.4077 9.768C50.4884 9.768 50.5507 9.79917 50.5947 9.8615L50.8697 10.219Z" fill="#66615E"/>
<path d="M21.679 34.263C22.315 34.179 22.795 33.966 23.119 33.624C23.449 33.276 23.614 32.823 23.614 32.265C23.614 32.037 23.572 31.839 23.488 31.671C23.41 31.497 23.296 31.344 23.146 31.212C23.002 31.08 22.831 30.966 22.633 30.87C22.435 30.774 22.219 30.684 21.985 30.6L21.679 34.263ZM21.103 24.75C20.767 24.792 20.482 24.864 20.248 24.966C20.014 25.062 19.822 25.182 19.672 25.326C19.522 25.47 19.411 25.632 19.339 25.812C19.273 25.992 19.24 26.181 19.24 26.379C19.24 26.607 19.279 26.808 19.357 26.982C19.441 27.15 19.552 27.303 19.69 27.441C19.834 27.573 20.002 27.693 20.194 27.801C20.386 27.903 20.596 27.999 20.824 28.089L21.103 24.75ZM22.156 28.521C22.588 28.653 23.017 28.8 23.443 28.962C23.869 29.118 24.25 29.322 24.586 29.574C24.928 29.826 25.204 30.141 25.414 30.519C25.624 30.891 25.729 31.359 25.729 31.923C25.729 32.481 25.636 33.006 25.45 33.498C25.264 33.984 24.991 34.416 24.631 34.794C24.271 35.166 23.83 35.472 23.308 35.712C22.786 35.946 22.189 36.084 21.517 36.126L21.409 37.449C21.403 37.587 21.343 37.713 21.229 37.827C21.121 37.947 20.983 38.007 20.815 38.007H19.996L20.158 36.081C19.456 35.985 18.796 35.793 18.178 35.505C17.56 35.217 17.035 34.86 16.603 34.434L17.287 33.417C17.347 33.327 17.425 33.255 17.521 33.201C17.623 33.141 17.731 33.111 17.845 33.111C17.977 33.111 18.118 33.159 18.268 33.255C18.418 33.345 18.589 33.453 18.781 33.579C18.973 33.699 19.192 33.822 19.438 33.948C19.684 34.074 19.975 34.167 20.311 34.227L20.644 30.204C20.218 30.084 19.795 29.943 19.375 29.781C18.961 29.619 18.586 29.406 18.25 29.142C17.92 28.872 17.653 28.533 17.449 28.125C17.245 27.717 17.143 27.207 17.143 26.595C17.143 26.139 17.233 25.695 17.413 25.263C17.593 24.825 17.857 24.435 18.205 24.093C18.559 23.751 18.991 23.469 19.501 23.247C20.011 23.025 20.596 22.899 21.256 22.869L21.355 21.735C21.367 21.591 21.427 21.462 21.535 21.348C21.643 21.234 21.784 21.177 21.958 21.177H22.777L22.633 22.941C23.269 23.043 23.818 23.226 24.28 23.49C24.742 23.748 25.141 24.039 25.477 24.363L24.937 25.182C24.859 25.302 24.778 25.392 24.694 25.452C24.61 25.512 24.508 25.542 24.388 25.542C24.298 25.542 24.19 25.515 24.064 25.461C23.938 25.401 23.797 25.332 23.641 25.254C23.485 25.17 23.308 25.086 23.11 25.002C22.918 24.918 22.705 24.849 22.471 24.795L22.156 28.521ZM40.1334 34.335V36H32.9334V34.335H35.5704V26.748C35.5704 26.448 35.5794 26.139 35.5974 25.821L33.7254 27.387C33.6174 27.471 33.5094 27.525 33.4014 27.549C33.2994 27.567 33.2004 27.567 33.1044 27.549C33.0144 27.531 32.9334 27.501 32.8614 27.459C32.7894 27.411 32.7354 27.36 32.6994 27.306L31.9974 26.343L35.9664 22.968H37.7934V34.335H40.1334ZM47.6678 31.095V26.838C47.6678 26.436 47.6948 25.992 47.7488 25.506L43.7078 31.095H47.6678ZM51.2408 31.095V32.382C51.2408 32.502 51.2018 32.607 51.1238 32.697C51.0458 32.781 50.9348 32.823 50.7908 32.823H49.6028V36H47.6678V32.823H42.1778C42.0278 32.823 41.8958 32.778 41.7818 32.688C41.6678 32.592 41.5958 32.475 41.5658 32.337L41.3318 31.212L47.4968 22.977H49.6028V31.095H51.2408ZM52.7632 38.205C52.6552 38.115 52.6012 38.004 52.6012 37.872C52.6012 37.824 52.6162 37.77 52.6462 37.71C52.6822 37.65 52.7242 37.596 52.7722 37.548C52.8382 37.476 52.9192 37.386 53.0152 37.278C53.1112 37.176 53.2072 37.056 53.3032 36.918C53.3992 36.786 53.4862 36.639 53.5642 36.477C53.6482 36.321 53.7112 36.153 53.7532 35.973C53.5612 35.973 53.3872 35.94 53.2312 35.874C53.0752 35.802 52.9402 35.706 52.8262 35.586C52.7182 35.466 52.6312 35.325 52.5652 35.163C52.5052 35.001 52.4752 34.824 52.4752 34.632C52.4752 34.464 52.5052 34.308 52.5652 34.164C52.6312 34.014 52.7212 33.885 52.8352 33.777C52.9492 33.663 53.0872 33.576 53.2492 33.516C53.4112 33.45 53.5882 33.417 53.7802 33.417C54.0082 33.417 54.2062 33.459 54.3742 33.543C54.5482 33.621 54.6892 33.732 54.7972 33.876C54.9112 34.014 54.9952 34.176 55.0492 34.362C55.1092 34.542 55.1392 34.734 55.1392 34.938C55.1392 35.226 55.0942 35.529 55.0042 35.847C54.9202 36.165 54.7942 36.483 54.6262 36.801C54.4582 37.119 54.2482 37.428 53.9962 37.728C53.7502 38.028 53.4682 38.304 53.1502 38.556L52.7632 38.205ZM62.3279 31.095V26.838C62.3279 26.436 62.3549 25.992 62.4089 25.506L58.3679 31.095H62.3279ZM65.9009 31.095V32.382C65.9009 32.502 65.8619 32.607 65.7839 32.697C65.7059 32.781 65.5949 32.823 65.4509 32.823H64.2629V36H62.3279V32.823H56.8379C56.6879 32.823 56.5559 32.778 56.4419 32.688C56.3279 32.592 56.2559 32.475 56.2259 32.337L55.9919 31.212L62.1569 22.977H64.2629V31.095H65.9009ZM70.0153 27.711C70.3033 27.651 70.5793 27.609 70.8433 27.585C71.1073 27.555 71.3623 27.54 71.6083 27.54C72.2923 27.54 72.8953 27.642 73.4173 27.846C73.9393 28.05 74.3773 28.332 74.7313 28.692C75.0853 29.052 75.3523 29.475 75.5323 29.961C75.7123 30.441 75.8023 30.96 75.8023 31.518C75.8023 32.208 75.6793 32.838 75.4333 33.408C75.1933 33.978 74.8573 34.467 74.4253 34.875C73.9933 35.277 73.4803 35.589 72.8863 35.811C72.2983 36.033 71.6563 36.144 70.9603 36.144C70.5523 36.144 70.1653 36.102 69.7993 36.018C69.4333 35.934 69.0883 35.823 68.7643 35.685C68.4463 35.541 68.1493 35.379 67.8733 35.199C67.6033 35.013 67.3603 34.818 67.1443 34.614L67.8283 33.669C67.9723 33.465 68.1613 33.363 68.3953 33.363C68.5453 33.363 68.6983 33.411 68.8543 33.507C69.0103 33.603 69.1873 33.708 69.3853 33.822C69.5893 33.936 69.8263 34.041 70.0963 34.137C70.3723 34.233 70.7023 34.281 71.0863 34.281C71.4943 34.281 71.8543 34.215 72.1663 34.083C72.4783 33.951 72.7363 33.768 72.9403 33.534C73.1503 33.294 73.3063 33.012 73.4083 32.688C73.5163 32.358 73.5703 32.001 73.5703 31.617C73.5703 30.909 73.3633 30.357 72.9493 29.961C72.5413 29.559 71.9353 29.358 71.1313 29.358C70.5133 29.358 69.8803 29.472 69.2323 29.7L67.8463 29.304L68.9263 22.986H75.3523V23.931C75.3523 24.249 75.2533 24.507 75.0553 24.705C74.8573 24.903 74.5213 25.002 74.0473 25.002H70.4743L70.0153 27.711ZM86.7927 29.493C86.7927 30.627 86.6697 31.614 86.4237 32.454C86.1837 33.288 85.8477 33.978 85.4157 34.524C84.9897 35.07 84.4827 35.478 83.8947 35.748C83.3127 36.012 82.6827 36.144 82.0047 36.144C81.3267 36.144 80.6967 36.012 80.1147 35.748C79.5387 35.478 79.0377 35.07 78.6117 34.524C78.1857 33.978 77.8527 33.288 77.6127 32.454C77.3727 31.614 77.2527 30.627 77.2527 29.493C77.2527 28.353 77.3727 27.366 77.6127 26.532C77.8527 25.698 78.1857 25.008 78.6117 24.462C79.0377 23.916 79.5387 23.511 80.1147 23.247C80.6967 22.977 81.3267 22.842 82.0047 22.842C82.6827 22.842 83.3127 22.977 83.8947 23.247C84.4827 23.511 84.9897 23.916 85.4157 24.462C85.8477 25.008 86.1837 25.698 86.4237 26.532C86.6697 27.366 86.7927 28.353 86.7927 29.493ZM84.4977 29.493C84.4977 28.551 84.4287 27.771 84.2907 27.153C84.1527 26.535 83.9667 26.043 83.7327 25.677C83.5047 25.311 83.2407 25.056 82.9407 24.912C82.6407 24.762 82.3287 24.687 82.0047 24.687C81.6867 24.687 81.3777 24.762 81.0777 24.912C80.7837 25.056 80.5227 25.311 80.2947 25.677C80.0667 26.043 79.8837 26.535 79.7457 27.153C79.6137 27.771 79.5477 28.551 79.5477 29.493C79.5477 30.435 79.6137 31.215 79.7457 31.833C79.8837 32.451 80.0667 32.943 80.2947 33.309C80.5227 33.675 80.7837 33.933 81.0777 34.083C81.3777 34.227 81.6867 34.299 82.0047 34.299C82.3287 34.299 82.6407 34.227 82.9407 34.083C83.2407 33.933 83.5047 33.675 83.7327 33.309C83.9667 32.943 84.1527 32.451 84.2907 31.833C84.4287 31.215 84.4977 30.435 84.4977 29.493Z" fill="#1A1615"/>
<path d="M5.4285 69.5705C5.53483 69.5705 5.61917 69.6017 5.6815 69.664C5.74383 69.7263 5.775 69.807 5.775 69.906V70.5H0.517V70.1645C0.517 70.0948 0.531667 70.0233 0.561 69.95C0.590333 69.8767 0.636167 69.8088 0.6985 69.7465L3.223 67.211C3.432 66.9983 3.62267 66.7948 3.795 66.6005C3.96733 66.4025 4.114 66.2045 4.235 66.0065C4.356 65.8085 4.4495 65.6087 4.5155 65.407C4.5815 65.2017 4.6145 64.9835 4.6145 64.7525C4.6145 64.5215 4.57783 64.3198 4.5045 64.1475C4.43117 63.9715 4.33033 63.8267 4.202 63.713C4.07733 63.5993 3.92883 63.515 3.7565 63.46C3.58417 63.4013 3.399 63.372 3.201 63.372C2.99933 63.372 2.81417 63.4013 2.6455 63.46C2.47683 63.5187 2.3265 63.6012 2.1945 63.7075C2.06617 63.8102 1.958 63.933 1.87 64.076C1.782 64.219 1.71967 64.3767 1.683 64.549C1.639 64.6773 1.5785 64.7635 1.5015 64.8075C1.42817 64.8478 1.32367 64.8588 1.188 64.8405L0.6765 64.7525C0.727833 64.3932 0.826833 64.076 0.9735 63.801C1.12383 63.5223 1.31083 63.2895 1.5345 63.1025C1.76183 62.9155 2.02033 62.7743 2.31 62.679C2.59967 62.58 2.91317 62.5305 3.2505 62.5305C3.58417 62.5305 3.89583 62.58 4.1855 62.679C4.47517 62.778 4.72633 62.9228 4.939 63.1135C5.15167 63.3005 5.3185 63.5297 5.4395 63.801C5.5605 64.0723 5.621 64.3803 5.621 64.725C5.621 65.0183 5.577 65.2915 5.489 65.5445C5.401 65.7938 5.28183 66.0322 5.1315 66.2595C4.98117 66.4868 4.807 66.7087 4.609 66.925C4.41467 67.1413 4.2075 67.3595 3.9875 67.5795L1.9085 69.7025C2.05517 69.6622 2.20367 69.631 2.354 69.609C2.50433 69.5833 2.64917 69.5705 2.7885 69.5705H5.4285ZM9.57086 69.807C9.82753 69.807 10.0567 69.7722 10.2584 69.7025C10.4637 69.6292 10.636 69.5283 10.7754 69.4C10.9184 69.268 11.0265 69.1122 11.0999 68.9325C11.1769 68.7492 11.2154 68.5475 11.2154 68.3275C11.2154 68.0562 11.1695 67.8252 11.0779 67.6345C10.9899 67.4402 10.8689 67.2825 10.7149 67.1615C10.5645 67.0405 10.3904 66.9525 10.1924 66.8975C9.99436 66.8388 9.78719 66.8095 9.57086 66.8095C9.35453 66.8095 9.14736 66.8388 8.94936 66.8975C8.75136 66.9525 8.57536 67.0405 8.42136 67.1615C8.27103 67.2825 8.15003 67.4402 8.05836 67.6345C7.97036 67.8252 7.92636 68.0562 7.92636 68.3275C7.92636 68.5475 7.96303 68.7492 8.03636 68.9325C8.11336 69.1122 8.22153 69.268 8.36086 69.4C8.50386 69.5283 8.67619 69.6292 8.87786 69.7025C9.08319 69.7722 9.31419 69.807 9.57086 69.807ZM9.57086 63.2895C9.33619 63.2895 9.12903 63.3243 8.94936 63.394C8.77336 63.4637 8.62486 63.559 8.50386 63.68C8.38653 63.801 8.29669 63.9422 8.23436 64.1035C8.17569 64.2648 8.14636 64.4372 8.14636 64.6205C8.14636 64.8002 8.17203 64.9743 8.22336 65.143C8.27469 65.3117 8.35719 65.462 8.47086 65.594C8.58453 65.7223 8.73119 65.8268 8.91086 65.9075C9.09419 65.9845 9.31419 66.023 9.57086 66.023C9.82753 66.023 10.0457 65.9845 10.2254 65.9075C10.4087 65.8268 10.5572 65.7223 10.6709 65.594C10.7845 65.462 10.867 65.3117 10.9184 65.143C10.9697 64.9743 10.9954 64.8002 10.9954 64.6205C10.9954 64.4372 10.9642 64.2648 10.9019 64.1035C10.8432 63.9422 10.7534 63.801 10.6324 63.68C10.515 63.559 10.3665 63.4637 10.1869 63.394C10.0109 63.3243 9.80553 63.2895 9.57086 63.2895ZM10.6984 66.3915C11.1897 66.5308 11.5674 66.7637 11.8314 67.09C12.0954 67.4163 12.2274 67.8343 12.2274 68.344C12.2274 68.6887 12.1614 69.0003 12.0294 69.279C11.901 69.554 11.7195 69.7887 11.4849 69.983C11.2539 70.1773 10.9752 70.3277 10.6489 70.434C10.3225 70.5367 9.96319 70.588 9.57086 70.588C9.17853 70.588 8.81919 70.5367 8.49286 70.434C8.16653 70.3277 7.88603 70.1773 7.65136 69.983C7.41669 69.7887 7.23519 69.554 7.10686 69.279C6.97853 69.0003 6.91436 68.6887 6.91436 68.344C6.91436 67.8343 7.04636 67.4163 7.31036 67.09C7.57436 66.7637 7.95203 66.5308 8.44336 66.3915C8.02903 66.2375 7.71553 66.0083 7.50286 65.704C7.29386 65.396 7.18936 65.0293 7.18936 64.604C7.18936 64.3143 7.24619 64.043 7.35986 63.79C7.47353 63.537 7.63486 63.317 7.84386 63.13C8.05286 62.943 8.30219 62.7963 8.59186 62.69C8.88519 62.5837 9.21153 62.5305 9.57086 62.5305C9.92653 62.5305 10.251 62.5837 10.5444 62.69C10.8377 62.7963 11.0889 62.943 11.2979 63.13C11.5069 63.317 11.6682 63.537 11.7819 63.79C11.8955 64.043 11.9524 64.3143 11.9524 64.604C11.9524 65.0293 11.846 65.396 11.6334 65.704C11.4244 66.0083 11.1127 66.2375 10.6984 66.3915ZM18.8117 66.562C18.8117 67.2513 18.7366 67.849 18.5862 68.355C18.4396 68.8573 18.2379 69.2735 17.9812 69.6035C17.7246 69.9335 17.4202 70.1792 17.0682 70.3405C16.7199 70.5018 16.3459 70.5825 15.9462 70.5825C15.5429 70.5825 15.1671 70.5018 14.8187 70.3405C14.4741 70.1792 14.1734 69.9335 13.9167 69.6035C13.6601 69.2735 13.4584 68.8573 13.3117 68.355C13.1651 67.849 13.0917 67.2513 13.0917 66.562C13.0917 65.8727 13.1651 65.275 13.3117 64.769C13.4584 64.263 13.6601 63.845 13.9167 63.515C14.1734 63.1813 14.4741 62.9338 14.8187 62.7725C15.1671 62.6112 15.5429 62.5305 15.9462 62.5305C16.3459 62.5305 16.7199 62.6112 17.0682 62.7725C17.4202 62.9338 17.7246 63.1813 17.9812 63.515C18.2379 63.845 18.4396 64.263 18.5862 64.769C18.7366 65.275 18.8117 65.8727 18.8117 66.562ZM17.7942 66.562C17.7942 65.9607 17.7429 65.4565 17.6402 65.0495C17.5412 64.6388 17.4056 64.3088 17.2332 64.0595C17.0646 63.8102 16.8684 63.6323 16.6447 63.526C16.4211 63.416 16.1882 63.361 15.9462 63.361C15.7042 63.361 15.4714 63.416 15.2477 63.526C15.0241 63.6323 14.8279 63.8102 14.6592 64.0595C14.4906 64.3088 14.3549 64.6388 14.2522 65.0495C14.1532 65.4565 14.1037 65.9607 14.1037 66.562C14.1037 67.1633 14.1532 67.6675 14.2522 68.0745C14.3549 68.4815 14.4906 68.8097 14.6592 69.059C14.8279 69.3083 15.0241 69.488 15.2477 69.598C15.4714 69.7043 15.7042 69.7575 15.9462 69.7575C16.1882 69.7575 16.4211 69.7043 16.6447 69.598C16.8684 69.488 17.0646 69.3083 17.2332 69.059C17.4056 68.8097 17.5412 68.4815 17.6402 68.0745C17.7429 67.6675 17.7942 67.1633 17.7942 66.562Z" fill="#66615E"/>
<path d="M5.4285 107.07C5.53483 107.07 5.61917 107.102 5.6815 107.164C5.74383 107.226 5.775 107.307 5.775 107.406V108H0.517V107.664C0.517 107.595 0.531667 107.523 0.561 107.45C0.590333 107.377 0.636167 107.309 0.6985 107.246L3.223 104.711C3.432 104.498 3.62267 104.295 3.795 104.1C3.96733 103.902 4.114 103.704 4.235 103.506C4.356 103.308 4.4495 103.109 4.5155 102.907C4.5815 102.702 4.6145 102.483 4.6145 102.252C4.6145 102.021 4.57783 101.82 4.5045 101.647C4.43117 101.471 4.33033 101.327 4.202 101.213C4.07733 101.099 3.92883 101.015 3.7565 100.96C3.58417 100.901 3.399 100.872 3.201 100.872C2.99933 100.872 2.81417 100.901 2.6455 100.96C2.47683 101.019 2.3265 101.101 2.1945 101.207C2.06617 101.31 1.958 101.433 1.87 101.576C1.782 101.719 1.71967 101.877 1.683 102.049C1.639 102.177 1.5785 102.263 1.5015 102.307C1.42817 102.348 1.32367 102.359 1.188 102.34L0.6765 102.252C0.727833 101.893 0.826833 101.576 0.9735 101.301C1.12383 101.022 1.31083 100.789 1.5345 100.602C1.76183 100.415 2.02033 100.274 2.31 100.179C2.59967 100.08 2.91317 100.03 3.2505 100.03C3.58417 100.03 3.89583 100.08 4.1855 100.179C4.47517 100.278 4.72633 100.423 4.939 100.613C5.15167 100.8 5.3185 101.03 5.4395 101.301C5.5605 101.572 5.621 101.88 5.621 102.225C5.621 102.518 5.577 102.791 5.489 103.044C5.401 103.294 5.28183 103.532 5.1315 103.759C4.98117 103.987 4.807 104.209 4.609 104.425C4.41467 104.641 4.2075 104.859 3.9875 105.079L1.9085 107.202C2.05517 107.162 2.20367 107.131 2.354 107.109C2.50433 107.083 2.64917 107.07 2.7885 107.07H5.4285ZM11.9799 107.252V108H7.75586V107.252H9.44436V101.878C9.44436 101.717 9.44986 101.554 9.46086 101.389L8.05836 102.593C8.01069 102.634 7.96303 102.659 7.91536 102.67C7.86769 102.678 7.82369 102.678 7.78336 102.67C7.74303 102.663 7.70453 102.648 7.66786 102.626C7.63486 102.604 7.60919 102.581 7.59086 102.555L7.28286 102.131L9.63136 100.102H10.4289V107.252H11.9799ZM18.8117 104.062C18.8117 104.751 18.7366 105.349 18.5862 105.855C18.4396 106.357 18.2379 106.773 17.9812 107.103C17.7246 107.433 17.4202 107.679 17.0682 107.84C16.7199 108.002 16.3459 108.083 15.9462 108.083C15.5429 108.083 15.1671 108.002 14.8187 107.84C14.4741 107.679 14.1734 107.433 13.9167 107.103C13.6601 106.773 13.4584 106.357 13.3117 105.855C13.1651 105.349 13.0917 104.751 13.0917 104.062C13.0917 103.373 13.1651 102.775 13.3117 102.269C13.4584 101.763 13.6601 101.345 13.9167 101.015C14.1734 100.681 14.4741 100.434 14.8187 100.272C15.1671 100.111 15.5429 100.03 15.9462 100.03C16.3459 100.03 16.7199 100.111 17.0682 100.272C17.4202 100.434 17.7246 100.681 17.9812 101.015C18.2379 101.345 18.4396 101.763 18.5862 102.269C18.7366 102.775 18.8117 103.373 18.8117 104.062ZM17.7942 104.062C17.7942 103.461 17.7429 102.956 17.6402 102.549C17.5412 102.139 17.4056 101.809 17.2332 101.559C17.0646 101.31 16.8684 101.132 16.6447 101.026C16.4211 100.916 16.1882 100.861 15.9462 100.861C15.7042 100.861 15.4714 100.916 15.2477 101.026C15.0241 101.132 14.8279 101.31 14.6592 101.559C14.4906 101.809 14.3549 102.139 14.2522 102.549C14.1532 102.956 14.1037 103.461 14.1037 104.062C14.1037 104.663 14.1532 105.167 14.2522 105.574C14.3549 105.981 14.4906 106.31 14.6592 106.559C14.8279 106.808 15.0241 106.988 15.2477 107.098C15.4714 107.204 15.7042 107.257 15.9462 107.257C16.1882 107.257 16.4211 107.204 16.6447 107.098C16.8684 106.988 17.0646 106.808 17.2332 106.559C17.4056 106.31 17.5412 105.981 17.6402 105.574C17.7429 105.167 17.7942 104.663 17.7942 104.062Z" fill="#66615E"/>
<path d="M5.599 144.752V145.5H1.375V144.752H3.0635V139.378C3.0635 139.217 3.069 139.054 3.08 138.889L1.6775 140.093C1.62983 140.134 1.58217 140.159 1.5345 140.17C1.48683 140.178 1.44283 140.178 1.4025 140.17C1.36217 140.163 1.32367 140.148 1.287 140.126C1.254 140.104 1.22833 140.081 1.21 140.055L0.902 139.631L3.2505 137.602H4.048V144.752H5.599ZM10.3959 142.656V139.406C10.3959 139.311 10.3995 139.206 10.4069 139.092C10.4142 138.979 10.4252 138.863 10.4399 138.746L7.56886 142.656H10.3959ZM12.4474 142.656V143.217C12.4474 143.276 12.429 143.326 12.3924 143.366C12.3594 143.406 12.3062 143.426 12.2329 143.426H11.2539V145.5H10.3959V143.426H6.89786C6.82453 143.426 6.76036 143.406 6.70536 143.366C6.65403 143.322 6.62103 143.269 6.60636 143.206L6.50736 142.706L10.3409 137.618H11.2539V142.656H12.4474ZM18.8117 141.562C18.8117 142.251 18.7366 142.849 18.5862 143.355C18.4396 143.857 18.2379 144.273 17.9812 144.603C17.7246 144.933 17.4202 145.179 17.0682 145.34C16.7199 145.502 16.3459 145.583 15.9462 145.583C15.5429 145.583 15.1671 145.502 14.8187 145.34C14.4741 145.179 14.1734 144.933 13.9167 144.603C13.6601 144.273 13.4584 143.857 13.3117 143.355C13.1651 142.849 13.0917 142.251 13.0917 141.562C13.0917 140.873 13.1651 140.275 13.3117 139.769C13.4584 139.263 13.6601 138.845 13.9167 138.515C14.1734 138.181 14.4741 137.934 14.8187 137.772C15.1671 137.611 15.5429 137.53 15.9462 137.53C16.3459 137.53 16.7199 137.611 17.0682 137.772C17.4202 137.934 17.7246 138.181 17.9812 138.515C18.2379 138.845 18.4396 139.263 18.5862 139.769C18.7366 140.275 18.8117 140.873 18.8117 141.562ZM17.7942 141.562C17.7942 140.961 17.7429 140.456 17.6402 140.049C17.5412 139.639 17.4056 139.309 17.2332 139.059C17.0646 138.81 16.8684 138.632 16.6447 138.526C16.4211 138.416 16.1882 138.361 15.9462 138.361C15.7042 138.361 15.4714 138.416 15.2477 138.526C15.0241 138.632 14.8279 138.81 14.6592 139.059C14.4906 139.309 14.3549 139.639 14.2522 140.049C14.1532 140.456 14.1037 140.961 14.1037 141.562C14.1037 142.163 14.1532 142.667 14.2522 143.074C14.3549 143.481 14.4906 143.81 14.6592 144.059C14.8279 144.308 15.0241 144.488 15.2477 144.598C15.4714 144.704 15.7042 144.757 15.9462 144.757C16.1882 144.757 16.4211 144.704 16.6447 144.598C16.8684 144.488 17.0646 144.308 17.2332 144.059C17.4056 143.81 17.5412 143.481 17.6402 143.074C17.7429 142.667 17.7942 142.163 17.7942 141.562Z" fill="#66615E"/>
<path d="M5.9455 175.118V175.558C5.9455 175.683 5.93083 175.786 5.9015 175.866C5.87583 175.947 5.85017 176.015 5.8245 176.07L2.5575 182.653C2.50983 182.749 2.44383 182.831 2.3595 182.901C2.27517 182.967 2.16333 183 2.024 183H1.32L4.631 176.499C4.67867 176.407 4.72817 176.323 4.7795 176.246C4.83083 176.169 4.88583 176.096 4.9445 176.026H0.8305C0.768167 176.026 0.713167 176.002 0.6655 175.954C0.617833 175.903 0.594 175.846 0.594 175.784V175.118H5.9455ZM12.4309 179.062C12.4309 179.751 12.3557 180.349 12.2054 180.855C12.0587 181.357 11.857 181.773 11.6004 182.103C11.3437 182.433 11.0394 182.679 10.6874 182.84C10.339 183.002 9.96503 183.083 9.56536 183.083C9.16203 183.083 8.78619 183.002 8.43786 182.84C8.09319 182.679 7.79253 182.433 7.53586 182.103C7.27919 181.773 7.07753 181.357 6.93086 180.855C6.78419 180.349 6.71086 179.751 6.71086 179.062C6.71086 178.373 6.78419 177.775 6.93086 177.269C7.07753 176.763 7.27919 176.345 7.53586 176.015C7.79253 175.681 8.09319 175.434 8.43786 175.272C8.78619 175.111 9.16203 175.03 9.56536 175.03C9.96503 175.03 10.339 175.111 10.6874 175.272C11.0394 175.434 11.3437 175.681 11.6004 176.015C11.857 176.345 12.0587 176.763 12.2054 177.269C12.3557 177.775 12.4309 178.373 12.4309 179.062ZM11.4134 179.062C11.4134 178.461 11.362 177.956 11.2594 177.549C11.1604 177.139 11.0247 176.809 10.8524 176.559C10.6837 176.31 10.4875 176.132 10.2639 176.026C10.0402 175.916 9.80736 175.861 9.56536 175.861C9.32336 175.861 9.09053 175.916 8.86686 176.026C8.64319 176.132 8.44703 176.31 8.27836 176.559C8.10969 176.809 7.97403 177.139 7.87136 177.549C7.77236 177.956 7.72286 178.461 7.72286 179.062C7.72286 179.663 7.77236 180.167 7.87136 180.574C7.97403 180.981 8.10969 181.31 8.27836 181.559C8.44703 181.808 8.64319 181.988 8.86686 182.098C9.09053 182.204 9.32336 182.257 9.56536 182.257C9.80736 182.257 10.0402 182.204 10.2639 182.098C10.4875 181.988 10.6837 181.808 10.8524 181.559C11.0247 181.31 11.1604 180.981 11.2594 180.574C11.362 180.167 11.4134 179.663 11.4134 179.062Z" fill="#66615E"/>
<path d="M6.05 216.562C6.05 217.251 5.97483 217.849 5.8245 218.355C5.67783 218.857 5.47617 219.273 5.2195 219.603C4.96283 219.933 4.6585 220.179 4.3065 220.34C3.95817 220.502 3.58417 220.583 3.1845 220.583C2.78117 220.583 2.40533 220.502 2.057 220.34C1.71233 220.179 1.41167 219.933 1.155 219.603C0.898333 219.273 0.696667 218.857 0.55 218.355C0.403333 217.849 0.33 217.251 0.33 216.562C0.33 215.873 0.403333 215.275 0.55 214.769C0.696667 214.263 0.898333 213.845 1.155 213.515C1.41167 213.181 1.71233 212.934 2.057 212.772C2.40533 212.611 2.78117 212.53 3.1845 212.53C3.58417 212.53 3.95817 212.611 4.3065 212.772C4.6585 212.934 4.96283 213.181 5.2195 213.515C5.47617 213.845 5.67783 214.263 5.8245 214.769C5.97483 215.275 6.05 215.873 6.05 216.562ZM5.0325 216.562C5.0325 215.961 4.98117 215.456 4.8785 215.049C4.7795 214.639 4.64383 214.309 4.4715 214.059C4.30283 213.81 4.10667 213.632 3.883 213.526C3.65933 213.416 3.4265 213.361 3.1845 213.361C2.9425 213.361 2.70967 213.416 2.486 213.526C2.26233 213.632 2.06617 213.81 1.8975 214.059C1.72883 214.309 1.59317 214.639 1.4905 215.049C1.3915 215.456 1.342 215.961 1.342 216.562C1.342 217.163 1.3915 217.667 1.4905 218.074C1.59317 218.481 1.72883 218.81 1.8975 219.059C2.06617 219.308 2.26233 219.488 2.486 219.598C2.70967 219.704 2.9425 219.757 3.1845 219.757C3.4265 219.757 3.65933 219.704 3.883 219.598C4.10667 219.488 4.30283 219.308 4.4715 219.059C4.64383 218.81 4.7795 218.481 4.8785 218.074C4.98117 217.667 5.0325 217.163 5.0325 216.562Z" fill="#66615E"/>
<path d="M28 66.5H101.143" stroke="#E4E2DD" stroke-linecap="round" stroke-linejoin="round"/>
<path d="M28 104H101.143" stroke="#E4E2DD" stroke-linecap="round" stroke-linejoin="round"/>
<path d="M28 141.5H101.143" stroke="#E4E2DD" stroke-linecap="round" stroke-linejoin="round"/>
<path d="M28 179H101.143" stroke="#E4E2DD" stroke-linecap="round" stroke-linejoin="round"/>
<path d="M28 216.5H101.143" stroke="#E4E2DD" stroke-linecap="round" stroke-linejoin="round"/>
<g clip-path="url(#clip0_551_7117)">
<rect x="40" y="102" width="49.1429" height="82" rx="12" fill="#FCD3DF"/>
<path d="M40 184C40 183.448 40.4477 183 41 183H88.1429C88.6951 183 89.1429 183.448 89.1429 184H40Z" fill="#FCD3DF"/>
</g>
<rect x="40" y="188" width="49.1429" height="29" rx="12" fill="#A83F98"/>
<path d="M60.2759 238.777C60.2759 239.217 60.2209 239.612 60.1109 239.96C60.0046 240.308 59.8451 240.603 59.6324 240.845C59.4234 241.084 59.1649 241.267 58.8569 241.395C58.5489 241.524 58.1951 241.588 57.7954 241.588C57.4324 241.588 57.0621 241.537 56.6844 241.434C56.6917 241.328 56.7009 241.223 56.7119 241.12C56.7229 241.014 56.7321 240.91 56.7394 240.807C56.7467 240.745 56.7687 240.695 56.8054 240.658C56.8457 240.618 56.9062 240.598 56.9869 240.598C57.0529 240.598 57.1391 240.614 57.2454 240.647C57.3554 240.68 57.5021 240.697 57.6854 240.697C57.9274 240.697 58.1437 240.66 58.3344 240.587C58.5251 240.514 58.6846 240.4 58.8129 240.246C58.9412 240.092 59.0384 239.896 59.1044 239.657C59.1741 239.415 59.2089 239.129 59.2089 238.799V233.618H60.2759V238.777ZM64.7839 238.992C64.3329 239.007 63.9479 239.043 63.6289 239.102C63.3136 239.157 63.0551 239.23 62.8534 239.322C62.6554 239.414 62.5106 239.522 62.4189 239.646C62.3309 239.771 62.2869 239.91 62.2869 240.064C62.2869 240.211 62.3107 240.338 62.3584 240.444C62.4061 240.55 62.4702 240.638 62.5509 240.708C62.6352 240.774 62.7324 240.823 62.8424 240.856C62.9561 240.886 63.0771 240.9 63.2054 240.9C63.3777 240.9 63.5354 240.884 63.6784 240.851C63.8214 240.814 63.9552 240.763 64.0799 240.697C64.2082 240.631 64.3292 240.552 64.4429 240.46C64.5602 240.369 64.6739 240.264 64.7839 240.147V238.992ZM61.6214 236.715C61.9294 236.418 62.2612 236.196 62.6169 236.049C62.9726 235.903 63.3667 235.829 63.7994 235.829C64.1111 235.829 64.3879 235.881 64.6299 235.983C64.8719 236.086 65.0754 236.229 65.2404 236.412C65.4054 236.596 65.5301 236.818 65.6144 237.078C65.6987 237.338 65.7409 237.624 65.7409 237.936V241.5H65.3064C65.2111 241.5 65.1377 241.485 65.0864 241.456C65.0351 241.423 64.9947 241.361 64.9654 241.269L64.8554 240.741C64.7087 240.877 64.5657 240.998 64.4264 241.104C64.2871 241.207 64.1404 241.295 63.9864 241.368C63.8324 241.438 63.6674 241.491 63.4914 241.528C63.3191 241.568 63.1266 241.588 62.9139 241.588C62.6976 241.588 62.4941 241.559 62.3034 241.5C62.1127 241.438 61.9459 241.346 61.8029 241.225C61.6636 241.104 61.5517 240.952 61.4674 240.768C61.3867 240.581 61.3464 240.361 61.3464 240.108C61.3464 239.888 61.4069 239.678 61.5279 239.476C61.6489 239.271 61.8451 239.089 62.1164 238.931C62.3877 238.774 62.7416 238.645 63.1779 238.546C63.6142 238.444 64.1496 238.385 64.7839 238.37V237.936C64.7839 237.503 64.6904 237.177 64.5034 236.957C64.3164 236.733 64.0432 236.621 63.6839 236.621C63.4419 236.621 63.2384 236.653 63.0734 236.715C62.9121 236.774 62.7709 236.841 62.6499 236.918C62.5326 236.992 62.4299 237.06 62.3419 237.122C62.2576 237.181 62.1732 237.21 62.0889 237.21C62.0229 237.21 61.9661 237.193 61.9184 237.16C61.8707 237.124 61.8304 237.08 61.7974 237.028L61.6214 236.715ZM68.1562 236.737C68.2772 236.601 68.4055 236.478 68.5412 236.368C68.6769 236.258 68.8199 236.165 68.9702 236.088C69.1242 236.007 69.2855 235.947 69.4542 235.906C69.6265 235.862 69.8117 235.84 70.0097 235.84C70.314 235.84 70.5817 235.892 70.8127 235.994C71.0474 236.093 71.2417 236.236 71.3957 236.423C71.5534 236.607 71.6725 236.829 71.7532 237.089C71.8339 237.349 71.8742 237.637 71.8742 237.952V241.5H70.8897V237.952C70.8897 237.531 70.7925 237.204 70.5982 236.973C70.4075 236.739 70.116 236.621 69.7237 236.621C69.434 236.621 69.1627 236.691 68.9097 236.83C68.6604 236.97 68.4294 237.159 68.2167 237.397V241.5H67.2322V235.928H67.8207C67.96 235.928 68.0462 235.996 68.0792 236.132L68.1562 236.737Z" fill="#66615E"/>
<path d="M101.143 66.5H174.285" stroke="#E4E2DD" stroke-linecap="round" stroke-linejoin="round"/>
<path d="M101.143 104H174.285" stroke="#E4E2DD" stroke-linecap="round" stroke-linejoin="round"/>
<path d="M101.143 141.5H174.285" stroke="#E4E2DD" stroke-linecap="round" stroke-linejoin="round"/>
<path d="M101.143 179H174.285" stroke="#E4E2DD" stroke-linecap="round" stroke-linejoin="round"/>
<path d="M101.143 216.5H174.285" stroke="#E4E2DD" stroke-linecap="round" stroke-linejoin="round"/>
<g clip-path="url(#clip1_551_7117)">
<rect x="113.143" y="85" width="49.1429" height="79" rx="12" fill="#FCD3DF"/>
<path d="M113.143 164C113.143 163.448 113.59 163 114.143 163H161.285C161.838 163 162.285 163.448 162.285 164H113.143Z" fill="#FCD3DF"/>
</g>
<rect x="113.143" y="168" width="49.1429" height="49" rx="12" fill="#A83F98"/>
<path d="M130.936 234.487V237.243H134.175V238.112H130.936V241.5H129.869V233.618H134.725V234.487H130.936ZM139.103 238.106C139.103 237.879 139.07 237.672 139.004 237.485C138.942 237.294 138.848 237.131 138.724 236.995C138.603 236.856 138.454 236.75 138.278 236.676C138.102 236.599 137.902 236.561 137.679 236.561C137.209 236.561 136.837 236.698 136.562 236.973C136.291 237.245 136.122 237.622 136.056 238.106H139.103ZM139.895 240.719C139.774 240.866 139.629 240.994 139.461 241.104C139.292 241.21 139.111 241.298 138.916 241.368C138.726 241.438 138.528 241.489 138.322 241.522C138.117 241.559 137.913 241.577 137.712 241.577C137.327 241.577 136.971 241.513 136.645 241.384C136.322 241.252 136.042 241.062 135.803 240.812C135.569 240.559 135.385 240.248 135.253 239.877C135.121 239.507 135.055 239.082 135.055 238.601C135.055 238.213 135.114 237.85 135.231 237.512C135.352 237.175 135.525 236.884 135.748 236.638C135.972 236.389 136.245 236.194 136.568 236.055C136.89 235.912 137.253 235.84 137.657 235.84C137.99 235.84 138.298 235.897 138.581 236.011C138.867 236.121 139.112 236.282 139.318 236.495C139.527 236.704 139.69 236.964 139.807 237.276C139.925 237.584 139.983 237.936 139.983 238.332C139.983 238.486 139.967 238.589 139.934 238.64C139.901 238.691 139.838 238.717 139.747 238.717H136.023C136.034 239.069 136.082 239.375 136.166 239.635C136.254 239.896 136.375 240.114 136.529 240.29C136.683 240.462 136.867 240.592 137.079 240.68C137.292 240.765 137.53 240.807 137.794 240.807C138.04 240.807 138.251 240.779 138.427 240.724C138.606 240.666 138.76 240.603 138.889 240.537C139.017 240.471 139.123 240.411 139.208 240.356C139.296 240.297 139.371 240.268 139.433 240.268C139.514 240.268 139.576 240.299 139.62 240.361L139.895 240.719ZM142.17 240.158C142.35 240.4 142.546 240.57 142.759 240.669C142.975 240.768 143.212 240.818 143.468 240.818C143.993 240.818 144.394 240.633 144.673 240.262C144.951 239.892 145.091 239.34 145.091 238.607C145.091 237.925 144.966 237.424 144.717 237.105C144.471 236.783 144.119 236.621 143.661 236.621C143.342 236.621 143.063 236.695 142.825 236.841C142.59 236.988 142.372 237.195 142.17 237.463V240.158ZM142.17 236.731C142.405 236.46 142.669 236.244 142.962 236.082C143.259 235.921 143.6 235.84 143.985 235.84C144.312 235.84 144.605 235.903 144.865 236.027C145.129 236.152 145.353 236.334 145.536 236.572C145.72 236.807 145.859 237.093 145.954 237.43C146.053 237.767 146.103 238.147 146.103 238.568C146.103 239.019 146.048 239.43 145.938 239.8C145.828 240.171 145.668 240.488 145.459 240.752C145.254 241.012 145.003 241.216 144.706 241.362C144.409 241.506 144.075 241.577 143.705 241.577C143.338 241.577 143.028 241.509 142.775 241.373C142.526 241.234 142.308 241.038 142.121 240.785L142.071 241.291C142.042 241.43 141.958 241.5 141.818 241.5H141.186V233.398H142.17V236.731Z" fill="#66615E"/>
<rect x="174.285" y="60" width="73.1429" height="188" rx="6" fill="#FAFAF8"/>
<path d="M174.285 66.5H247.428" stroke="#E4E2DD" stroke-linecap="round" stroke-linejoin="round"/>
<path d="M174.285 104H247.428" stroke="#E4E2DD" stroke-linecap="round" stroke-linejoin="round"/>
<path d="M174.285 141.5H247.428" stroke="#E4E2DD" stroke-linecap="round" stroke-linejoin="round"/>
<path d="M174.285 179H247.428" stroke="#E4E2DD" stroke-linecap="round" stroke-linejoin="round"/>
<path d="M174.285 216.5H247.428" stroke="#E4E2DD" stroke-linecap="round" stroke-linejoin="round"/>
<g clip-path="url(#clip2_551_7117)">
<rect x="186.285" y="75" width="49.1429" height="79" rx="12" fill="#F5B7CA"/>
<path d="M186.285 154C186.285 153.448 186.733 153 187.285 153H234.428C234.98 153 235.428 153.448 235.428 154H186.285Z" fill="#F5B7CA"/>
</g>
<rect x="186.285" y="158" width="49.1429" height="59" rx="12" fill="#51004F"/>
<path d="M210.299 233.618V241.5H209.364V235.708C209.364 235.631 209.366 235.549 209.369 235.461C209.377 235.373 209.384 235.283 209.391 235.191L206.685 240.119C206.601 240.284 206.473 240.367 206.3 240.367H206.146C205.974 240.367 205.846 240.284 205.761 240.119L203 235.169C203.022 235.364 203.033 235.543 203.033 235.708V241.5H202.098V233.618H202.885C202.98 233.618 203.054 233.628 203.105 233.646C203.156 233.664 203.206 233.716 203.253 233.8L205.976 238.651C206.02 238.739 206.062 238.831 206.102 238.926C206.146 239.021 206.187 239.118 206.223 239.217C206.26 239.118 206.299 239.021 206.339 238.926C206.379 238.827 206.423 238.733 206.471 238.645L209.144 233.8C209.188 233.716 209.236 233.664 209.287 233.646C209.342 233.628 209.417 233.618 209.512 233.618H210.299ZM214.942 238.992C214.491 239.007 214.106 239.043 213.787 239.102C213.471 239.157 213.213 239.23 213.011 239.322C212.813 239.414 212.668 239.522 212.577 239.646C212.489 239.771 212.445 239.91 212.445 240.064C212.445 240.211 212.468 240.338 212.516 240.444C212.564 240.55 212.628 240.638 212.709 240.708C212.793 240.774 212.89 240.823 213 240.856C213.114 240.886 213.235 240.9 213.363 240.9C213.535 240.9 213.693 240.884 213.836 240.851C213.979 240.814 214.113 240.763 214.238 240.697C214.366 240.631 214.487 240.552 214.601 240.46C214.718 240.369 214.832 240.264 214.942 240.147V238.992ZM211.779 236.715C212.087 236.418 212.419 236.196 212.775 236.049C213.13 235.903 213.524 235.829 213.957 235.829C214.269 235.829 214.546 235.881 214.788 235.983C215.03 236.086 215.233 236.229 215.398 236.412C215.563 236.596 215.688 236.818 215.772 237.078C215.856 237.338 215.899 237.624 215.899 237.936V241.5H215.464C215.369 241.5 215.295 241.485 215.244 241.456C215.193 241.423 215.152 241.361 215.123 241.269L215.013 240.741C214.866 240.877 214.723 240.998 214.584 241.104C214.445 241.207 214.298 241.295 214.144 241.368C213.99 241.438 213.825 241.491 213.649 241.528C213.477 241.568 213.284 241.588 213.072 241.588C212.855 241.588 212.652 241.559 212.461 241.5C212.27 241.438 212.104 241.346 211.961 241.225C211.821 241.104 211.709 240.952 211.625 240.768C211.544 240.581 211.504 240.361 211.504 240.108C211.504 239.888 211.565 239.678 211.686 239.476C211.807 239.271 212.003 239.089 212.274 238.931C212.545 238.774 212.899 238.645 213.336 238.546C213.772 238.444 214.307 238.385 214.942 238.37V237.936C214.942 237.503 214.848 237.177 214.661 236.957C214.474 236.733 214.201 236.621 213.842 236.621C213.6 236.621 213.396 236.653 213.231 236.715C213.07 236.774 212.929 236.841 212.808 236.918C212.69 236.992 212.588 237.06 212.5 237.122C212.415 237.181 212.331 237.21 212.247 237.21C212.181 237.21 212.124 237.193 212.076 237.16C212.028 237.124 211.988 237.08 211.955 237.028L211.779 236.715ZM218.319 237.045C218.495 236.664 218.712 236.367 218.968 236.154C219.225 235.938 219.539 235.829 219.909 235.829C220.026 235.829 220.138 235.842 220.244 235.868C220.354 235.894 220.452 235.934 220.536 235.989L220.464 236.72C220.442 236.812 220.387 236.858 220.299 236.858C220.248 236.858 220.173 236.847 220.074 236.825C219.975 236.803 219.863 236.792 219.738 236.792C219.562 236.792 219.405 236.818 219.265 236.869C219.13 236.92 219.007 236.997 218.897 237.1C218.791 237.199 218.693 237.324 218.605 237.474C218.521 237.621 218.444 237.789 218.374 237.98V241.5H217.39V235.928H217.951C218.057 235.928 218.131 235.949 218.171 235.989C218.211 236.029 218.239 236.099 218.253 236.198L218.319 237.045Z" fill="#66615E"/>
<path d="M247.428 66.5H320.571" stroke="#E4E2DD" stroke-linecap="round" stroke-linejoin="round"/>
<path d="M247.428 104H320.571" stroke="#E4E2DD" stroke-linecap="round" stroke-linejoin="round"/>
<path d="M247.428 141.5H320.571" stroke="#E4E2DD" stroke-linecap="round" stroke-linejoin="round"/>
<path d="M247.428 179H320.571" stroke="#E4E2DD" stroke-linecap="round" stroke-linejoin="round"/>
<path d="M247.428 216.5H320.571" stroke="#E4E2DD" stroke-linecap="round" stroke-linejoin="round"/>
<g clip-path="url(#clip3_551_7117)">
<rect x="259.428" y="80" width="49.1429" height="79" rx="12" fill="#FCD3DF"/>
<path d="M259.428 159C259.428 158.448 259.875 158 260.428 158H307.571C308.123 158 308.571 158.448 308.571 159H259.428Z" fill="#FCD3DF"/>
</g>
<rect x="259.428" y="163" width="49.1429" height="54" rx="12" fill="#A83F98"/>
<path d="M280.393 238.574L279.156 235.367C279.119 235.272 279.081 235.162 279.04 235.037C279 234.909 278.961 234.773 278.925 234.63C278.848 234.927 278.769 235.175 278.688 235.373L277.451 238.574H280.393ZM282.615 241.5H281.79C281.695 241.5 281.618 241.476 281.559 241.428C281.501 241.381 281.457 241.32 281.427 241.247L280.69 239.344H277.154L276.417 241.247C276.395 241.313 276.353 241.372 276.29 241.423C276.228 241.474 276.151 241.5 276.059 241.5H275.234L278.386 233.618H279.464L282.615 241.5ZM284.384 240.158C284.564 240.4 284.76 240.57 284.973 240.669C285.185 240.768 285.424 240.818 285.688 240.818C286.208 240.818 286.608 240.633 286.887 240.262C287.165 239.892 287.305 239.364 287.305 238.678C287.305 238.315 287.272 238.004 287.206 237.743C287.143 237.483 287.052 237.27 286.931 237.105C286.81 236.937 286.661 236.814 286.485 236.737C286.309 236.66 286.109 236.621 285.886 236.621C285.567 236.621 285.286 236.695 285.044 236.841C284.806 236.988 284.586 237.195 284.384 237.463V240.158ZM284.335 236.792C284.569 236.502 284.841 236.269 285.149 236.093C285.457 235.917 285.809 235.829 286.205 235.829C286.527 235.829 286.819 235.892 287.079 236.016C287.339 236.137 287.561 236.319 287.745 236.561C287.928 236.799 288.069 237.096 288.168 237.452C288.267 237.808 288.317 238.216 288.317 238.678C288.317 239.089 288.262 239.472 288.152 239.828C288.042 240.18 287.882 240.486 287.673 240.746C287.468 241.003 287.215 241.207 286.914 241.357C286.617 241.504 286.282 241.577 285.908 241.577C285.567 241.577 285.273 241.52 285.028 241.406C284.786 241.289 284.571 241.128 284.384 240.922V243.387H283.4V235.928H283.988C284.127 235.928 284.214 235.996 284.247 236.132L284.335 236.792ZM290.495 237.045C290.671 236.664 290.888 236.367 291.144 236.154C291.401 235.938 291.714 235.829 292.085 235.829C292.202 235.829 292.314 235.842 292.42 235.868C292.53 235.894 292.627 235.934 292.712 235.989L292.64 236.72C292.618 236.812 292.563 236.858 292.475 236.858C292.424 236.858 292.349 236.847 292.25 236.825C292.151 236.803 292.039 236.792 291.914 236.792C291.738 236.792 291.581 236.818 291.441 236.869C291.306 236.92 291.183 236.997 291.073 237.1C290.966 237.199 290.869 237.324 290.781 237.474C290.697 237.621 290.62 237.789 290.55 237.98V241.5H289.566V235.928H290.127C290.233 235.928 290.306 235.949 290.347 235.989C290.387 236.029 290.415 236.099 290.429 236.198L290.495 237.045Z" fill="#66615E"/>
<path d="M320.572 66.5H393.715" stroke="#E4E2DD" stroke-linecap="round" stroke-linejoin="round"/>
<path d="M320.572 104H393.715" stroke="#E4E2DD" stroke-linecap="round" stroke-linejoin="round"/>
<path d="M320.572 141.5H393.715" stroke="#E4E2DD" stroke-linecap="round" stroke-linejoin="round"/>
<path d="M320.572 179H393.715" stroke="#E4E2DD" stroke-linecap="round" stroke-linejoin="round"/>
<path d="M320.572 216.5H393.715" stroke="#E4E2DD" stroke-linecap="round" stroke-linejoin="round"/>
<g clip-path="url(#clip4_551_7117)">
<rect x="332.572" y="94" width="49.1429" height="79" rx="12" fill="#FCD3DF"/>
<path d="M332.572 173C332.572 172.448 333.02 172 333.572 172H380.715C381.267 172 381.715 172.448 381.715 173H332.572Z" fill="#FCD3DF"/>
</g>
<rect x="332.572" y="177" width="49.1429" height="40" rx="12" fill="#A83F98"/>
<path d="M355.818 233.618V241.5H354.883V235.708C354.883 235.631 354.885 235.549 354.888 235.461C354.896 235.373 354.903 235.283 354.91 235.191L352.204 240.119C352.12 240.284 351.992 240.367 351.819 240.367H351.665C351.493 240.367 351.365 240.284 351.28 240.119L348.519 235.169C348.541 235.364 348.552 235.543 348.552 235.708V241.5H347.617V233.618H348.404C348.499 233.618 348.573 233.628 348.624 233.646C348.675 233.664 348.725 233.716 348.772 233.8L351.495 238.651C351.539 238.739 351.581 238.831 351.621 238.926C351.665 239.021 351.706 239.118 351.742 239.217C351.779 239.118 351.818 239.021 351.858 238.926C351.898 238.827 351.942 238.733 351.99 238.645L354.663 233.8C354.707 233.716 354.755 233.664 354.806 233.646C354.861 233.628 354.936 233.618 355.031 233.618H355.818ZM360.461 238.992C360.01 239.007 359.625 239.043 359.306 239.102C358.99 239.157 358.732 239.23 358.53 239.322C358.332 239.414 358.187 239.522 358.096 239.646C358.008 239.771 357.964 239.91 357.964 240.064C357.964 240.211 357.988 240.338 358.035 240.444C358.083 240.55 358.147 240.638 358.228 240.708C358.312 240.774 358.409 240.823 358.519 240.856C358.633 240.886 358.754 240.9 358.882 240.9C359.055 240.9 359.212 240.884 359.355 240.851C359.498 240.814 359.632 240.763 359.757 240.697C359.885 240.631 360.006 240.552 360.12 240.46C360.237 240.369 360.351 240.264 360.461 240.147V238.992ZM357.298 236.715C357.606 236.418 357.938 236.196 358.294 236.049C358.649 235.903 359.044 235.829 359.476 235.829C359.788 235.829 360.065 235.881 360.307 235.983C360.549 236.086 360.752 236.229 360.917 236.412C361.082 236.596 361.207 236.818 361.291 237.078C361.376 237.338 361.418 237.624 361.418 237.936V241.5H360.983C360.888 241.5 360.815 241.485 360.763 241.456C360.712 241.423 360.672 241.361 360.642 241.269L360.532 240.741C360.386 240.877 360.243 240.998 360.103 241.104C359.964 241.207 359.817 241.295 359.663 241.368C359.509 241.438 359.344 241.491 359.168 241.528C358.996 241.568 358.803 241.588 358.591 241.588C358.374 241.588 358.171 241.559 357.98 241.5C357.79 241.438 357.623 241.346 357.48 241.225C357.34 241.104 357.229 240.952 357.144 240.768C357.064 240.581 357.023 240.361 357.023 240.108C357.023 239.888 357.084 239.678 357.205 239.476C357.326 239.271 357.522 239.089 357.793 238.931C358.065 238.774 358.418 238.645 358.855 238.546C359.291 238.444 359.826 238.385 360.461 238.37V237.936C360.461 237.503 360.367 237.177 360.18 236.957C359.993 236.733 359.72 236.621 359.361 236.621C359.119 236.621 358.915 236.653 358.75 236.715C358.589 236.774 358.448 236.841 358.327 236.918C358.209 236.992 358.107 237.06 358.019 237.122C357.934 237.181 357.85 237.21 357.766 237.21C357.7 237.21 357.643 237.193 357.595 237.16C357.548 237.124 357.507 237.08 357.474 237.028L357.298 236.715ZM367.587 235.928L364.48 243.145C364.447 243.218 364.404 243.277 364.353 243.321C364.305 243.365 364.23 243.387 364.128 243.387H363.402L364.419 241.175L362.12 235.928H362.967C363.051 235.928 363.117 235.95 363.165 235.994C363.216 236.035 363.251 236.081 363.27 236.132L364.76 239.641C364.819 239.795 364.868 239.956 364.909 240.125C364.96 239.953 365.015 239.789 365.074 239.635L366.52 236.132C366.542 236.073 366.579 236.026 366.63 235.989C366.685 235.949 366.746 235.928 366.812 235.928H367.587Z" fill="#66615E"/>
<path d="M393.715 66.5H466.858" stroke="#E4E2DD" stroke-linecap="round" stroke-linejoin="round"/>
<path d="M393.715 104H466.858" stroke="#E4E2DD" stroke-linecap="round" stroke-linejoin="round"/>
<path d="M393.715 141.5H466.858" stroke="#E4E2DD" stroke-linecap="round" stroke-linejoin="round"/>
<path d="M393.715 179H466.858" stroke="#E4E2DD" stroke-linecap="round" stroke-linejoin="round"/>
<path d="M393.715 216.5H466.858" stroke="#E4E2DD" stroke-linecap="round" stroke-linejoin="round"/>
<g clip-path="url(#clip5_551_7117)">
<rect x="405.715" y="85" width="49.1429" height="70" rx="12" fill="#FCD3DF"/>
<path d="M405.715 155C405.715 154.448 406.163 154 406.715 154H453.858C454.41 154 454.858 154.448 454.858 155H405.715Z" fill="#FCD3DF"/>
</g>
<rect x="405.715" y="159" width="49.1429" height="58" rx="12" fill="#A83F98"/>
<path d="M425.626 238.777C425.626 239.217 425.571 239.612 425.461 239.96C425.354 240.308 425.195 240.603 424.982 240.845C424.773 241.084 424.515 241.267 424.207 241.395C423.899 241.524 423.545 241.588 423.145 241.588C422.782 241.588 422.412 241.537 422.034 241.434C422.041 241.328 422.051 241.223 422.062 241.12C422.073 241.014 422.082 240.91 422.089 240.807C422.096 240.745 422.118 240.695 422.155 240.658C422.195 240.618 422.256 240.598 422.337 240.598C422.403 240.598 422.489 240.614 422.595 240.647C422.705 240.68 422.852 240.697 423.035 240.697C423.277 240.697 423.493 240.66 423.684 240.587C423.875 240.514 424.034 240.4 424.163 240.246C424.291 240.092 424.388 239.896 424.454 239.657C424.524 239.415 424.559 239.129 424.559 238.799V233.618H425.626V238.777ZM431.76 235.928V241.5H431.177C431.038 241.5 430.95 241.432 430.913 241.296L430.836 240.697C430.594 240.965 430.323 241.181 430.022 241.346C429.721 241.507 429.377 241.588 428.988 241.588C428.684 241.588 428.414 241.539 428.179 241.439C427.948 241.337 427.754 241.194 427.596 241.01C427.439 240.827 427.32 240.605 427.239 240.345C427.162 240.085 427.123 239.797 427.123 239.481V235.928H428.102V239.481C428.102 239.903 428.198 240.229 428.388 240.46C428.583 240.691 428.878 240.807 429.274 240.807C429.564 240.807 429.833 240.739 430.082 240.603C430.335 240.464 430.568 240.273 430.781 240.031V235.928H431.76ZM434.236 236.737C434.357 236.601 434.486 236.478 434.621 236.368C434.757 236.258 434.9 236.165 435.05 236.088C435.204 236.007 435.366 235.947 435.534 235.906C435.707 235.862 435.892 235.84 436.09 235.84C436.394 235.84 436.662 235.892 436.893 235.994C437.127 236.093 437.322 236.236 437.476 236.423C437.633 236.607 437.753 236.829 437.833 237.089C437.914 237.349 437.954 237.637 437.954 237.952V241.5H436.97V237.952C436.97 237.531 436.873 237.204 436.678 236.973C436.488 236.739 436.196 236.621 435.804 236.621C435.514 236.621 435.243 236.691 434.99 236.83C434.74 236.97 434.509 237.159 434.297 237.397V241.5H433.312V235.928H433.901C434.04 235.928 434.126 235.996 434.159 236.132L434.236 236.737Z" fill="#66615E"/>
<path d="M466.857 66.5H540" stroke="#E4E2DD" stroke-linecap="round" stroke-linejoin="round"/>
<path d="M466.857 104H540" stroke="#E4E2DD" stroke-linecap="round" stroke-linejoin="round"/>
<path d="M466.857 141.5H540" stroke="#E4E2DD" stroke-linecap="round" stroke-linejoin="round"/>
<path d="M466.857 179H540" stroke="#E4E2DD" stroke-linecap="round" stroke-linejoin="round"/>
<path d="M466.857 216.5H540" stroke="#E4E2DD" stroke-linecap="round" stroke-linejoin="round"/>
<g clip-path="url(#clip6_551_7117)">
<rect x="478.857" y="70" width="49.1429" height="93" rx="12" fill="#FCD3DF"/>
<path d="M478.857 163C478.857 162.448 479.305 162 479.857 162H527C527.553 162 528 162.448 528 163H478.857Z" fill="#FCD3DF"/>
</g>
<rect x="478.857" y="167" width="49.1429" height="50" rx="12" fill="#A83F98"/>
<path d="M500.535 238.777C500.535 239.217 500.48 239.612 500.37 239.96C500.264 240.308 500.104 240.603 499.892 240.845C499.683 241.084 499.424 241.267 499.116 241.395C498.808 241.524 498.454 241.588 498.055 241.588C497.692 241.588 497.321 241.537 496.944 241.434C496.951 241.328 496.96 241.223 496.971 241.12C496.982 241.014 496.991 240.91 496.999 240.807C497.006 240.745 497.028 240.695 497.065 240.658C497.105 240.618 497.166 240.598 497.246 240.598C497.312 240.598 497.398 240.614 497.505 240.647C497.615 240.68 497.761 240.697 497.945 240.697C498.187 240.697 498.403 240.66 498.594 240.587C498.784 240.514 498.944 240.4 499.072 240.246C499.201 240.092 499.298 239.896 499.364 239.657C499.433 239.415 499.468 239.129 499.468 238.799V233.618H500.535V238.777ZM506.67 235.928V241.5H506.087C505.947 241.5 505.859 241.432 505.823 241.296L505.746 240.697C505.504 240.965 505.232 241.181 504.932 241.346C504.631 241.507 504.286 241.588 503.898 241.588C503.593 241.588 503.324 241.539 503.089 241.439C502.858 241.337 502.664 241.194 502.506 241.01C502.348 240.827 502.229 240.605 502.149 240.345C502.072 240.085 502.033 239.797 502.033 239.481V235.928H503.012V239.481C503.012 239.903 503.107 240.229 503.298 240.46C503.492 240.691 503.788 240.807 504.184 240.807C504.473 240.807 504.743 240.739 504.992 240.603C505.245 240.464 505.478 240.273 505.691 240.031V235.928H506.67ZM509.234 233.398V241.5H508.255V233.398H509.234Z" fill="#66615E"/>
<defs>
<clipPath id="clip0_551_7117">
<rect x="40" y="102" width="49.1429" height="82" rx="12" fill="white"/>
</clipPath>
<clipPath id="clip1_551_7117">
<rect x="113.143" y="85" width="49.1429" height="79" rx="12" fill="white"/>
</clipPath>
<clipPath id="clip2_551_7117">
<rect x="186.285" y="75" width="49.1429" height="79" rx="12" fill="white"/>
</clipPath>
<clipPath id="clip3_551_7117">
<rect x="259.428" y="80" width="49.1429" height="79" rx="12" fill="white"/>
</clipPath>
<clipPath id="clip4_551_7117">
<rect x="332.572" y="94" width="49.1429" height="79" rx="12" fill="white"/>
</clipPath>
<clipPath id="clip5_551_7117">
<rect x="405.715" y="85" width="49.1429" height="70" rx="12" fill="white"/>
</clipPath>
<clipPath id="clip6_551_7117">
<rect x="478.857" y="70" width="49.1429" height="93" rx="12" fill="white"/>
</clipPath>
</defs>
</svg>
