<svg width="236" height="317" viewBox="0 0 236 317" fill="none" xmlns="http://www.w3.org/2000/svg">
<rect y="256" width="236" height="61" rx="9.00749" fill="#F5F5F5"/>
<path d="M46.4911 277.132H48.092C48.6049 277.132 49.0276 277.046 49.3603 276.873C49.693 276.692 49.939 276.443 50.0984 276.124C50.2647 275.798 50.3479 275.421 50.3479 274.991C50.3479 274.603 50.2717 274.26 50.1192 273.962C49.9736 273.657 49.7484 273.421 49.4435 273.255C49.1385 273.082 48.7539 272.995 48.2895 272.995C47.9222 272.995 47.5826 273.068 47.2708 273.213C46.9589 273.359 46.7094 273.563 46.5223 273.827C46.3351 274.09 46.2416 274.409 46.2416 274.783H43.2372C43.2372 273.951 43.459 273.227 43.9025 272.61C44.353 271.993 44.956 271.512 45.7114 271.165C46.4668 270.819 47.2985 270.646 48.2064 270.646C49.2321 270.646 50.1296 270.812 50.8989 271.145C51.6681 271.47 52.2676 271.952 52.6973 272.59C53.127 273.227 53.3419 274.017 53.3419 274.96C53.3419 275.438 53.231 275.902 53.0092 276.353C52.7874 276.796 52.4686 277.198 52.0528 277.559C51.6439 277.912 51.1449 278.196 50.5558 278.411C49.9667 278.619 49.3049 278.723 48.5702 278.723H46.4911V277.132ZM46.4911 279.409V277.86H48.5702C49.3949 277.86 50.1192 277.954 50.7429 278.141C51.3667 278.328 51.8899 278.598 52.3127 278.952C52.7354 279.298 53.0542 279.711 53.2691 280.189C53.4839 280.66 53.5914 281.183 53.5914 281.759C53.5914 282.465 53.4562 283.096 53.1859 283.651C52.9156 284.198 52.5345 284.662 52.0424 285.044C51.5573 285.425 50.989 285.716 50.3375 285.917C49.686 286.111 48.9757 286.208 48.2064 286.208C47.5688 286.208 46.9416 286.121 46.3247 285.948C45.7149 285.768 45.1604 285.501 44.6614 285.148C44.1694 284.787 43.7743 284.337 43.4763 283.796C43.1852 283.249 43.0397 282.601 43.0397 281.852H46.0441C46.0441 282.24 46.1411 282.587 46.3351 282.892C46.5292 283.197 46.796 283.436 47.1356 283.609C47.4821 283.782 47.8668 283.869 48.2895 283.869C48.7677 283.869 49.1766 283.782 49.5162 283.609C49.8628 283.429 50.1261 283.179 50.3063 282.86C50.4934 282.535 50.587 282.157 50.587 281.727C50.587 281.173 50.4865 280.729 50.2855 280.397C50.0845 280.057 49.7969 279.808 49.4227 279.648C49.0484 279.489 48.6049 279.409 48.092 279.409H46.4911ZM58.4669 279.108L56.0759 278.536L56.9388 270.864H65.4425V273.286H59.4026L59.0283 276.644C59.2293 276.526 59.5342 276.401 59.9431 276.27C60.352 276.131 60.8095 276.062 61.3154 276.062C62.05 276.062 62.7015 276.176 63.2698 276.405C63.8381 276.633 64.3197 276.966 64.7148 277.403C65.1167 277.839 65.4217 278.373 65.6296 279.004C65.8375 279.634 65.9415 280.348 65.9415 281.145C65.9415 281.817 65.8375 282.459 65.6296 283.068C65.4217 283.671 65.1064 284.212 64.6836 284.69C64.2608 285.161 63.7307 285.532 63.093 285.802C62.4554 286.073 61.7 286.208 60.8268 286.208C60.1753 286.208 59.5446 286.111 58.9348 285.917C58.3318 285.723 57.7878 285.435 57.3026 285.054C56.8244 284.673 56.4398 284.212 56.1487 283.671C55.8646 283.124 55.7155 282.5 55.7017 281.8H58.6749C58.7164 282.23 58.8273 282.601 59.0075 282.912C59.1947 283.217 59.4407 283.453 59.7456 283.619C60.0506 283.786 60.4075 283.869 60.8164 283.869C61.1976 283.869 61.5233 283.796 61.7936 283.651C62.0639 283.505 62.2822 283.304 62.4485 283.048C62.6148 282.784 62.7361 282.479 62.8124 282.133C62.8955 281.779 62.9371 281.398 62.9371 280.989C62.9371 280.58 62.8886 280.21 62.7916 279.877C62.6945 279.544 62.5455 279.257 62.3446 279.014C62.1436 278.772 61.8871 278.584 61.5753 278.453C61.2703 278.321 60.9134 278.255 60.5045 278.255C59.9501 278.255 59.5204 278.342 59.2154 278.515C58.9174 278.688 58.6679 278.886 58.4669 279.108ZM69.9958 283.723H70.1933C71.025 283.723 71.7388 283.623 72.3348 283.422C72.9378 283.214 73.4333 282.916 73.8214 282.528C74.2095 282.14 74.4972 281.665 74.6843 281.104C74.8714 280.535 74.965 279.891 74.965 279.17V276.301C74.965 275.753 74.9095 275.272 74.7986 274.856C74.6947 274.44 74.5422 274.097 74.3412 273.827C74.1472 273.549 73.9185 273.341 73.6551 273.203C73.3987 273.064 73.1145 272.995 72.8027 272.995C72.47 272.995 72.1754 273.078 71.919 273.244C71.6626 273.404 71.4443 273.622 71.2641 273.899C71.0908 274.177 70.9557 274.495 70.8587 274.856C70.7686 275.209 70.7235 275.58 70.7235 275.968C70.7235 276.356 70.7686 276.727 70.8587 277.08C70.9487 277.427 71.0839 277.735 71.2641 278.006C71.4443 278.269 71.6695 278.48 71.9398 278.64C72.2101 278.792 72.5289 278.869 72.8962 278.869C73.2497 278.869 73.565 278.803 73.8422 278.671C74.1264 278.532 74.3655 278.352 74.5595 278.13C74.7605 277.909 74.913 277.663 75.0169 277.392C75.1278 277.122 75.1833 276.848 75.1833 276.571L76.1709 277.112C76.1709 277.597 76.0669 278.075 75.859 278.546C75.6511 279.018 75.36 279.447 74.9858 279.835C74.6184 280.217 74.1922 280.521 73.7071 280.75C73.2219 280.979 72.7022 281.093 72.1477 281.093C71.4408 281.093 70.8136 280.965 70.2661 280.709C69.7186 280.445 69.2542 280.085 68.8731 279.627C68.4988 279.163 68.2147 278.623 68.0206 278.006C67.8266 277.389 67.7295 276.72 67.7295 275.999C67.7295 275.265 67.8474 274.575 68.083 273.931C68.3256 273.286 68.6686 272.718 69.1122 272.226C69.5627 271.734 70.0998 271.349 70.7235 271.072C71.3542 270.788 72.0542 270.646 72.8234 270.646C73.5927 270.646 74.2927 270.795 74.9234 271.093C75.5541 271.391 76.0946 271.813 76.5451 272.361C76.9956 272.901 77.3421 273.549 77.5847 274.305C77.8342 275.06 77.9589 275.899 77.9589 276.821V277.86C77.9589 278.844 77.8515 279.759 77.6367 280.605C77.4287 281.45 77.1134 282.216 76.6907 282.902C76.2748 283.581 75.755 284.163 75.1313 284.649C74.5145 285.134 73.7972 285.504 72.9794 285.761C72.1616 286.017 71.2468 286.146 70.2349 286.146H69.9958V283.723Z" fill="#353535"/>
<path d="M170.491 277.132H172.092C172.605 277.132 173.028 277.046 173.36 276.873C173.693 276.692 173.939 276.443 174.098 276.124C174.265 275.798 174.348 275.421 174.348 274.991C174.348 274.603 174.272 274.26 174.119 273.962C173.974 273.657 173.748 273.421 173.443 273.255C173.139 273.082 172.754 272.995 172.29 272.995C171.922 272.995 171.583 273.068 171.271 273.213C170.959 273.359 170.709 273.563 170.522 273.827C170.335 274.09 170.242 274.409 170.242 274.783H167.237C167.237 273.951 167.459 273.227 167.903 272.61C168.353 271.993 168.956 271.512 169.711 271.165C170.467 270.819 171.298 270.646 172.206 270.646C173.232 270.646 174.13 270.812 174.899 271.145C175.668 271.47 176.268 271.952 176.697 272.59C177.127 273.227 177.342 274.017 177.342 274.96C177.342 275.438 177.231 275.902 177.009 276.353C176.787 276.796 176.469 277.198 176.053 277.559C175.644 277.912 175.145 278.196 174.556 278.411C173.967 278.619 173.305 278.723 172.57 278.723H170.491V277.132ZM170.491 279.409V277.86H172.57C173.395 277.86 174.119 277.954 174.743 278.141C175.367 278.328 175.89 278.598 176.313 278.952C176.735 279.298 177.054 279.711 177.269 280.189C177.484 280.66 177.591 281.183 177.591 281.759C177.591 282.465 177.456 283.096 177.186 283.651C176.916 284.198 176.534 284.662 176.042 285.044C175.557 285.425 174.989 285.716 174.337 285.917C173.686 286.111 172.976 286.208 172.206 286.208C171.569 286.208 170.942 286.121 170.325 285.948C169.715 285.768 169.16 285.501 168.661 285.148C168.169 284.787 167.774 284.337 167.476 283.796C167.185 283.249 167.04 282.601 167.04 281.852H170.044C170.044 282.24 170.141 282.587 170.335 282.892C170.529 283.197 170.796 283.436 171.136 283.609C171.482 283.782 171.867 283.869 172.29 283.869C172.768 283.869 173.177 283.782 173.516 283.609C173.863 283.429 174.126 283.179 174.306 282.86C174.493 282.535 174.587 282.157 174.587 281.727C174.587 281.173 174.486 280.729 174.286 280.397C174.085 280.057 173.797 279.808 173.423 279.648C173.048 279.489 172.605 279.409 172.092 279.409H170.491ZM182.467 279.108L180.076 278.536L180.939 270.864H189.442V273.286H183.403L183.028 276.644C183.229 276.526 183.534 276.401 183.943 276.27C184.352 276.131 184.809 276.062 185.315 276.062C186.05 276.062 186.701 276.176 187.27 276.405C187.838 276.633 188.32 276.966 188.715 277.403C189.117 277.839 189.422 278.373 189.63 279.004C189.838 279.634 189.941 280.348 189.941 281.145C189.941 281.817 189.838 282.459 189.63 283.068C189.422 283.671 189.106 284.212 188.684 284.69C188.261 285.161 187.731 285.532 187.093 285.802C186.455 286.073 185.7 286.208 184.827 286.208C184.175 286.208 183.545 286.111 182.935 285.917C182.332 285.723 181.788 285.435 181.303 285.054C180.824 284.673 180.44 284.212 180.149 283.671C179.865 283.124 179.716 282.5 179.702 281.8H182.675C182.716 282.23 182.827 282.601 183.008 282.912C183.195 283.217 183.441 283.453 183.746 283.619C184.051 283.786 184.407 283.869 184.816 283.869C185.198 283.869 185.523 283.796 185.794 283.651C186.064 283.505 186.282 283.304 186.449 283.048C186.615 282.784 186.736 282.479 186.812 282.133C186.896 281.779 186.937 281.398 186.937 280.989C186.937 280.58 186.889 280.21 186.792 279.877C186.695 279.544 186.546 279.257 186.345 279.014C186.144 278.772 185.887 278.584 185.575 278.453C185.27 278.321 184.913 278.255 184.505 278.255C183.95 278.255 183.52 278.342 183.215 278.515C182.917 278.688 182.668 278.886 182.467 279.108ZM193.996 283.723H194.193C195.025 283.723 195.739 283.623 196.335 283.422C196.938 283.214 197.433 282.916 197.821 282.528C198.21 282.14 198.497 281.665 198.684 281.104C198.871 280.535 198.965 279.891 198.965 279.17V276.301C198.965 275.753 198.91 275.272 198.799 274.856C198.695 274.44 198.542 274.097 198.341 273.827C198.147 273.549 197.918 273.341 197.655 273.203C197.399 273.064 197.115 272.995 196.803 272.995C196.47 272.995 196.175 273.078 195.919 273.244C195.663 273.404 195.444 273.622 195.264 273.899C195.091 274.177 194.956 274.495 194.859 274.856C194.769 275.209 194.724 275.58 194.724 275.968C194.724 276.356 194.769 276.727 194.859 277.08C194.949 277.427 195.084 277.735 195.264 278.006C195.444 278.269 195.67 278.48 195.94 278.64C196.21 278.792 196.529 278.869 196.896 278.869C197.25 278.869 197.565 278.803 197.842 278.671C198.126 278.532 198.365 278.352 198.56 278.13C198.761 277.909 198.913 277.663 199.017 277.392C199.128 277.122 199.183 276.848 199.183 276.571L200.171 277.112C200.171 277.597 200.067 278.075 199.859 278.546C199.651 279.018 199.36 279.447 198.986 279.835C198.618 280.217 198.192 280.521 197.707 280.75C197.222 280.979 196.702 281.093 196.148 281.093C195.441 281.093 194.814 280.965 194.266 280.709C193.719 280.445 193.254 280.085 192.873 279.627C192.499 279.163 192.215 278.623 192.021 278.006C191.827 277.389 191.73 276.72 191.73 275.999C191.73 275.265 191.847 274.575 192.083 273.931C192.326 273.286 192.669 272.718 193.112 272.226C193.563 271.734 194.1 271.349 194.724 271.072C195.354 270.788 196.054 270.646 196.823 270.646C197.593 270.646 198.293 270.795 198.923 271.093C199.554 271.391 200.095 271.813 200.545 272.361C200.996 272.901 201.342 273.549 201.585 274.305C201.834 275.06 201.959 275.899 201.959 276.821V277.86C201.959 278.844 201.852 279.759 201.637 280.605C201.429 281.45 201.113 282.216 200.691 282.902C200.275 283.581 199.755 284.163 199.131 284.649C198.514 285.134 197.797 285.504 196.979 285.761C196.162 286.017 195.247 286.146 194.235 286.146H193.996V283.723Z" fill="#353535"/>
<path d="M23.5768 301.934C23.8323 301.934 24.0599 301.891 24.2597 301.806C24.4628 301.721 24.6331 301.601 24.7707 301.447C24.9115 301.293 25.018 301.107 25.0901 300.887C25.1654 300.668 25.2031 300.422 25.2031 300.15V295.896H26.5247V300.15C26.5247 300.573 26.4559 300.964 26.3183 301.325C26.1841 301.682 25.9892 301.991 25.7337 302.253C25.4782 302.512 25.1687 302.715 24.8051 302.862C24.4415 303.007 24.0321 303.079 23.5768 303.079C23.1215 303.079 22.7121 303.007 22.3485 302.862C21.9849 302.715 21.6754 302.512 21.4199 302.253C21.1677 301.991 20.9728 301.682 20.8352 301.325C20.7009 300.964 20.6338 300.573 20.6338 300.15V295.896H21.9554V300.145C21.9554 300.417 21.9915 300.663 22.0635 300.882C22.1389 301.102 22.2453 301.29 22.3829 301.447C22.5205 301.601 22.6891 301.721 22.8889 301.806C23.092 301.891 23.3213 301.934 23.5768 301.934ZM27.7976 303V297.959H28.5395C28.6967 297.959 28.7999 298.033 28.849 298.18L28.9325 298.578C29.0341 298.473 29.1405 298.378 29.2519 298.293C29.3665 298.208 29.4861 298.134 29.6106 298.072C29.7383 298.01 29.8742 297.962 30.0184 297.93C30.1625 297.897 30.3197 297.88 30.49 297.88C30.7652 297.88 31.0092 297.928 31.2221 298.023C31.435 298.115 31.6119 298.246 31.7527 298.416C31.8968 298.583 32.0049 298.784 32.077 299.02C32.1523 299.253 32.19 299.51 32.19 299.792V303H30.9764V299.792C30.9764 299.484 30.9044 299.246 30.7602 299.079C30.6194 298.909 30.4065 298.824 30.1215 298.824C29.9119 298.824 29.7154 298.871 29.532 298.966C29.3485 299.061 29.1749 299.191 29.0112 299.354V303H27.7976ZM34.6747 297.959V303H33.4611V297.959H34.6747ZM34.8565 296.49C34.8565 296.595 34.8352 296.693 34.7926 296.785C34.75 296.877 34.6927 296.957 34.6206 297.026C34.5518 297.094 34.47 297.15 34.375 297.193C34.28 297.232 34.1784 297.252 34.0703 297.252C33.9655 297.252 33.8656 297.232 33.7706 297.193C33.6789 297.15 33.5987 297.094 33.5299 297.026C33.4611 296.957 33.4054 296.877 33.3628 296.785C33.3235 296.693 33.3039 296.595 33.3039 296.49C33.3039 296.382 33.3235 296.28 33.3628 296.185C33.4054 296.09 33.4611 296.009 33.5299 295.94C33.5987 295.871 33.6789 295.817 33.7706 295.778C33.8656 295.735 33.9655 295.714 34.0703 295.714C34.1784 295.714 34.28 295.735 34.375 295.778C34.47 295.817 34.5518 295.871 34.6206 295.94C34.6927 296.009 34.75 296.09 34.7926 296.185C34.8352 296.28 34.8565 296.382 34.8565 296.49ZM40.3394 297.959V304.646H39.1259V302.366C39.0243 302.474 38.9162 302.573 38.8016 302.661C38.6902 302.746 38.5707 302.82 38.4429 302.882C38.3152 302.941 38.1792 302.987 38.0351 303.02C37.891 303.056 37.7354 303.074 37.5684 303.074C37.2932 303.074 37.041 303.016 36.8117 302.902C36.5825 302.787 36.3843 302.622 36.2173 302.406C36.0535 302.186 35.9257 301.916 35.834 301.595C35.7456 301.274 35.7014 300.907 35.7014 300.494C35.7014 300.121 35.7521 299.774 35.8537 299.453C35.9552 299.132 36.101 298.853 36.291 298.617C36.4809 298.382 36.7086 298.198 36.9739 298.067C37.2392 297.933 37.5373 297.866 37.8681 297.866C38.0253 297.866 38.1678 297.88 38.2955 297.91C38.4265 297.936 38.5461 297.975 38.6542 298.028C38.7656 298.08 38.8671 298.143 38.9588 298.215C39.0505 298.287 39.139 298.369 39.2241 298.46L39.288 298.18C39.3044 298.105 39.3404 298.049 39.3961 298.013C39.4518 297.977 39.5189 297.959 39.5975 297.959H40.3394ZM37.9811 302.111C38.2333 302.111 38.4478 302.058 38.6247 301.953C38.8016 301.849 38.9686 301.7 39.1259 301.506V299.246C38.9883 299.079 38.8376 298.961 38.6738 298.893C38.5133 298.824 38.3397 298.789 38.153 298.789C37.9696 298.789 37.8026 298.824 37.6519 298.893C37.5045 298.961 37.3784 299.066 37.2736 299.207C37.172 299.345 37.0934 299.521 37.0378 299.738C36.9821 299.951 36.9542 300.203 36.9542 300.494C36.9542 300.789 36.9772 301.04 37.023 301.246C37.0721 301.449 37.1409 301.616 37.2294 301.747C37.3178 301.875 37.4259 301.968 37.5536 302.027C37.6814 302.083 37.8239 302.111 37.9811 302.111ZM42.7647 297.959V301.162C42.7647 301.47 42.8351 301.709 42.9759 301.88C43.1201 302.047 43.3346 302.13 43.6196 302.13C43.8292 302.13 44.0257 302.085 44.2092 301.993C44.3926 301.898 44.5662 301.768 44.7299 301.605V297.959H45.9435V303H45.2016C45.0444 303 44.9412 302.926 44.8921 302.779L44.8086 302.376C44.7037 302.481 44.5957 302.577 44.4843 302.666C44.3729 302.751 44.2534 302.825 44.1256 302.887C44.0012 302.946 43.8652 302.992 43.7178 303.025C43.5737 303.061 43.4181 303.079 43.2511 303.079C42.9759 303.079 42.7319 303.033 42.519 302.941C42.3094 302.846 42.1325 302.713 41.9884 302.543C41.8443 302.373 41.7345 302.171 41.6592 301.939C41.5872 301.703 41.5511 301.444 41.5511 301.162V297.959H42.7647ZM49.3224 297.88C49.6401 297.88 49.9316 297.931 50.1969 298.033C50.4655 298.134 50.6964 298.283 50.8897 298.48C51.0829 298.673 51.2336 298.912 51.3417 299.197C51.4498 299.479 51.5038 299.802 51.5038 300.165C51.5038 300.257 51.4989 300.334 51.4891 300.396C51.4826 300.455 51.4678 300.502 51.4449 300.538C51.4252 300.571 51.3974 300.596 51.3614 300.612C51.3253 300.625 51.2795 300.632 51.2238 300.632H48.1088C48.1449 301.149 48.2841 301.529 48.5265 301.772C48.7688 302.014 49.0898 302.135 49.4894 302.135C49.686 302.135 49.8547 302.112 49.9955 302.066C50.1396 302.021 50.2641 301.97 50.3689 301.914C50.477 301.859 50.5703 301.808 50.6489 301.762C50.7308 301.716 50.8094 301.693 50.8848 301.693C50.9339 301.693 50.9765 301.703 51.0125 301.723C51.0486 301.742 51.0797 301.77 51.1059 301.806L51.4596 302.248C51.3253 302.406 51.1747 302.538 51.0076 302.646C50.8406 302.751 50.6653 302.836 50.4819 302.902C50.3018 302.964 50.1167 303.008 49.9267 303.034C49.74 303.061 49.5582 303.074 49.3813 303.074C49.0309 303.074 48.705 303.016 48.4036 302.902C48.1023 302.784 47.8402 302.612 47.6175 302.386C47.3948 302.157 47.2195 301.875 47.0918 301.541C46.9641 301.203 46.9002 300.814 46.9002 300.371C46.9002 300.028 46.9559 299.705 47.0672 299.404C47.1786 299.099 47.3375 298.835 47.5438 298.613C47.7534 298.387 48.0073 298.208 48.3054 298.077C48.6067 297.946 48.9457 297.88 49.3224 297.88ZM49.347 298.75C48.9932 298.75 48.7164 298.85 48.5166 299.05C48.3168 299.25 48.1891 299.533 48.1334 299.9H50.4131C50.4131 299.743 50.3918 299.595 50.3492 299.458C50.3067 299.317 50.2412 299.194 50.1527 299.089C50.0643 298.984 49.9529 298.902 49.8186 298.843C49.6843 298.781 49.5271 298.75 49.347 298.75ZM59.3407 301.325C59.4128 301.325 59.475 301.352 59.5274 301.408L60.0482 301.973C59.76 302.33 59.4046 302.604 58.9821 302.794C58.5628 302.984 58.0584 303.079 57.4688 303.079C56.9415 303.079 56.4665 302.989 56.044 302.808C55.6247 302.628 55.2661 302.378 54.968 302.057C54.6699 301.736 54.4407 301.352 54.2802 300.907C54.1229 300.462 54.0443 299.975 54.0443 299.448C54.0443 298.914 54.1328 298.426 54.3096 297.984C54.4865 297.538 54.7355 297.155 55.0565 296.834C55.3774 296.513 55.7607 296.264 56.2061 296.087C56.6549 295.907 57.1495 295.817 57.6899 295.817C58.2173 295.817 58.6775 295.902 59.0705 296.072C59.4668 296.239 59.8059 296.462 60.0875 296.741L59.6454 297.355C59.6192 297.394 59.5848 297.428 59.5422 297.458C59.5029 297.487 59.4472 297.502 59.3751 297.502C59.2998 297.502 59.2228 297.473 59.1442 297.414C59.0656 297.355 58.9657 297.291 58.8445 297.222C58.7233 297.153 58.5694 297.089 58.3827 297.03C58.1992 296.972 57.9651 296.942 57.6801 296.942C57.346 296.942 57.0381 297.001 56.7564 297.119C56.478 297.234 56.2373 297.399 56.0342 297.615C55.8344 297.831 55.6771 298.095 55.5625 298.406C55.4511 298.714 55.3955 299.061 55.3955 299.448C55.3955 299.847 55.4511 300.203 55.5625 300.514C55.6771 300.825 55.8311 301.087 56.0243 301.3C56.2176 301.513 56.4452 301.677 56.7073 301.791C56.9693 301.903 57.251 301.958 57.5523 301.958C57.7325 301.958 57.8946 301.949 58.0388 301.929C58.1861 301.909 58.3204 301.878 58.4416 301.836C58.5661 301.793 58.6824 301.739 58.7905 301.673C58.9018 301.605 59.0116 301.521 59.1197 301.423C59.1524 301.393 59.1868 301.37 59.2228 301.354C59.2589 301.334 59.2982 301.325 59.3407 301.325ZM62.0911 297.959V301.162C62.0911 301.47 62.1616 301.709 62.3024 301.88C62.4465 302.047 62.6611 302.13 62.946 302.13C63.1557 302.13 63.3522 302.085 63.5356 301.993C63.719 301.898 63.8926 301.768 64.0564 301.605V297.959H65.27V303H64.5281C64.3708 303 64.2677 302.926 64.2185 302.779L64.135 302.376C64.0302 302.481 63.9221 302.577 63.8107 302.666C63.6994 302.751 63.5798 302.825 63.4521 302.887C63.3276 302.946 63.1917 302.992 63.0443 303.025C62.9002 303.061 62.7446 303.079 62.5775 303.079C62.3024 303.079 62.0584 303.033 61.8455 302.941C61.6358 302.846 61.459 302.713 61.3148 302.543C61.1707 302.373 61.061 302.171 60.9857 301.939C60.9136 301.703 60.8776 301.444 60.8776 301.162V297.959H62.0911ZM69.5578 298.942C69.525 298.994 69.4906 299.032 69.4546 299.055C69.4186 299.074 69.3727 299.084 69.317 299.084C69.2581 299.084 69.1942 299.068 69.1254 299.035C69.0599 299.002 68.9829 298.966 68.8945 298.927C68.8061 298.884 68.7045 298.847 68.5899 298.814C68.4785 298.781 68.3459 298.765 68.1919 298.765C67.9528 298.765 67.7645 298.816 67.6269 298.917C67.4893 299.019 67.4205 299.151 67.4205 299.315C67.4205 299.423 67.4549 299.515 67.5237 299.59C67.5958 299.662 67.6891 299.726 67.8038 299.782C67.9217 299.838 68.0543 299.888 68.2017 299.934C68.3491 299.977 68.4998 300.024 68.6538 300.077C68.8077 300.129 68.9584 300.19 69.1058 300.258C69.2532 300.324 69.3842 300.409 69.4988 300.514C69.6167 300.615 69.7101 300.738 69.7789 300.882C69.8509 301.027 69.887 301.2 69.887 301.403C69.887 301.646 69.8427 301.87 69.7543 302.076C69.6659 302.279 69.5365 302.456 69.3662 302.607C69.1958 302.754 68.9846 302.871 68.7324 302.956C68.4834 303.038 68.1968 303.079 67.8726 303.079C67.699 303.079 67.5286 303.062 67.3616 303.029C67.1978 303 67.039 302.957 66.885 302.902C66.7343 302.846 66.5935 302.781 66.4625 302.705C66.3347 302.63 66.2217 302.548 66.1235 302.46L66.4035 301.998C66.4395 301.942 66.4821 301.899 66.5313 301.87C66.5804 301.84 66.6426 301.826 66.718 301.826C66.7933 301.826 66.8637 301.847 66.9292 301.89C66.998 301.932 67.0766 301.978 67.1651 302.027C67.2535 302.076 67.3567 302.122 67.4746 302.165C67.5958 302.207 67.7481 302.229 67.9315 302.229C68.0756 302.229 68.1985 302.212 68.3 302.179C68.4048 302.143 68.49 302.098 68.5555 302.042C68.6243 301.986 68.6734 301.922 68.7029 301.85C68.7356 301.775 68.752 301.698 68.752 301.619C68.752 301.501 68.716 301.405 68.6439 301.33C68.5751 301.254 68.4818 301.189 68.3639 301.133C68.2492 301.077 68.1166 301.028 67.9659 300.986C67.8185 300.94 67.6662 300.891 67.509 300.838C67.355 300.786 67.2027 300.725 67.0521 300.656C66.9047 300.584 66.772 300.494 66.6541 300.386C66.5394 300.278 66.4461 300.145 66.374 299.988C66.3053 299.831 66.2709 299.641 66.2709 299.418C66.2709 299.212 66.3118 299.015 66.3937 298.829C66.4756 298.642 66.5951 298.48 66.7524 298.342C66.9128 298.201 67.111 298.09 67.3468 298.008C67.586 297.923 67.8611 297.88 68.1723 297.88C68.5195 297.88 68.8355 297.938 69.1205 298.052C69.4055 298.167 69.6429 298.318 69.8329 298.504L69.5578 298.942ZM72.5108 303.079C72.0752 303.079 71.7395 302.956 71.5036 302.71C71.2678 302.461 71.1499 302.119 71.1499 301.683V298.868H70.6389C70.5734 298.868 70.5161 298.847 70.4669 298.804C70.4211 298.762 70.3982 298.698 70.3982 298.613V298.131L71.2088 297.998L71.4643 296.623C71.4774 296.557 71.5069 296.506 71.5528 296.47C71.6019 296.434 71.6625 296.416 71.7345 296.416H72.3634V298.003H73.69V298.868H72.3634V301.6C72.3634 301.757 72.4027 301.88 72.4813 301.968C72.56 302.057 72.6648 302.101 72.7958 302.101C72.8711 302.101 72.9334 302.093 72.9825 302.076C73.0349 302.057 73.0791 302.037 73.1151 302.017C73.1545 301.998 73.1888 301.98 73.2183 301.963C73.2478 301.944 73.2773 301.934 73.3068 301.934C73.3428 301.934 73.3723 301.944 73.3952 301.963C73.4181 301.98 73.4427 302.006 73.4689 302.042L73.8325 302.632C73.6556 302.779 73.4525 302.89 73.2232 302.966C72.994 303.041 72.7565 303.079 72.5108 303.079ZM76.8071 297.88C77.1838 297.88 77.5244 297.941 77.829 298.062C78.1369 298.183 78.399 298.355 78.6151 298.578C78.8313 298.801 78.9984 299.073 79.1163 299.394C79.2342 299.715 79.2932 300.073 79.2932 300.47C79.2932 300.869 79.2342 301.23 79.1163 301.551C78.9984 301.872 78.8313 302.145 78.6151 302.371C78.399 302.597 78.1369 302.771 77.829 302.892C77.5244 303.013 77.1838 303.074 76.8071 303.074C76.4304 303.074 76.0881 303.013 75.7802 302.892C75.4723 302.771 75.2087 302.597 74.9892 302.371C74.773 302.145 74.6044 301.872 74.4832 301.551C74.3652 301.23 74.3063 300.869 74.3063 300.47C74.3063 300.073 74.3652 299.715 74.4832 299.394C74.6044 299.073 74.773 298.801 74.9892 298.578C75.2087 298.355 75.4723 298.183 75.7802 298.062C76.0881 297.941 76.4304 297.88 76.8071 297.88ZM76.8071 302.14C77.2264 302.14 77.5359 301.999 77.7357 301.718C77.9388 301.436 78.0403 301.023 78.0403 300.48C78.0403 299.936 77.9388 299.521 77.7357 299.237C77.5359 298.952 77.2264 298.809 76.8071 298.809C76.3813 298.809 76.0668 298.953 75.8638 299.241C75.6607 299.526 75.5591 299.939 75.5591 300.48C75.5591 301.02 75.6607 301.433 75.8638 301.718C76.0668 301.999 76.3813 302.14 76.8071 302.14ZM80.24 303V297.959H80.9819C81.1391 297.959 81.2423 298.033 81.2914 298.18L81.3701 298.554C81.4585 298.455 81.5502 298.365 81.6452 298.283C81.7435 298.201 81.8466 298.131 81.9547 298.072C82.0661 298.013 82.184 297.967 82.3085 297.935C82.4362 297.898 82.5754 297.88 82.7261 297.88C83.0438 297.88 83.3042 297.967 83.5073 298.141C83.7136 298.311 83.8676 298.539 83.9691 298.824C84.0477 298.657 84.146 298.514 84.2639 298.396C84.3818 298.275 84.5112 298.177 84.6521 298.102C84.7929 298.026 84.9419 297.971 85.0992 297.935C85.2597 297.898 85.4202 297.88 85.5807 297.88C85.8591 297.88 86.1064 297.923 86.3225 298.008C86.5387 298.093 86.7205 298.218 86.8679 298.382C87.0153 298.545 87.1267 298.745 87.202 298.981C87.2806 299.217 87.3199 299.487 87.3199 299.792V303H86.1064V299.792C86.1064 299.471 86.0359 299.23 85.8951 299.069C85.7543 298.906 85.5479 298.824 85.276 298.824C85.1516 298.824 85.0353 298.845 84.9272 298.888C84.8224 298.93 84.729 298.992 84.6471 299.074C84.5685 299.153 84.5063 299.253 84.4604 299.374C84.4146 299.495 84.3917 299.634 84.3917 299.792V303H83.1732V299.792C83.1732 299.454 83.1044 299.209 82.9668 299.055C82.8325 298.901 82.6327 298.824 82.3674 298.824C82.1938 298.824 82.0301 298.868 81.8761 298.956C81.7254 299.042 81.5846 299.16 81.4536 299.31V303H80.24ZM90.595 297.88C90.9127 297.88 91.2042 297.931 91.4696 298.033C91.7381 298.134 91.9691 298.283 92.1623 298.48C92.3556 298.673 92.5062 298.912 92.6143 299.197C92.7224 299.479 92.7765 299.802 92.7765 300.165C92.7765 300.257 92.7715 300.334 92.7617 300.396C92.7552 300.455 92.7404 300.502 92.7175 300.538C92.6978 300.571 92.67 300.596 92.634 300.612C92.5979 300.625 92.5521 300.632 92.4964 300.632H89.3815C89.4175 301.149 89.5567 301.529 89.7991 301.772C90.0415 302.014 90.3625 302.135 90.7621 302.135C90.9586 302.135 91.1273 302.112 91.2681 302.066C91.4122 302.021 91.5367 301.97 91.6415 301.914C91.7496 301.859 91.843 301.808 91.9216 301.762C92.0035 301.716 92.0821 301.693 92.1574 301.693C92.2065 301.693 92.2491 301.703 92.2851 301.723C92.3212 301.742 92.3523 301.77 92.3785 301.806L92.7322 302.248C92.5979 302.406 92.4473 302.538 92.2802 302.646C92.1132 302.751 91.9379 302.836 91.7545 302.902C91.5744 302.964 91.3893 303.008 91.1993 303.034C91.0126 303.061 90.8308 303.074 90.654 303.074C90.3035 303.074 89.9776 303.016 89.6762 302.902C89.3749 302.784 89.1129 302.612 88.8901 302.386C88.6674 302.157 88.4922 301.875 88.3644 301.541C88.2367 301.203 88.1728 300.814 88.1728 300.371C88.1728 300.028 88.2285 299.705 88.3399 299.404C88.4512 299.099 88.6101 298.835 88.8164 298.613C89.0261 298.387 89.2799 298.208 89.578 298.077C89.8793 297.946 90.2183 297.88 90.595 297.88ZM90.6196 298.75C90.2658 298.75 89.9891 298.85 89.7892 299.05C89.5894 299.25 89.4617 299.533 89.406 299.9H91.6857C91.6857 299.743 91.6644 299.595 91.6219 299.458C91.5793 299.317 91.5138 299.194 91.4253 299.089C91.3369 298.984 91.2255 298.902 91.0912 298.843C90.9569 298.781 90.7997 298.75 90.6196 298.75ZM93.7609 303V297.959H94.4733C94.5977 297.959 94.6845 297.982 94.7337 298.028C94.7828 298.074 94.8156 298.152 94.8319 298.264L94.9056 298.873C95.0858 298.562 95.2971 298.316 95.5394 298.136C95.7818 297.956 96.0537 297.866 96.355 297.866C96.604 297.866 96.8103 297.923 96.9741 298.038L96.8169 298.947C96.807 299.006 96.7857 299.048 96.753 299.074C96.7202 299.097 96.676 299.109 96.6203 299.109C96.5712 299.109 96.5041 299.097 96.4189 299.074C96.3337 299.051 96.2207 299.04 96.0799 299.04C95.8277 299.04 95.6115 299.11 95.4313 299.251C95.2512 299.389 95.0989 299.592 94.9744 299.86V303H93.7609ZM100.764 298.942C100.731 298.994 100.697 299.032 100.661 299.055C100.625 299.074 100.579 299.084 100.523 299.084C100.464 299.084 100.401 299.068 100.332 299.035C100.266 299.002 100.189 298.966 100.101 298.927C100.012 298.884 99.9109 298.847 99.7962 298.814C99.6849 298.781 99.5522 298.765 99.3983 298.765C99.1592 298.765 98.9708 298.816 98.8333 298.917C98.6957 299.019 98.6269 299.151 98.6269 299.315C98.6269 299.423 98.6613 299.515 98.7301 299.59C98.8021 299.662 98.8955 299.726 99.0101 299.782C99.1281 299.838 99.2607 299.888 99.4081 299.934C99.5555 299.977 99.7062 300.024 99.8601 300.077C100.014 300.129 100.165 300.19 100.312 300.258C100.46 300.324 100.591 300.409 100.705 300.514C100.823 300.615 100.916 300.738 100.985 300.882C101.057 301.027 101.093 301.2 101.093 301.403C101.093 301.646 101.049 301.87 100.961 302.076C100.872 302.279 100.743 302.456 100.573 302.607C100.402 302.754 100.191 302.871 99.9387 302.956C99.6898 303.038 99.4032 303.079 99.0789 303.079C98.9053 303.079 98.735 303.062 98.5679 303.029C98.4042 303 98.2453 302.957 98.0914 302.902C97.9407 302.846 97.7999 302.781 97.6688 302.705C97.5411 302.63 97.4281 302.548 97.3298 302.46L97.6099 301.998C97.6459 301.942 97.6885 301.899 97.7376 301.87C97.7868 301.84 97.849 301.826 97.9243 301.826C97.9997 301.826 98.0701 301.847 98.1356 301.89C98.2044 301.932 98.283 301.978 98.3714 302.027C98.4599 302.076 98.563 302.122 98.681 302.165C98.8021 302.207 98.9545 302.229 99.1379 302.229C99.282 302.229 99.4048 302.212 99.5064 302.179C99.6112 302.143 99.6963 302.098 99.7619 302.042C99.8306 301.986 99.8798 301.922 99.9092 301.85C99.942 301.775 99.9584 301.698 99.9584 301.619C99.9584 301.501 99.9223 301.405 99.8503 301.33C99.7815 301.254 99.6882 301.189 99.5702 301.133C99.4556 301.077 99.3229 301.028 99.1723 300.986C99.0249 300.94 98.8726 300.891 98.7153 300.838C98.5614 300.786 98.4091 300.725 98.2584 300.656C98.111 300.584 97.9784 300.494 97.8605 300.386C97.7458 300.278 97.6525 300.145 97.5804 299.988C97.5116 299.831 97.4772 299.641 97.4772 299.418C97.4772 299.212 97.5182 299.015 97.6001 298.829C97.6819 298.642 97.8015 298.48 97.9587 298.342C98.1192 298.201 98.3174 298.09 98.5532 298.008C98.7923 297.923 99.0675 297.88 99.3786 297.88C99.7258 297.88 100.042 297.938 100.327 298.052C100.612 298.167 100.849 298.318 101.039 298.504L100.764 298.942Z" fill="#353535"/>
<path d="M159.198 295.896V296.947H156.049V298.917H158.53V299.934H156.049V301.944H159.198V303H154.717V295.896H159.198ZM164.222 303H163.677C163.562 303 163.472 302.984 163.406 302.951C163.341 302.915 163.292 302.844 163.259 302.74L163.151 302.381C163.023 302.496 162.897 302.597 162.773 302.686C162.651 302.771 162.525 302.843 162.394 302.902C162.263 302.961 162.124 303.005 161.977 303.034C161.829 303.064 161.666 303.079 161.485 303.079C161.272 303.079 161.076 303.051 160.896 302.995C160.716 302.936 160.56 302.849 160.429 302.735C160.301 302.62 160.201 302.478 160.129 302.307C160.057 302.137 160.021 301.939 160.021 301.713C160.021 301.523 160.07 301.336 160.169 301.153C160.27 300.966 160.437 300.799 160.67 300.652C160.902 300.501 161.212 300.376 161.598 300.278C161.985 300.18 162.465 300.124 163.038 300.111V299.816C163.038 299.479 162.966 299.23 162.822 299.069C162.681 298.906 162.475 298.824 162.203 298.824C162.006 298.824 161.842 298.847 161.711 298.893C161.58 298.938 161.466 298.991 161.367 299.05C161.272 299.105 161.184 299.156 161.102 299.202C161.02 299.248 160.93 299.271 160.832 299.271C160.75 299.271 160.68 299.25 160.621 299.207C160.562 299.164 160.514 299.112 160.478 299.05L160.257 298.662C160.837 298.131 161.536 297.866 162.355 297.866C162.65 297.866 162.912 297.915 163.141 298.013C163.374 298.108 163.57 298.242 163.731 298.416C163.891 298.586 164.012 298.791 164.094 299.03C164.179 299.269 164.222 299.531 164.222 299.816V303ZM161.864 302.243C161.988 302.243 162.103 302.232 162.208 302.209C162.312 302.186 162.411 302.152 162.502 302.106C162.597 302.06 162.687 302.004 162.773 301.939C162.861 301.87 162.95 301.79 163.038 301.698V300.848C162.684 300.864 162.388 300.896 162.149 300.941C161.913 300.984 161.723 301.04 161.579 301.108C161.435 301.177 161.331 301.257 161.269 301.349C161.21 301.441 161.181 301.541 161.181 301.649C161.181 301.862 161.243 302.014 161.367 302.106C161.495 302.198 161.661 302.243 161.864 302.243ZM165.415 303V297.959H166.128C166.252 297.959 166.339 297.982 166.388 298.028C166.437 298.074 166.47 298.152 166.486 298.264L166.56 298.873C166.74 298.562 166.951 298.316 167.194 298.136C167.436 297.956 167.708 297.866 168.009 297.866C168.258 297.866 168.465 297.923 168.629 298.038L168.471 298.947C168.461 299.006 168.44 299.048 168.407 299.074C168.375 299.097 168.33 299.109 168.275 299.109C168.226 299.109 168.159 299.097 168.073 299.074C167.988 299.051 167.875 299.04 167.734 299.04C167.482 299.04 167.266 299.11 167.086 299.251C166.906 299.389 166.753 299.592 166.629 299.86V303H165.415ZM169.426 303V297.959H170.168C170.326 297.959 170.429 298.033 170.478 298.18L170.561 298.578C170.663 298.473 170.769 298.378 170.881 298.293C170.995 298.208 171.115 298.134 171.239 298.072C171.367 298.01 171.503 297.962 171.647 297.93C171.791 297.897 171.949 297.88 172.119 297.88C172.394 297.88 172.638 297.928 172.851 298.023C173.064 298.115 173.241 298.246 173.382 298.416C173.526 298.583 173.634 298.784 173.706 299.02C173.781 299.253 173.819 299.51 173.819 299.792V303H172.605V299.792C172.605 299.484 172.533 299.246 172.389 299.079C172.248 298.909 172.035 298.824 171.75 298.824C171.541 298.824 171.344 298.871 171.161 298.966C170.977 299.061 170.804 299.191 170.64 299.354V303H169.426ZM177.095 297.88C177.412 297.88 177.704 297.931 177.969 298.033C178.238 298.134 178.469 298.283 178.662 298.48C178.855 298.673 179.006 298.912 179.114 299.197C179.222 299.479 179.276 299.802 179.276 300.165C179.276 300.257 179.271 300.334 179.261 300.396C179.255 300.455 179.24 300.502 179.217 300.538C179.197 300.571 179.17 300.596 179.134 300.612C179.097 300.625 179.052 300.632 178.996 300.632H175.881C175.917 301.149 176.056 301.529 176.299 301.772C176.541 302.014 176.862 302.135 177.262 302.135C177.458 302.135 177.627 302.112 177.768 302.066C177.912 302.021 178.036 301.97 178.141 301.914C178.249 301.859 178.342 301.808 178.421 301.762C178.503 301.716 178.582 301.693 178.657 301.693C178.706 301.693 178.749 301.703 178.785 301.723C178.821 301.742 178.852 301.77 178.878 301.806L179.232 302.248C179.097 302.406 178.947 302.538 178.78 302.646C178.613 302.751 178.437 302.836 178.254 302.902C178.074 302.964 177.889 303.008 177.699 303.034C177.512 303.061 177.33 303.074 177.154 303.074C176.803 303.074 176.477 303.016 176.176 302.902C175.874 302.784 175.612 302.612 175.39 302.386C175.167 302.157 174.992 301.875 174.864 301.541C174.736 301.203 174.672 300.814 174.672 300.371C174.672 300.028 174.728 299.705 174.839 299.404C174.951 299.099 175.11 298.835 175.316 298.613C175.526 298.387 175.779 298.208 176.078 298.077C176.379 297.946 176.718 297.88 177.095 297.88ZM177.119 298.75C176.765 298.75 176.489 298.85 176.289 299.05C176.089 299.25 175.961 299.533 175.906 299.9H178.185C178.185 299.743 178.164 299.595 178.121 299.458C178.079 299.317 178.013 299.194 177.925 299.089C177.836 298.984 177.725 298.902 177.591 298.843C177.456 298.781 177.299 298.75 177.119 298.75ZM183.808 303C183.65 303 183.547 302.926 183.498 302.779L183.4 302.293C183.295 302.41 183.185 302.517 183.071 302.612C182.956 302.707 182.832 302.789 182.697 302.858C182.566 302.926 182.424 302.979 182.27 303.015C182.119 303.054 181.955 303.074 181.779 303.074C181.503 303.074 181.251 303.016 181.022 302.902C180.793 302.787 180.594 302.622 180.427 302.406C180.264 302.186 180.136 301.916 180.044 301.595C179.956 301.274 179.912 300.907 179.912 300.494C179.912 300.121 179.962 299.774 180.064 299.453C180.165 299.132 180.311 298.853 180.501 298.617C180.691 298.382 180.919 298.198 181.184 298.067C181.449 297.933 181.747 297.866 182.078 297.866C182.36 297.866 182.601 297.912 182.801 298.003C183 298.092 183.179 298.211 183.336 298.362V295.699H184.55V303H183.808ZM182.191 302.111C182.443 302.111 182.658 302.058 182.835 301.953C183.012 301.849 183.179 301.7 183.336 301.506V299.246C183.198 299.079 183.048 298.961 182.884 298.893C182.724 298.824 182.55 298.789 182.363 298.789C182.18 298.789 182.013 298.824 181.862 298.893C181.715 298.961 181.589 299.066 181.484 299.207C181.382 299.345 181.304 299.521 181.248 299.738C181.192 299.951 181.164 300.203 181.164 300.494C181.164 300.789 181.187 301.04 181.233 301.246C181.282 301.449 181.351 301.616 181.44 301.747C181.528 301.875 181.636 301.968 181.764 302.027C181.892 302.083 182.034 302.111 182.191 302.111ZM189.199 300.499V303H187.878V295.896H190.192C190.667 295.896 191.078 295.951 191.425 296.063C191.772 296.174 192.059 296.33 192.285 296.529C192.511 296.729 192.678 296.968 192.786 297.247C192.894 297.525 192.948 297.83 192.948 298.161C192.948 298.504 192.891 298.821 192.776 299.109C192.661 299.394 192.489 299.639 192.26 299.846C192.031 300.052 191.744 300.213 191.4 300.327C191.056 300.442 190.653 300.499 190.192 300.499H189.199ZM189.199 299.467H190.192C190.434 299.467 190.645 299.438 190.825 299.379C191.006 299.317 191.155 299.23 191.273 299.119C191.39 299.004 191.479 298.866 191.538 298.706C191.597 298.542 191.626 298.36 191.626 298.161C191.626 297.971 191.597 297.799 191.538 297.645C191.479 297.491 191.39 297.36 191.273 297.252C191.155 297.143 191.006 297.062 190.825 297.006C190.645 296.947 190.434 296.917 190.192 296.917H189.199V299.467ZM195.914 297.88C196.291 297.88 196.631 297.941 196.936 298.062C197.244 298.183 197.506 298.355 197.722 298.578C197.938 298.801 198.105 299.073 198.223 299.394C198.341 299.715 198.4 300.073 198.4 300.47C198.4 300.869 198.341 301.23 198.223 301.551C198.105 301.872 197.938 302.145 197.722 302.371C197.506 302.597 197.244 302.771 196.936 302.892C196.631 303.013 196.291 303.074 195.914 303.074C195.537 303.074 195.195 303.013 194.887 302.892C194.579 302.771 194.316 302.597 194.096 302.371C193.88 302.145 193.711 301.872 193.59 301.551C193.472 301.23 193.413 300.869 193.413 300.47C193.413 300.073 193.472 299.715 193.59 299.394C193.711 299.073 193.88 298.801 194.096 298.578C194.316 298.355 194.579 298.183 194.887 298.062C195.195 297.941 195.537 297.88 195.914 297.88ZM195.914 302.14C196.333 302.14 196.643 301.999 196.843 301.718C197.046 301.436 197.147 301.023 197.147 300.48C197.147 299.936 197.046 299.521 196.843 299.237C196.643 298.952 196.333 298.809 195.914 298.809C195.488 298.809 195.174 298.953 194.971 299.241C194.768 299.526 194.666 299.939 194.666 300.48C194.666 301.02 194.768 301.433 194.971 301.718C195.174 301.999 195.488 302.14 195.914 302.14ZM200.639 297.959V303H199.426V297.959H200.639ZM200.821 296.49C200.821 296.595 200.8 296.693 200.757 296.785C200.714 296.877 200.657 296.957 200.585 297.026C200.516 297.094 200.434 297.15 200.339 297.193C200.244 297.232 200.143 297.252 200.035 297.252C199.93 297.252 199.83 297.232 199.735 297.193C199.643 297.15 199.563 297.094 199.494 297.026C199.426 296.957 199.37 296.877 199.327 296.785C199.288 296.693 199.268 296.595 199.268 296.49C199.268 296.382 199.288 296.28 199.327 296.185C199.37 296.09 199.426 296.009 199.494 295.94C199.563 295.871 199.643 295.817 199.735 295.778C199.83 295.735 199.93 295.714 200.035 295.714C200.143 295.714 200.244 295.735 200.339 295.778C200.434 295.817 200.516 295.871 200.585 295.94C200.657 296.009 200.714 296.09 200.757 296.185C200.8 296.28 200.821 296.382 200.821 296.49ZM202.015 303V297.959H202.757C202.914 297.959 203.017 298.033 203.066 298.18L203.15 298.578C203.251 298.473 203.358 298.378 203.469 298.293C203.584 298.208 203.703 298.134 203.828 298.072C203.955 298.01 204.091 297.962 204.235 297.93C204.38 297.897 204.537 297.88 204.707 297.88C204.982 297.88 205.226 297.928 205.439 298.023C205.652 298.115 205.829 298.246 205.97 298.416C206.114 298.583 206.222 298.784 206.294 299.02C206.369 299.253 206.407 299.51 206.407 299.792V303H205.193V299.792C205.193 299.484 205.121 299.246 204.977 299.079C204.836 298.909 204.624 298.824 204.339 298.824C204.129 298.824 203.932 298.871 203.749 298.966C203.566 299.061 203.392 299.191 203.228 299.354V303H202.015ZM209.255 303.079C208.82 303.079 208.484 302.956 208.248 302.71C208.012 302.461 207.894 302.119 207.894 301.683V298.868H207.383C207.318 298.868 207.261 298.847 207.211 298.804C207.166 298.762 207.143 298.698 207.143 298.613V298.131L207.953 297.998L208.209 296.623C208.222 296.557 208.251 296.506 208.297 296.47C208.346 296.434 208.407 296.416 208.479 296.416H209.108V298.003H210.434V298.868H209.108V301.6C209.108 301.757 209.147 301.88 209.226 301.968C209.304 302.057 209.409 302.101 209.54 302.101C209.616 302.101 209.678 302.093 209.727 302.076C209.779 302.057 209.824 302.037 209.86 302.017C209.899 301.998 209.933 301.98 209.963 301.963C209.992 301.944 210.022 301.934 210.051 301.934C210.087 301.934 210.117 301.944 210.14 301.963C210.163 301.98 210.187 302.006 210.213 302.042L210.577 302.632C210.4 302.779 210.197 302.89 209.968 302.966C209.738 303.041 209.501 303.079 209.255 303.079ZM214.392 298.942C214.359 298.994 214.325 299.032 214.289 299.055C214.253 299.074 214.207 299.084 214.151 299.084C214.092 299.084 214.028 299.068 213.959 299.035C213.894 299.002 213.817 298.966 213.728 298.927C213.64 298.884 213.538 298.847 213.424 298.814C213.312 298.781 213.18 298.765 213.026 298.765C212.787 298.765 212.598 298.816 212.461 298.917C212.323 299.019 212.254 299.151 212.254 299.315C212.254 299.423 212.289 299.515 212.358 299.59C212.43 299.662 212.523 299.726 212.638 299.782C212.756 299.838 212.888 299.888 213.036 299.934C213.183 299.977 213.334 300.024 213.488 300.077C213.642 300.129 213.792 300.19 213.94 300.258C214.087 300.324 214.218 300.409 214.333 300.514C214.451 300.615 214.544 300.738 214.613 300.882C214.685 301.027 214.721 301.2 214.721 301.403C214.721 301.646 214.677 301.87 214.588 302.076C214.5 302.279 214.37 302.456 214.2 302.607C214.03 302.754 213.819 302.871 213.566 302.956C213.317 303.038 213.031 303.079 212.707 303.079C212.533 303.079 212.363 303.062 212.196 303.029C212.032 303 211.873 302.957 211.719 302.902C211.568 302.846 211.427 302.781 211.296 302.705C211.169 302.63 211.056 302.548 210.957 302.46L211.237 301.998C211.273 301.942 211.316 301.899 211.365 301.87C211.414 301.84 211.477 301.826 211.552 301.826C211.627 301.826 211.698 301.847 211.763 301.89C211.832 301.932 211.911 301.978 211.999 302.027C212.087 302.076 212.191 302.122 212.309 302.165C212.43 302.207 212.582 302.229 212.765 302.229C212.91 302.229 213.032 302.212 213.134 302.179C213.239 302.143 213.324 302.098 213.389 302.042C213.458 301.986 213.507 301.922 213.537 301.85C213.57 301.775 213.586 301.698 213.586 301.619C213.586 301.501 213.55 301.405 213.478 301.33C213.409 301.254 213.316 301.189 213.198 301.133C213.083 301.077 212.951 301.028 212.8 300.986C212.652 300.94 212.5 300.891 212.343 300.838C212.189 300.786 212.037 300.725 211.886 300.656C211.739 300.584 211.606 300.494 211.488 300.386C211.373 300.278 211.28 300.145 211.208 299.988C211.139 299.831 211.105 299.641 211.105 299.418C211.105 299.212 211.146 299.015 211.228 298.829C211.31 298.642 211.429 298.48 211.586 298.342C211.747 298.201 211.945 298.09 212.181 298.008C212.42 297.923 212.695 297.88 213.006 297.88C213.353 297.88 213.669 297.938 213.954 298.052C214.239 298.167 214.477 298.318 214.667 298.504L214.392 298.942Z" fill="#353535"/>
<mask id="path-6-inside-1_3405_9239" fill="white">
<path d="M21.0724 185.298C11.0235 170.825 4.34327 154.285 1.52223 136.893C-1.29881 119.5 -0.189073 101.697 4.76997 84.7891L118 118L21.0724 185.298Z"/>
</mask>
<path d="M21.0724 185.298C11.0235 170.825 4.34327 154.285 1.52223 136.893C-1.29881 119.5 -0.189073 101.697 4.76997 84.7891L118 118L21.0724 185.298Z" fill="#7A2B8E" stroke="white" stroke-width="2" mask="url(#path-6-inside-1_3405_9239)"/>
<mask id="path-7-inside-2_3405_9239" fill="white">
<path d="M47.954 212.961C37.0045 204.884 27.5344 194.975 19.9622 183.67L118 118L47.954 212.961Z"/>
</mask>
<path d="M47.954 212.961C37.0045 204.884 27.5344 194.975 19.9622 183.67L118 118L47.954 212.961Z" fill="#6FB68A" stroke="white" stroke-width="2" mask="url(#path-7-inside-2_3405_9239)"/>
<mask id="path-8-inside-3_3405_9239" fill="white">
<path d="M83.6665 230.895C70.2278 226.808 57.6267 220.354 46.4564 211.838L118 118L83.6665 230.895Z"/>
</mask>
<path d="M83.6665 230.895C70.2278 226.808 57.6267 220.354 46.4564 211.838L118 118L83.6665 230.895Z" fill="#7944AA" stroke="white" stroke-width="2" mask="url(#path-8-inside-3_3405_9239)"/>
<mask id="path-9-inside-4_3405_9239" fill="white">
<path d="M136.377 234.56C118.15 237.434 99.5029 235.993 81.9337 230.353L118 118L136.377 234.56Z"/>
</mask>
<path d="M136.377 234.56C118.15 237.434 99.5029 235.993 81.9337 230.353L118 118L136.377 234.56Z" fill="#3EB6F3" stroke="white" stroke-width="2" mask="url(#path-9-inside-4_3405_9239)"/>
<mask id="path-10-inside-5_3405_9239" fill="white">
<path d="M184.935 215.178C169.888 225.543 152.64 232.271 134.55 234.834L118 118L184.935 215.178Z"/>
</mask>
<path d="M184.935 215.178C169.888 225.543 152.64 232.271 134.55 234.834L118 118L184.935 215.178Z" fill="#FF8AC4" stroke="white" stroke-width="2" mask="url(#path-10-inside-5_3405_9239)"/>
<mask id="path-11-inside-6_3405_9239" fill="white">
<path d="M219.156 178.757C210.169 193.72 197.975 206.502 183.452 216.184L118 118L219.156 178.757Z"/>
</mask>
<path d="M219.156 178.757C210.169 193.72 197.975 206.502 183.452 216.184L118 118L219.156 178.757Z" fill="#44D4DB" stroke="white" stroke-width="2" mask="url(#path-11-inside-6_3405_9239)"/>
<mask id="path-12-inside-7_3405_9239" fill="white">
<path d="M234.078 139.211C231.419 153.763 226.048 167.685 218.244 180.251L118 118L234.078 139.211Z"/>
</mask>
<path d="M234.078 139.211C231.419 153.763 226.048 167.685 218.244 180.251L118 118L234.078 139.211Z" fill="#FC9701" stroke="white" stroke-width="2" mask="url(#path-12-inside-7_3405_9239)"/>
<mask id="path-13-inside-8_3405_9239" fill="white">
<path d="M234.362 98.405C236.666 112.089 236.539 126.072 233.985 139.711L118 118L234.362 98.405Z"/>
</mask>
<path d="M234.362 98.405C236.666 112.089 236.539 126.072 233.985 139.711L118 118L234.362 98.405Z" fill="#FF8AC4" stroke="white" stroke-width="2" mask="url(#path-13-inside-8_3405_9239)"/>
<mask id="path-14-inside-9_3405_9239" fill="white">
<path d="M222.294 62.8033C228.482 74.4956 232.66 87.1452 234.653 100.223L118 118L222.294 62.8033Z"/>
</mask>
<path d="M222.294 62.8033C228.482 74.4956 232.66 87.1452 234.653 100.223L118 118L222.294 62.8033Z" fill="#FB74B5" stroke="white" stroke-width="2" mask="url(#path-14-inside-9_3405_9239)"/>
<mask id="path-15-inside-10_3405_9239" fill="white">
<path d="M191.472 25.6643C204.704 36.1929 215.518 49.4422 223.182 64.5149L118 118L191.472 25.6643Z"/>
</mask>
<path d="M191.472 25.6643C204.704 36.1929 215.518 49.4422 223.182 64.5149L118 118L191.472 25.6643Z" fill="#44D4DB" stroke="white" stroke-width="2" mask="url(#path-15-inside-10_3405_9239)"/>
<mask id="path-16-inside-11_3405_9239" fill="white">
<path d="M148.741 4.07468C164.956 8.44993 180.049 16.2359 193.013 26.9123L118 118L148.741 4.07468Z"/>
</mask>
<path d="M148.741 4.07468C164.956 8.44993 180.049 16.2359 193.013 26.9123L118 118L148.741 4.07468Z" fill="#32AEFF" stroke="white" stroke-width="2" mask="url(#path-16-inside-11_3405_9239)"/>
<mask id="path-17-inside-12_3405_9239" fill="white">
<path d="M4.28798 86.479C8.44811 71.4713 15.5379 57.4356 25.1485 45.181C34.7591 32.9265 46.7005 22.6957 60.2841 15.0783C73.8676 7.46099 88.8247 2.60789 104.293 0.798826C119.761 -1.01023 135.434 0.260539 150.409 4.53788L118 118L4.28798 86.479Z"/>
</mask>
<path d="M4.28798 86.479C8.44811 71.4713 15.5379 57.4356 25.1485 45.181C34.7591 32.9265 46.7005 22.6957 60.2841 15.0783C73.8676 7.46099 88.8247 2.60789 104.293 0.798826C119.761 -1.01023 135.434 0.260539 150.409 4.53788L118 118L4.28798 86.479Z" fill="#F5B7CA" stroke="white" stroke-width="2" mask="url(#path-17-inside-12_3405_9239)"/>
<circle cx="118" cy="118" r="64" fill="white"/>
<line x1="118.5" y1="269" x2="118.5" y2="304" stroke="#D1D1D1"/>
</svg>
